<svg aria-hidden="true" style="position: absolute; width: 0; height: 0; overflow: hidden;" version="1.1" xmlns="http://www.w3.org/2000/svg" xmlns:xlink="http://www.w3.org/1999/xlink">
<defs>
<symbol id="icon-tractor" viewBox="0 0 32 32">
<title>tractor</title>
<path d="M3.821 21.057c-0.893 0-1.62 0.727-1.62 1.621s0.727 1.621 1.62 1.621c0.893 0 1.62-0.727 1.62-1.621s-0.727-1.621-1.62-1.621zM3.821 23.361c-0.376 0-0.682-0.307-0.682-0.683s0.306-0.683 0.682-0.683c0.376 0 0.682 0.306 0.682 0.683s-0.306 0.683-0.682 0.683z"></path>
<path d="M10.299 21.057c-0.893 0-1.62 0.727-1.62 1.621s0.727 1.621 1.62 1.621c0.893 0 1.62-0.727 1.62-1.621s-0.727-1.621-1.62-1.621zM10.299 23.361c-0.376 0-0.682-0.307-0.682-0.683s0.306-0.683 0.682-0.683c0.376 0 0.682 0.306 0.682 0.683s-0.306 0.683-0.682 0.683z"></path>
<path d="M16.778 21.057c-0.893 0-1.62 0.727-1.62 1.621s0.727 1.621 1.62 1.621c0.893 0 1.62-0.727 1.62-1.621s-0.727-1.621-1.62-1.621zM16.778 23.361c-0.376 0-0.682-0.307-0.682-0.683s0.306-0.683 0.682-0.683c0.376 0 0.682 0.306 0.682 0.683s-0.306 0.683-0.682 0.683z"></path>
<path d="M23.257 21.057c-0.893 0-1.62 0.727-1.62 1.621s0.727 1.621 1.62 1.621c0.893 0 1.62-0.727 1.62-1.621s-0.727-1.621-1.62-1.621zM23.257 23.361c-0.376 0-0.682-0.307-0.682-0.683s0.306-0.683 0.682-0.683c0.376 0 0.682 0.306 0.682 0.683s-0.306 0.683-0.682 0.683z"></path>
<path d="M7.562 22.209h-1.071c-0.259 0-0.469 0.21-0.469 0.469s0.21 0.469 0.469 0.469h1.071c0.259 0 0.469-0.21 0.469-0.469s-0.21-0.469-0.469-0.469z"></path>
<path d="M14.074 22.209h-1.071c-0.259 0-0.469 0.21-0.469 0.469s0.21 0.469 0.469 0.469h1.071c0.259 0 0.469-0.21 0.469-0.469s-0.21-0.469-0.469-0.469z"></path>
<path d="M20.587 22.209h-1.071c-0.259 0-0.469 0.21-0.469 0.469s0.21 0.469 0.469 0.469h1.071c0.259 0 0.469-0.21 0.469-0.469s-0.21-0.469-0.469-0.469z"></path>
<path d="M18.148 14.534c-0.233-0.113-0.513-0.016-0.626 0.217l-0.799 1.649c-0.113 0.233-0.016 0.513 0.217 0.626 0.066 0.032 0.136 0.047 0.204 0.047 0.174 0 0.341-0.097 0.422-0.264l0.799-1.649c0.113-0.233 0.016-0.513-0.217-0.626z"></path>
<path d="M19.752 14.534c-0.233-0.113-0.513-0.016-0.626 0.217l-0.799 1.649c-0.113 0.233-0.016 0.513 0.217 0.626 0.066 0.032 0.136 0.047 0.204 0.047 0.174 0 0.341-0.097 0.422-0.264l0.799-1.649c0.113-0.233 0.016-0.513-0.217-0.626z"></path>
<path d="M6.867 16.135h-1.087c-0.259 0-0.469 0.21-0.469 0.469s0.21 0.469 0.469 0.469h1.087c0.259 0 0.469-0.21 0.469-0.469s-0.21-0.469-0.469-0.469z"></path>
<path d="M13.23 9.307c-0.157-0.33-0.495-0.543-0.86-0.543h-5.215c-0.525 0-0.952 0.428-0.952 0.953v2.686c0 0.178 0.050 0.352 0.144 0.504l1.431 2.301c0.175 0.281 0.477 0.449 0.809 0.449h6.041c0.525 0 0.952-0.428 0.952-0.953v-0.242c0-0.141-0.032-0.283-0.092-0.41l-2.257-4.745zM14.627 14.719h-6.041c-0.005 0-0.010-0.003-0.013-0.007l-1.431-2.301c-0.002-0.002-0.002-0.005-0.002-0.008v-2.686c0-0.009 0.007-0.015 0.015-0.015h5.216c0.006 0 0.011 0.003 0.013 0.009l2.257 4.745c0.001 0.002 0.002 0.004 0.002 0.007v0.242c-0 0.009-0.007 0.015-0.015 0.015z"></path>
<path d="M31.871 24.814l-1.063-1.719c-0.136-0.22-0.425-0.288-0.645-0.152s-0.288 0.425-0.152 0.645l0.966 1.562-4.161-0.982c0.013-0.028 0.024-0.056 0.036-0.084 0.005-0.011 0.010-0.023 0.015-0.034 0.019-0.045 0.037-0.090 0.054-0.136 0.005-0.013 0.010-0.026 0.015-0.040 0.016-0.045 0.031-0.090 0.046-0.135 0.005-0.015 0.009-0.030 0.014-0.045 0.013-0.044 0.026-0.089 0.038-0.134 0.004-0.017 0.008-0.034 0.013-0.051 0.011-0.044 0.021-0.087 0.030-0.131 0.004-0.020 0.007-0.039 0.011-0.059 0.008-0.042 0.016-0.084 0.023-0.127 0.004-0.023 0.006-0.047 0.009-0.070 0.005-0.040 0.011-0.079 0.015-0.119 0.003-0.029 0.005-0.059 0.007-0.089 0.003-0.035 0.006-0.069 0.008-0.103 0.003-0.053 0.004-0.107 0.004-0.161 0-0.011 0.001-0.022 0.001-0.033 0-0 0-0.001 0-0.001s0-0 0-0.001-0-0.001-0-0.002c-0-0.058-0.002-0.116-0.005-0.178-0.001-0.018-0.002-0.036-0.003-0.054l-0.001-0.009c-0.001-0.019-0.003-0.039-0.004-0.058-0.006-0.068-0.013-0.136-0.022-0.203-0.002-0.013-0.003-0.026-0.005-0.040 0-0 0-0-0-0-0.004-0.025-0.008-0.049-0.012-0.074l-0-0.001c-0.006-0.034-0.011-0.067-0.018-0.101-0-0.001-0-0.001-0-0.002-0.005-0.023-0.009-0.045-0.014-0.068-0.001-0.003-0.001-0.005-0.002-0.008-0.007-0.032-0.014-0.064-0.022-0.095-0-0.002-0.001-0.003-0.001-0.005-0.005-0.022-0.011-0.044-0.017-0.066-0.001-0.003-0.001-0.005-0.002-0.008-0.008-0.031-0.017-0.062-0.026-0.092-0.001-0.004-0.003-0.008-0.004-0.012-0.006-0.019-0.011-0.037-0.017-0.056-0.001-0.004-0.002-0.007-0.003-0.011-0.010-0.030-0.020-0.059-0.030-0.089-0.003-0.008-0.005-0.015-0.008-0.023-0.005-0.014-0.010-0.028-0.015-0.042-0.002-0.004-0.003-0.009-0.005-0.013-0.011-0.029-0.022-0.057-0.034-0.086l-0.005-0.013c-0.004-0.010-0.009-0.021-0.013-0.031-0.002-0.005-0.004-0.011-0.007-0.016s-0.005-0.012-0.007-0.017c-0.010-0.023-0.020-0.046-0.031-0.069l-0.012-0.027c-0.010-0.021-0.019-0.042-0.029-0.063s-0.020-0.040-0.030-0.059l-0.017-0.032c-0.011-0.021-0.022-0.043-0.033-0.063-0.007-0.013-0.014-0.025-0.021-0.037l-0.006-0.010c-0.038-0.068-0.079-0.135-0.122-0.201l-0.005-0.008c-0.006-0.010-0.013-0.020-0.019-0.029-0.019-0.028-0.038-0.055-0.057-0.082l-0.016-0.023c-0.008-0.012-0.016-0.023-0.024-0.034-0.022-0.030-0.045-0.059-0.068-0.088l-0.008-0.010c-0.009-0.012-0.019-0.025-0.028-0.036-0.023-0.029-0.048-0.057-0.072-0.086l-0.006-0.007c-0.010-0.012-0.020-0.024-0.030-0.035-0.025-0.029-0.051-0.057-0.078-0.085-0.012-0.013-0.024-0.026-0.036-0.038-0.027-0.028-0.055-0.056-0.083-0.083-0.012-0.012-0.024-0.023-0.035-0.033-0.030-0.028-0.060-0.056-0.090-0.083l-0.031-0.027c-0.033-0.028-0.066-0.056-0.1-0.084l-0.023-0.018c-0.037-0.029-0.074-0.058-0.11-0.084l-0.009-0.006c-0.182-0.133-0.375-0.247-0.576-0.344-0.002-0.001-0.003-0.002-0.005-0.002-0.104-0.050-0.211-0.095-0.319-0.136-0.016-0.006-0.032-0.011-0.047-0.017-0.022-0.008-0.044-0.016-0.066-0.023-0.002-0.001-0.008-0.003-0.010-0.003-0.011-0.004-0.022-0.007-0.033-0.010-0.025-0.008-0.051-0.016-0.077-0.023-0.014-0.004-0.027-0.009-0.042-0.013l-0.003-0.001 0.758-3.222 3.809 6.162c0.136 0.22 0.425 0.288 0.645 0.152s0.288-0.425 0.152-0.645l-3.907-6.321c-0.184-0.297-0.526-0.453-0.87-0.397s-0.619 0.312-0.7 0.653l-0.818 3.479c-0.028-0.001-0.057-0.002-0.085-0.002h-0.194v-4.603c0-0.886-0.72-1.606-1.605-1.606h-4.712l-2.212-4.649h1.434c0.408 0 0.741-0.332 0.741-0.741v-0.89c0-0.408-0.332-0.741-0.741-0.741h-8.014c-0.259 0-0.469 0.21-0.469 0.469s0.21 0.469 0.469 0.469h7.817v0.496h-11.575v-0.496h1.87c0.259 0 0.469-0.21 0.469-0.469s-0.21-0.469-0.469-0.469h-2.067c-0.408 0-0.741 0.332-0.741 0.741v0.89c0 0.408 0.332 0.741 0.741 0.741h0.238v6.824h-0.723v-2.447c0-0.352-0.286-0.638-0.638-0.638h-0.002v-1.093c0-0.409-0.333-0.742-0.742-0.742h-0.451c-0.259 0-0.469 0.21-0.469 0.469s0.21 0.469 0.469 0.469h0.256v0.898h-0.002c-0.352 0-0.638 0.286-0.638 0.638v2.447h-0.038c-0.379 0-0.687 0.308-0.687 0.687v3.597c0 0.327 0.23 0.601 0.536 0.67-0.783 0.684-1.28 1.69-1.28 2.811 0 2.055 1.672 3.727 3.727 3.727h19.699c1.146 0 2.173-0.521 2.857-1.338l4.658 1.1c0.066 0.016 0.133 0.023 0.199 0.023 0.272 0 0.532-0.13 0.697-0.358 0.204-0.284 0.218-0.659 0.034-0.956zM2.406 12.704h0.341v2.143h-0.341v-2.143zM1.681 15.789h2.795c0.479 0 0.869-0.39 0.869-0.869v-6.892h8.32l2.531 5.319c0.078 0.163 0.242 0.267 0.423 0.267h5.008c0.368 0 0.667 0.3 0.667 0.668v4.603h-20.614v-3.097zM26.215 22.622c-0 0.041-0.001 0.081-0.003 0.121-0.001 0.015-0.002 0.030-0.003 0.044-0.002 0.029-0.004 0.057-0.006 0.085-0.001 0.015-0.003 0.030-0.004 0.046-0.004 0.037-0.009 0.073-0.014 0.109-0.001 0.009-0.003 0.019-0.004 0.028-0.006 0.036-0.012 0.072-0.019 0.108-0.003 0.014-0.006 0.028-0.009 0.042-0.006 0.028-0.013 0.057-0.020 0.085-0.003 0.013-0.006 0.026-0.010 0.039-0.009 0.035-0.019 0.071-0.030 0.105-0.001 0.005-0.003 0.009-0.004 0.014-0.013 0.040-0.026 0.080-0.041 0.12-0.003 0.009-0.006 0.017-0.010 0.025-0.012 0.031-0.024 0.062-0.037 0.093-0.004 0.010-0.009 0.020-0.013 0.030-0.014 0.032-0.028 0.063-0.042 0.093-0.003 0.007-0.006 0.014-0.010 0.021-0.019 0.039-0.038 0.077-0.059 0.114-0 0.001-0.001 0.001-0.001 0.002-0.020 0.036-0.040 0.071-0.061 0.106-0.005 0.008-0.010 0.017-0.015 0.025-0.017 0.028-0.035 0.056-0.054 0.084-0.005 0.008-0.011 0.016-0.016 0.024-0.503 0.736-1.348 1.221-2.305 1.221h-19.699c-1.538 0-2.789-1.251-2.789-2.793 0-1.538 1.251-2.789 2.789-2.789h19.699c0.134 0 0.266 0.010 0.396 0.029 0.017 0.002 0.034 0.005 0.050 0.008 0.030 0.005 0.061 0.010 0.091 0.016 0.015 0.003 0.030 0.006 0.045 0.009 0.027 0.006 0.053 0.012 0.079 0.018 0.023 0.006 0.045 0.011 0.067 0.017 0.033 0.009 0.065 0.018 0.097 0.028 0.003 0.001 0.005 0.002 0.008 0.003 0.036 0.011 0.071 0.023 0.107 0.036 0.008 0.003 0.017 0.006 0.025 0.009 0.584 0.216 1.076 0.622 1.401 1.144 0.012 0.020 0.024 0.040 0.036 0.060 0.13 0.22 0.231 0.46 0.297 0.713 0.001 0.004 0.002 0.008 0.003 0.012 0.010 0.039 0.019 0.079 0.027 0.119 0.001 0.006 0.003 0.012 0.004 0.017 0.008 0.038 0.015 0.077 0.021 0.116 0.001 0.007 0.002 0.014 0.003 0.021 0.006 0.038 0.011 0.077 0.015 0.116 0.001 0.008 0.002 0.016 0.003 0.024 0.003 0.035 0.006 0.070 0.008 0.105l0.003 0.035c0.002 0.046 0.003 0.093 0.003 0.139 0 0.002-0 0.004-0 0.006z"></path>
</symbol>
<symbol id="icon-cabrestante" viewBox="0 0 32 32">
<title>cabrestante</title>
<path d="M30.115 6.32h-15.689c-0.317-1.269-1.467-2.212-2.833-2.212h-0.203l-1.605-3.794c-0.081-0.191-0.268-0.314-0.474-0.314s-0.394 0.124-0.474 0.314l-1.605 3.794h-1.239c-0.285 0-0.515 0.231-0.515 0.515v1.697h-3.593c-0.285 0-0.515 0.231-0.515 0.515v4.108c0 0.284 0.231 0.515 0.515 0.515h3.593v1.17c0 0.284 0.231 0.515 0.515 0.515h0.749v15.086h-3.488c-0.285 0-0.515 0.231-0.515 0.515v2.739c0 0.285 0.231 0.515 0.515 0.515h7.182c0.285 0 0.515-0.231 0.515-0.515s-0.231-0.515-0.515-0.515h-6.667v-1.708h11.084v1.708h-2.768c-0.285 0-0.515 0.231-0.515 0.515s0.231 0.515 0.515 0.515h3.283c0.285 0 0.515-0.231 0.515-0.515v-2.739c0-0.285-0.231-0.515-0.515-0.515h-3.488v-15.087h2.118c0.285 0 0.515-0.231 0.515-0.515v-1.17h12.558v4.674h-0.309c-0.285 0-0.515 0.231-0.515 0.515s0.231 0.515 0.515 0.515h0.309v1.312c0 0.285 0.231 0.515 0.515 0.515 0.515 0 0.933 0.419 0.933 0.933s-0.419 0.933-0.933 0.933c-0.515 0-0.933-0.419-0.933-0.933 0-0.285-0.231-0.515-0.515-0.515s-0.515 0.231-0.515 0.515c0 1.083 0.881 1.964 1.964 1.964s1.964-0.881 1.964-1.964c0-0.904-0.615-1.668-1.448-1.895v-0.866h0.309c0.285 0 0.515-0.231 0.515-0.515s-0.231-0.515-0.515-0.515h-0.309v-4.674h2.013c0.285 0 0.515-0.231 0.515-0.515v-4.108c-0-0.284-0.231-0.515-0.515-0.515zM2.4 10.429v-2.349l2.349 2.349h-2.349zM5.478 9.7l-2.349-2.349h2.349v2.349zM9.311 1.837l0.961 2.271h-1.921l0.961-2.271zM10.85 28.231h-2.349l2.349-2.349v2.349zM7.772 27.502v-5.729l2.864 2.864-2.864 2.864zM10.85 23.394l-2.864-2.864 2.864-2.864v5.729zM7.772 19.286v-5.413l2.706 2.706-2.706 2.706zM10.85 15.494l-2.349-2.349h2.349v2.349zM13.483 9.761h-3.71v-1.527c0-0.284-0.231-0.515-0.515-0.515s-0.515 0.231-0.515 0.515v2.042c0 0.284 0.231 0.515 0.515 0.515h4.225v1.322h-6.975v-6.975h2.235v1.412c0 0.284 0.231 0.515 0.515 0.515s0.515-0.231 0.515-0.515v-1.412h1.274c0.001 0 0.001 0 0.002 0s0.545-0 0.545-0c1.042 0 1.89 0.848 1.89 1.89v2.733zM14.514 9.7v-2.349h2.349l-2.349 2.349zM15.242 10.429l2.706-2.706 2.706 2.706h-5.413zM19.035 7.351h5.729l-2.864 2.864-2.864-2.864zM23.143 10.429l2.864-2.864 2.864 2.864h-5.729zM29.6 9.7l-2.349-2.349h2.349v2.349z"></path>
</symbol>
<symbol id="icon-excavadora" viewBox="0 0 32 32">
<title>excavadora</title>
<path d="M3.733 25.333c-0.884 0-1.6 0.716-1.6 1.6s0.716 1.6 1.6 1.6 1.6-0.716 1.6-1.6c-0.001-0.883-0.717-1.599-1.6-1.6zM3.733 27.467c-0.295 0-0.533-0.239-0.533-0.533s0.239-0.533 0.533-0.533 0.533 0.239 0.533 0.533c-0 0.294-0.239 0.533-0.533 0.533z"></path>
<path d="M18.133 26.933c0 0.884 0.716 1.6 1.6 1.6s1.6-0.716 1.6-1.6-0.716-1.6-1.6-1.6c-0.883 0.001-1.599 0.717-1.6 1.6zM20.267 26.933c0 0.295-0.239 0.533-0.533 0.533s-0.533-0.239-0.533-0.533 0.239-0.533 0.533-0.533c0.294 0 0.533 0.239 0.533 0.533z"></path>
<path d="M7.467 14.133c0.141 0 0.277-0.056 0.377-0.156s0.156-0.236 0.156-0.377v-0.533c0-0.295-0.239-0.533-0.533-0.533s-0.533 0.239-0.533 0.533v0.533c-0 0.141 0.056 0.277 0.156 0.377s0.236 0.156 0.377 0.156z"></path>
<path d="M7.467 16.8c0.141 0 0.277-0.056 0.377-0.156s0.156-0.236 0.156-0.377v-0.533c0-0.295-0.239-0.533-0.533-0.533s-0.533 0.239-0.533 0.533v0.533c-0 0.141 0.056 0.277 0.156 0.377s0.236 0.156 0.377 0.156z"></path>
<path d="M31.67 9.908c-0.065-0.027-0.134-0.041-0.204-0.041h-7.909c-0.142 0-0.277 0.056-0.377 0.156l-4.58 4.585c-0.645-0.312-1.351-0.474-2.067-0.475v-2.020c0-0.025-0.006-0.050-0.008-0.075 0.001-0.013 0.008-0.025 0.008-0.039-0.002-0.087-0.025-0.171-0.068-0.246-0.009-0.024-0.013-0.050-0.024-0.074l-4.080-9.18c-0.171-0.385-0.553-0.633-0.975-0.633h-10.32c-0.589 0.001-1.066 0.478-1.067 1.067v14.4c0.001 1.178 0.956 2.132 2.133 2.133h0.533v4.267c-1.472 0.002-2.665 1.195-2.667 2.667v1.067c0.002 1.472 1.195 2.665 2.667 2.667h18.133c1.472-0.002 2.665-1.195 2.667-2.667v-1.067c-0.002-1.267-0.893-2.358-2.133-2.613v-4.854c-0.001-0.716-0.163-1.422-0.474-2.067l3.805-3.8h4.136v8.91l-4.715 7.335c-0.106 0.164-0.113 0.373-0.020 0.544s0.273 0.278 0.468 0.278h4.8c1.472-0.002 2.665-1.195 2.667-2.667v-17.067c-0.001-0.216-0.131-0.409-0.33-0.492zM16.533 15.2c1.855 0.002 3.428 1.364 3.695 3.2h-3.695v-3.2zM20.267 19.467v4.267h-5.867v-4.267h5.867zM12.335 5.067l2.845 6.4h-6.113v-6.4h3.268zM1.067 5.067h4.8l0.001 6.4h-4.801v-6.4zM2.133 18.4c-0.589-0.001-1.066-0.478-1.067-1.067v-4.8h4.8c0.589-0.001 1.066-0.478 1.067-1.067v-6.4c-0.001-0.589-0.478-1.066-1.067-1.067h-4.8v-1.067h10.32l0.474 1.067h-2.794c-0.589 0.001-1.066 0.478-1.067 1.067v6.4c0.001 0.589 0.478 1.066 1.067 1.067h6.4l0 2.132-0 0.002v3.733h-7.467c0-0.295-0.239-0.533-0.533-0.533s-0.533 0.239-0.533 0.533h-4.8zM9.067 22.133v-1.067h4.267v1.067h-4.267zM13.333 23.2v0.533h-4.267v-0.533h4.267zM9.067 20v-0.533h4.267v0.533h-4.267zM8 19.467v4.267h-4.267v-4.267h4.267zM22.4 26.4v1.067c-0.001 0.883-0.717 1.599-1.6 1.6h-18.133c-0.883-0.001-1.599-0.717-1.6-1.6v-1.067c0.001-0.883 0.717-1.599 1.6-1.6h18.133c0.883 0.001 1.599 0.717 1.6 1.6zM20.278 15.938c-0.222-0.277-0.473-0.528-0.75-0.75l3.824-3.828 0.502 1.007-3.576 3.571zM24.863 12l-0.532-1.067h5.848l-1.067 1.067h-4.249zM30.933 27.467c-0.001 0.883-0.717 1.599-1.6 1.6h-3.823l4.114-6.4h1.309v4.8zM30.933 21.6h-1.067v-8.846l1.067-1.067v9.912z"></path>
<path d="M2.667 7.733c0.142 0 0.277-0.056 0.377-0.156l0.533-0.533c0.205-0.209 0.204-0.544-0.003-0.751s-0.542-0.208-0.751-0.003l-0.533 0.533c-0.152 0.152-0.198 0.382-0.116 0.581s0.277 0.329 0.493 0.329z"></path>
<path d="M3.89 7.89l-1.6 1.6c-0.137 0.134-0.191 0.332-0.142 0.517s0.194 0.33 0.379 0.379 0.383-0.005 0.517-0.142l1.6-1.6c0.205-0.209 0.204-0.544-0.003-0.751s-0.542-0.208-0.751-0.003z"></path>
</symbol>
<symbol id="icon-excavadora-1" viewBox="0 0 32 32">
<title>excavadora-1</title>
<path d="M6.702 8.427c-1.061 0-1.92 0.859-1.92 1.92s0.859 1.92 1.92 1.92c1.061 0 1.92-0.859 1.92-1.92s-0.859-1.92-1.92-1.92zM6.702 11.181c-0.461 0-0.835-0.374-0.835-0.835s0.373-0.835 0.835-0.835c0.461 0 0.835 0.373 0.835 0.835s-0.374 0.835-0.835 0.835z"></path>
<path d="M17.9 18.369h8.557c0.856 0 1.556-0.7 1.556-1.556v-9.182c0-0.856-0.7-1.556-1.556-1.556h-7c-0.856 0-1.696 0.686-1.868 1.525l-0.934 3.409c-0.171 0.839-0.311 2.225-0.311 3.081v2.723c-0 0.856 0.7 1.556 1.556 1.556zM17.511 11.493l0.837-3.339c0.117-0.631 0.738-1.148 1.38-1.148h6.163c0.642 0 1.167 0.525 1.167 1.167v3.299c0 0.642-0.525 1.167-1.167 1.167h-6.707l0.575-1.361c0.1-0.238-0.011-0.511-0.248-0.612s-0.512 0.011-0.612 0.248l-0.713 1.688c-0.481-0.127-0.774-0.577-0.675-1.111z"></path>
<path d="M17.531 22.661c0 0.807-0.654 1.461-1.461 1.461s-1.461-0.654-1.461-1.461c0-0.807 0.654-1.461 1.461-1.461s1.461 0.654 1.461 1.461z"></path>
<path d="M23.636 22.661c0 0.807-0.654 1.461-1.461 1.461s-1.461-0.654-1.461-1.461c0-0.807 0.654-1.461 1.461-1.461s1.461 0.654 1.461 1.461z"></path>
<path d="M29.742 22.661c0 0.807-0.654 1.461-1.461 1.461s-1.461-0.654-1.461-1.461c0-0.807 0.654-1.461 1.461-1.461s1.461 0.654 1.461 1.461z"></path>
<path d="M30.908 19.505c-0.73-0.542-1.529-0.536-2.379-0.536-2.449 0-4.898 0-7.347 0-2.013 0-4.027 0-6.041 0-1.499 0-2.785 1.156-2.785 2.693 0 0.518 0 1.036 0 1.554 0 0.916 0.451 1.703 1.176 2.241 0.692 0.513 1.524 0.469 2.332 0.469 1.054 0 2.108 0 3.163 0 2.7 0 5.4 0 8.1 0 0.694 0 1.388 0 2.082 0 1.507 0 2.716-1.127 2.782-2.635 0.002-0.017 0.003-0.034 0.003-0.051 0-1.363 0.155-2.813-1.086-3.734zM31.127 23.238c-0.027 1.009-0.811 1.794-1.82 1.82-0.136 0.004-0.273 0-0.409 0-0.913 0-1.825 0-2.738 0-2.729 0-5.458 0-8.188 0-0.87 0-1.74 0-2.61 0-0.225 0-0.449 0.008-0.671-0.033-0.878-0.163-1.469-0.968-1.469-1.837 0-0.511 0-1.021 0-1.532 0-1.009 0.831-1.794 1.82-1.82 0.505-0.013 1.012 0 1.517 0 2.625 0 5.25 0 7.875 0 1.173 0 2.346 0 3.519 0 0.55 0 1.159-0.068 1.704 0.033 0.878 0.163 1.469 0.968 1.469 1.837 0 0.511 0 1.021 0 1.532z"></path>
<path d="M6.702 9.914c-0.239 0-0.433 0.194-0.433 0.433s0.194 0.433 0.433 0.433 0.433-0.194 0.433-0.433c0-0.239-0.194-0.433-0.433-0.433z"></path>
<path d="M14.983 16.324c0 0 0 0 0 0 0.291 0 0.554-0.214 0.653-0.533 0.103-0.331-0.007-0.657-0.288-0.851l-6.371-4.407c-0.043 0.523-0.262 0.997-0.599 1.361l6.216 4.299c0.125 0.086 0.256 0.13 0.389 0.13z"></path>
<path d="M4.28 18.984c-0.346-0.882-0.585-2.682-0.697-3.668l1.949-3.010c-0.448-0.268-0.796-0.685-0.977-1.182l-2.429 3.751c-0.742 1.135-2.556 4.133-2.035 5.595 0.775 2.172 3.955 2.847 5.825 2.84 0.718-0.003 1.118-0.299 0.644-0.882 0 0-1.772-2.145-2.282-3.444z"></path>
</symbol>
<symbol id="icon-camion-de-construccion" viewBox="0 0 32 32">
<title>camion-de-construccion</title>
<path d="M31.918 15.725c-0.053-0.053-0.124-0.082-0.198-0.082h-1.101l0.002-6.536c0-0.074-0.030-0.146-0.082-0.198s-0.124-0.082-0.198-0.082h-7.222l0.971-1.090h5.832c0.155 0 0.28-0.126 0.28-0.28v-1.863c0-0.155-0.126-0.28-0.28-0.28h-6.379c-0.348 0-0.679 0.15-0.909 0.41l-0.883 1.001-21.468 0.001c-0.074 0-0.146 0.030-0.198 0.082s-0.082 0.124-0.082 0.198l0.001 2.972c0 0.102 0.055 0.196 0.144 0.245l4.953 2.755 3.702 4.729c-2.094 0.444-3.595 2.285-3.595 4.441 0 2.505 2.038 4.542 4.542 4.542 2.045 0 3.834-1.365 4.378-3.33h5.143c0.544 1.965 2.333 3.33 4.378 3.33s3.833-1.364 4.378-3.329l3.695-0c0.155 0 0.28-0.126 0.28-0.28l0-7.156c-0-0.074-0.030-0.146-0.082-0.198zM9.747 24.359c-1.22 0-2.213-0.993-2.213-2.213s0.993-2.213 2.213-2.213c1.22 0 2.213 0.993 2.213 2.213s-0.993 2.213-2.213 2.213zM23.646 24.359c-1.22 0-2.213-0.993-2.213-2.213s0.993-2.213 2.213-2.213 2.213 0.993 2.213 2.213c-0 1.22-0.993 2.213-2.213 2.213zM28.194 14.559h-2.673l-1.391-3.308h4.064v3.308z"></path>
</symbol>
<symbol id="icon-hormigonera-con-ruedas" viewBox="0 0 32 32">
<title>hormigonera-con-ruedas</title>
<path d="M27.743 25.717c-1.074 0-1.948 0.874-1.948 1.948s0.874 1.948 1.948 1.948c1.074 0 1.948-0.874 1.948-1.948s-0.874-1.948-1.948-1.948zM27.743 29.056c-0.767 0-1.392-0.624-1.392-1.392s0.624-1.392 1.392-1.392c0.767 0 1.392 0.624 1.392 1.392s-0.624 1.392-1.392 1.392z"></path>
<path d="M30.875 24.785v-14.169c0-0.358-0.292-0.65-0.65-0.65h-3.486c-0.358 0-0.65 0.292-0.65 0.65v13.127c-1.019 0.431-1.836 1.249-2.267 2.267l-22.794-0c-0.359 0-0.65 0.292-0.65 0.65v2.009c0 0.358 0.292 0.65 0.65 0.65h0.45v1.974c0 0.358 0.292 0.65 0.65 0.65h3.572c0.358 0 0.65-0.292 0.65-0.65v-1.974h17.472c0.647 1.528 2.161 2.602 3.922 2.602 2.347 0 4.257-1.91 4.257-4.257-0-1.11-0.427-2.121-1.126-2.88zM26.645 10.616c0-0.052 0.042-0.094 0.094-0.094h0.844c-0.003 0.017-0.005 0.034-0.005 0.052v7.366c0 0.154 0.124 0.278 0.278 0.278s0.278-0.124 0.278-0.278v-7.366c0-0.018-0.002-0.035-0.005-0.052h2.097c0.052 0 0.094 0.042 0.094 0.094v13.662c-0.716-0.546-1.608-0.87-2.575-0.87-0.38 0-0.748 0.051-1.099 0.145v-12.936zM5.794 31.293c0 0.052-0.042 0.094-0.094 0.094h-3.572c-0.052 0-0.094-0.042-0.094-0.094v-1.974h3.76v1.974zM1.028 28.763c-0.052 0-0.094-0.042-0.094-0.094v-2.009c0-0.052 0.042-0.094 0.094-0.094l22.603 0c-0.094 0.351-0.145 0.719-0.145 1.099s0.051 0.748 0.145 1.098h-22.603zM27.743 31.365c-2.041 0-3.701-1.66-3.701-3.701s1.66-3.701 3.701-3.701c2.041 0 3.701 1.66 3.701 3.701s-1.66 3.701-3.701 3.701z"></path>
<path d="M2.267 16.423v-1.061h3.374v2.788c0 0.449 0.139 1.125 0.317 1.537l2.043 4.748c0.206 0.477 0.774 0.852 1.294 0.852h12.462c0.52 0 1.088-0.374 1.294-0.852l2.043-4.748c0.178-0.413 0.317-1.088 0.317-1.537v-7.402c0-0.457-0.171-1.129-0.39-1.531l-4.551-8.361c-0.244-0.448-0.834-0.799-1.344-0.799h-7.199c-0.51 0-1.1 0.351-1.344 0.799l-4.551 8.361c-0.219 0.401-0.39 1.074-0.39 1.53v1.751h-3.374v-1.062c0-0.154-0.124-0.278-0.278-0.278h-1.711c-0.154 0-0.278 0.124-0.278 0.278v4.985c0 0.154 0.124 0.278 0.278 0.278h1.711c0.154 0 0.278-0.124 0.278-0.278zM11.070 1.122c0.148-0.271 0.547-0.509 0.856-0.509h7.199c0.308 0 0.708 0.238 0.856 0.509l0.559 1.026h-7.308c-0.154 0-0.278 0.124-0.278 0.278s0.124 0.278 0.278 0.278h7.611l0.791 1.453h-4.493c-0.154 0-0.278 0.124-0.278 0.278s0.124 0.278 0.278 0.278h4.796l2.596 4.77c0.174 0.32 0.322 0.9 0.322 1.265v7.402c0 0.133-0.016 0.296-0.043 0.466h-10.378c-0.154 0-0.278 0.124-0.278 0.278s0.124 0.278 0.278 0.278h10.253c-0.032 0.11-0.067 0.211-0.104 0.296l-2.043 4.748c-0.118 0.274-0.484 0.515-0.783 0.515h-12.462c-0.299 0-0.665-0.241-0.783-0.515l-2.043-4.748c-0.037-0.085-0.072-0.186-0.104-0.296h5.077c0.154 0 0.278-0.124 0.278-0.278s-0.124-0.278-0.278-0.278h-5.202c-0.027-0.17-0.043-0.333-0.043-0.466v-7.402c0-0.134 0.020-0.297 0.054-0.466h16.004c0.154 0 0.278-0.124 0.278-0.278s-0.124-0.278-0.278-0.278h-15.845c0.034-0.090 0.071-0.173 0.109-0.243l4.551-8.361zM5.641 13.055v1.751h-3.374v-1.751h3.374zM1.711 16.145h-1.155v-4.429h1.155v4.429z"></path>
</symbol>
<symbol id="icon-demolicion" viewBox="0 0 32 32">
<title>demolicion</title>
<path d="M11.246 11.346c-0.107-0.426-0.533-0.746-1.013-0.746h-3.838c-0.586 0-1.066 0.48-1.066 1.066v2.665c0 0.586 0.48 1.066 1.066 1.066h4.637c0.32 0 0.64-0.16 0.8-0.426 0.213-0.32 0.267-0.64 0.16-0.959l-0.746-2.665zM6.396 14.331v-2.665h3.838l0.8 2.665h-4.637z"></path>
<path d="M7.462 26.59c-0.32 0-0.533 0.213-0.533 0.533s0.213 0.533 0.533 0.533 0.533-0.213 0.533-0.533-0.213-0.533-0.533-0.533z"></path>
<path d="M10.127 26.59c-0.32 0-0.533 0.213-0.533 0.533s0.213 0.533 0.533 0.533 0.533-0.213 0.533-0.533-0.213-0.533-0.533-0.533z"></path>
<path d="M12.792 26.59c-0.32 0-0.533 0.213-0.533 0.533s0.213 0.533 0.533 0.533c0.32 0 0.533-0.213 0.533-0.533s-0.213-0.533-0.533-0.533z"></path>
<path d="M15.457 26.59c-0.32 0-0.533 0.213-0.533 0.533s0.213 0.533 0.533 0.533 0.533-0.213 0.533-0.533-0.213-0.533-0.533-0.533z"></path>
<path d="M18.122 26.59c-0.32 0-0.533 0.213-0.533 0.533s0.213 0.533 0.533 0.533 0.533-0.213 0.533-0.533-0.213-0.533-0.533-0.533z"></path>
<path d="M22.919 24.458h-0.721l1.787-5.064c0.213-0.373 0.16-0.853-0.053-1.226-0.267-0.426-0.64-0.64-1.119-0.64h-5.045l10.482-10.903v5.619c-1.507 0.256-2.665 1.575-2.665 3.152 0 0.693 0.213 1.386 0.64 1.919 0.16 0.213 0.533 0.267 0.746 0.107s0.267-0.533 0.107-0.746c-0.267-0.373-0.426-0.8-0.426-1.279 0-1.173 0.959-2.132 2.132-2.132s2.132 0.959 2.132 2.132c0 0.48-0.16 0.906-0.426 1.279-0.16 0.213-0.107 0.586 0.107 0.746 0.107 0.053 0.213 0.107 0.32 0.107 0.16 0 0.32-0.053 0.426-0.213 0.426-0.533 0.64-1.226 0.64-1.919 0-1.577-1.158-2.897-2.665-3.152v-6.975c0-0.020-0.001-0.040-0.003-0.059 0.097-0.283 0.135-0.585 0.109-0.9-0.053-0.64-0.373-1.226-0.853-1.599-0.906-0.746-2.239-0.64-3.038 0.213l-10.332 10.934-1.074-4.805c-0.213-0.959-1.066-1.652-2.079-1.652h-1.386v-1.066c0-1.173-0.959-2.132-2.132-2.132s-2.132 0.959-2.132 2.132v1.066h-1.599c-1.173 0-2.132 0.959-2.132 2.132v14.924c-1.492-0-2.665 1.173-2.665 2.665s1.173 2.665 2.665 2.665h20.254c1.492 0 2.665-1.173 2.665-2.665s-1.173-2.665-2.665-2.665zM20.774 28.722h-15.965c0.328-0.443 0.52-0.995 0.52-1.599s-0.192-1.156-0.52-1.599h15.965c-0.328 0.443-0.52 0.995-0.52 1.599s0.192 1.156 0.52 1.599zM26.33 3.724c0.426-0.426 1.119-0.48 1.599-0.107 0.267 0.16 0.426 0.48 0.426 0.8s-0.107 0.64-0.32 0.853l-11.726 12.259h-0.267l-0.382-1.597-0.194-0.867 10.862-11.342zM7.462 6.336c0-0.586 0.48-1.066 1.066-1.066s1.066 0.48 1.066 1.066v1.066h-2.132v-1.066zM3.731 9.534c0-0.586 0.48-1.066 1.066-1.066h7.195c0.533 0 0.959 0.373 1.066 0.853l1.866 8.208h-11.193v-7.995zM3.731 22.859h11.726c0.32 0 0.533-0.213 0.533-0.533s-0.213-0.533-0.533-0.533h-11.726v-1.066h8.528c0.32 0 0.533-0.213 0.533-0.533s-0.213-0.533-0.533-0.533h-8.528v-1.013h19.081c0.107 0 0.213 0.053 0.213 0.107 0 0 0.053 0.107 0 0.213l-1.919 5.383c-0.053 0.053-0.107 0.107-0.213 0.107h-17.163v-1.599zM1.066 27.123c0-0.906 0.693-1.599 1.599-1.599s1.599 0.693 1.599 1.599-0.693 1.599-1.599 1.599c-0.906 0-1.599-0.693-1.599-1.599zM22.919 28.722c-0.906 0-1.599-0.693-1.599-1.599s0.693-1.599 1.599-1.599 1.599 0.693 1.599 1.599-0.693 1.599-1.599 1.599z"></path>
<path d="M31.98 21.206l-0.533-2.132c0-0.16-0.107-0.32-0.267-0.373l-2.132-1.066c-0.213-0.107-0.48-0.053-0.64 0.107l-2.132 2.132c-0.16 0.107-0.213 0.32-0.16 0.48l0.533 2.132c0.053 0.16 0.213 0.32 0.426 0.373l2.665 0.533c0.053 0 0.053 0 0.107 0 0.16 0 0.267-0.053 0.373-0.107l1.599-1.599c0.16-0.107 0.213-0.32 0.16-0.48zM29.688 22.272l-2.079-0.426-0.373-1.492 1.652-1.652 1.546 0.799 0.426 1.599-1.173 1.173z"></path>
</symbol>
<symbol id="icon-grua-de-construccion" viewBox="0 0 32 32">
<title>grua-de-construccion</title>
<path d="M6.197 31.259h-1.601c-0.019 0-0.039-0.001-0.057-0.004h-3.282c-0.141 0-0.27-0.075-0.341-0.197s-0.070-0.272 0-0.393l3.286-5.668v-18.149h-3.809c-0.168 0-0.318-0.107-0.372-0.266s-0.001-0.335 0.132-0.438l4.050-3.124v-1.886c0-0.217 0.176-0.393 0.393-0.393h1.601c0.217 0 0.393 0.176 0.393 0.393v1.732l8.633 1.333c0.003 0 0.007 0.001 0.010 0.002l12.080 1.865c0.047 0.006 0.092 0.021 0.132 0.043s0.075 0.049 0.105 0.081c0 0 0 0 0 0.001 0.048 0.052 0.081 0.117 0.095 0.189 0.005 0.025 0.007 0.052 0.007 0.078v6.831l4.233 4.264c0.112 0.113 0.145 0.282 0.084 0.428s-0.204 0.242-0.363 0.242h-8.726c-0.159 0-0.302-0.096-0.363-0.243s-0.027-0.316 0.085-0.429l4.264-4.264v-6.44h-9.104c-0.003 0-0.006 0-0.009 0h-11.163v18.105l4.991 5.648c0.102 0.116 0.127 0.281 0.064 0.422s-0.204 0.232-0.358 0.232h-5.032c-0.019 0.003-0.038 0.004-0.057 0.004zM6.59 30.469h3.824l-3.824-4.328v4.328zM4.989 30.469h0.815v-5.365c0-0.001 0-0.002 0-0.003v-18.253h-0.815v18.247c0 0.005 0 0.010 0 0.014v5.359zM1.939 30.469h2.264v-3.904l-2.264 3.904zM23.83 17.437h6.833l-3.404-3.429-3.429 3.429zM17.886 6.062h4.251l-5.409-0.835 1.159 0.835zM13.876 6.062h2.664l-1.366-0.985-1.298 0.985zM9.669 6.062h2.447l-1.183-1.503-1.264 1.503zM6.59 6.062h1.553l-1.553-1.8v1.8zM4.989 6.062h0.815v-2.465h-0.815v2.465zM1.547 6.062h2.656v-2.049l-2.656 2.049zM11.869 4.477l1.045 1.328 1.278-0.969-2.323-0.359zM7.192 3.755l1.716 1.99 1.284-1.527-3-0.463zM4.989 2.81h0.815v-1.283h-0.815v1.283z"></path>
</symbol>
<symbol id="icon-excavadora-industrial" viewBox="0 0 32 32">
<title>excavadora-industrial</title>
<path d="M24.081 22.176c-0.31 0-0.561 0.251-0.561 0.561 0 0.297-0.242 0.539-0.539 0.539s-0.539-0.242-0.539-0.539c0-0.297 0.242-0.539 0.539-0.539 0.31 0 0.561-0.251 0.561-0.561s-0.251-0.561-0.561-0.561c-0.916 0-1.662 0.745-1.662 1.661s0.745 1.662 1.662 1.662c0.916 0 1.661-0.745 1.661-1.662 0-0.31-0.251-0.561-0.561-0.561z"></path>
<path d="M6.698 22.176c-0.31 0-0.561 0.251-0.561 0.561 0 0.297-0.242 0.539-0.539 0.539s-0.539-0.242-0.539-0.539c0-0.297 0.242-0.539 0.539-0.539 0.31 0 0.561-0.251 0.561-0.561s-0.251-0.561-0.561-0.561c-0.916 0-1.662 0.745-1.662 1.661s0.745 1.662 1.662 1.662 1.661-0.745 1.661-1.662c0-0.31-0.251-0.561-0.561-0.561z"></path>
<path d="M17.99 20.524h-7.259c-0.31 0-0.561 0.251-0.561 0.561s0.251 0.561 0.561 0.561h7.259c0.31 0 0.561-0.251 0.561-0.561s-0.251-0.561-0.561-0.561z"></path>
<path d="M31.861 17.017c0.016-0.018 0.030-0.036 0.043-0.055 0-0.001 0.001-0.001 0.001-0.002 0.014-0.021 0.026-0.043 0.037-0.065 0.002-0.004 0.004-0.008 0.006-0.012 0.010-0.022 0.019-0.044 0.026-0.066 0-0.001 0.001-0.003 0.001-0.004 0.007-0.024 0.012-0.048 0.016-0.072 0.001-0.005 0.002-0.011 0.002-0.016 0.003-0.025 0.006-0.050 0.006-0.076v-3.962c0-1.238-1.007-2.244-2.244-2.244h-1.439l-2.69-2.689c0.106-0.221 0.166-0.468 0.166-0.73 0-0.931-0.758-1.689-1.689-1.689-0.384 0-0.738 0.129-1.022 0.346-0.010 0.007-0.020 0.015-0.029 0.023-0.085 0.068-0.164 0.144-0.235 0.228l-5.518 5.416-0.529-1.71c-0.002-0.008-0.005-0.015-0.008-0.023-0.423-1.184-1.491-2.011-2.597-2.011h-8.541c-1.238 0-2.244 1.007-2.244 2.244v2.788h-1.135c-1.238 0-2.244 1.007-2.244 2.244v3.367c0 1.238 1.007 2.244 2.244 2.244h0.134c-0.447 0.638-0.71 1.413-0.71 2.249 0 2.167 1.763 3.93 3.93 3.93 1.765 0 3.262-1.171 3.756-2.776h9.871c0.494 1.606 1.991 2.776 3.757 2.776 2.166 0 3.929-1.763 3.929-3.93 0-1.065-0.426-2.032-1.117-2.74v-2.84c0-1.238-1.007-2.244-2.244-2.244h-2.866l4.302-6.216 1.745 1.745h-0.919c-0.227 0-0.431 0.136-0.518 0.346s-0.039 0.451 0.121 0.611l5.233 5.249-0.703 0.703c-0.219 0.219-0.219 0.574 0 0.793 0.11 0.11 0.253 0.164 0.397 0.164s0.287-0.055 0.397-0.164l1.099-1.099c0.004-0.004 0.008-0.009 0.012-0.014s0.009-0.009 0.013-0.014zM24.671 7.022c0 0.313-0.254 0.567-0.567 0.567s-0.567-0.254-0.567-0.567c0-0.126 0.042-0.242 0.111-0.336l0.129-0.127c0.092-0.065 0.205-0.104 0.326-0.104 0.313-0 0.567 0.254 0.567 0.567zM15.83 10.393l1.399 4.52h-8.251v-4.52h6.852zM5.598 25.545c-1.548 0-2.807-1.259-2.807-2.807s1.259-2.807 2.807-2.807c1.547 0 2.806 1.259 2.806 2.807s-1.259 2.807-2.806 2.807zM22.981 25.545c-1.548 0-2.807-1.259-2.807-2.807s1.259-2.807 2.807-2.807c1.547 0 2.807 1.259 2.807 2.807s-1.259 2.807-2.807 2.807zM24.519 16.596h-0.924c-0.31 0-0.561 0.251-0.561 0.561s0.251 0.561 0.561 0.561h1.075v1.473c-0.512-0.245-1.085-0.383-1.69-0.383-2.167 0-3.93 1.763-3.93 3.929 0 0.010 0.001 0.021 0.001 0.031h-9.527c0-0.010 0.001-0.021 0.001-0.031 0-2.167-1.762-3.929-3.929-3.929-0.737 0-1.427 0.204-2.017 0.558h-1.337c-0.619 0-1.122-0.503-1.122-1.122v-3.367c0-0.619 0.503-1.122 1.122-1.122h1.696c0.31 0 0.561-0.251 0.561-0.561v-3.349c0-0.619 0.503-1.122 1.122-1.122h8.541c0.396 0 0.798 0.21 1.107 0.548h-6.647c-0.425 0-0.77 0.346-0.77 0.77v5.433c0 0.31 0.251 0.561 0.561 0.561h9.57c0.002 0 0.004 0 0.006 0h1.619c0 0 0.001 0 0.001 0s0.001-0 0.001-0h3.936c0.414-0 0.776 0.226 0.97 0.561zM18.404 14.913l-0.731-2.362 4.902-4.811c0.208 0.441 0.6 0.778 1.078 0.91l-4.334 6.263h-0.914zM29.756 11.564c0.619 0 1.122 0.503 1.122 1.122v2.605l-3.716-3.727h2.594z"></path>
</symbol>
<symbol id="icon-excavar" viewBox="0 0 32 32">
<title>excavar</title>
<path d="M30.929 11.554h-2.123c-0.037-0.066-0.081-0.129-0.134-0.187l-1.977-2.208c-0.203-0.227-0.493-0.357-0.798-0.357h-4.113c-0.425 0-0.81 0.252-0.981 0.641l-2.781 6.351h-2.533l-0.924-8.625h0.349c0.591 0 1.071-0.479 1.071-1.071s-0.479-1.071-1.071-1.071h-1.544c-0.001 0-0.002 0-0.004 0h-11.224c-0.591 0-1.071 0.479-1.071 1.071s0.479 1.071 1.071 1.071h0.47v6.575c-0.142-0.070-0.301-0.11-0.47-0.11-0.591 0-1.071 0.479-1.071 1.071v3.651c0 0.485 0.323 0.894 0.765 1.026-1.107 0.745-1.838 2.011-1.838 3.443 0 2.287 1.86 4.147 4.147 4.147h18.184c2.287 0 4.147-1.86 4.147-4.147s-1.86-4.147-4.147-4.147h-6.532l-0.079-0.742h3.004c0.425 0 0.81-0.252 0.981-0.641l2.781-6.351h2.934l0.558 0.623c-0.516 0.077-0.912 0.521-0.912 1.058v3.093c0 0.439 0.268 0.833 0.676 0.995 1.604 0.637 2.876 1.854 3.582 3.429l0.629 1.403c0.175 0.391 0.562 0.633 0.977 0.633 0.074 0 0.15-0.008 0.225-0.024 0.494-0.106 0.847-0.542 0.847-1.047v-8.481c-0-0.591-0.48-1.071-1.071-1.071zM8.163 7.169h4.249l0.693 6.465h-4.942v-6.465zM4.755 7.169c0 0 1.266 0 1.266 0v6.465h-1.266v-6.465zM4.755 15.776h8.484c0.032 0 0.063-0.002 0.094-0.005l0.312 2.907h-8.89v-2.902zM22.331 20.82c1.106 0 2.005 0.9 2.005 2.005s-0.9 2.005-2.005 2.005h-18.184c-1.106 0-2.005-0.9-2.005-2.005s0.9-2.005 2.005-2.005h18.184zM29.858 17.058c-0.739-0.838-1.636-1.529-2.652-2.034v-1.328h2.652v3.362z"></path>
<path d="M5.418 22.825c0 0.566-0.459 1.026-1.026 1.026s-1.026-0.459-1.026-1.026c0-0.566 0.459-1.026 1.026-1.026s1.026 0.459 1.026 1.026z"></path>
<path d="M23.244 22.825c0 0.566-0.459 1.026-1.026 1.026s-1.026-0.459-1.026-1.026c0-0.566 0.459-1.026 1.026-1.026s1.026 0.459 1.026 1.026z"></path>
</symbol>
<symbol id="icon-excavadora-2" viewBox="0 0 32 32">
<title>excavadora-2</title>
<path d="M15.95 21.139c-0.973 0-1.761 0.789-1.761 1.761 0.001 0.972 0.789 1.76 1.762 1.761s1.761-0.789 1.761-1.762c-0-0.973-0.789-1.761-1.762-1.761zM15.95 23.595c-0.384-0-0.694-0.311-0.694-0.695s0.311-0.695 0.695-0.695c0.384 0 0.695 0.311 0.694 0.695s-0.311 0.695-0.695 0.695z"></path>
<path d="M4.831 21.139c-0.973 0-1.761 0.789-1.761 1.761 0.001 0.972 0.789 1.76 1.762 1.761 0.973-0 1.761-0.789 1.761-1.762s-0.789-1.761-1.762-1.761zM4.831 23.595c-0.384-0-0.694-0.311-0.694-0.695s0.311-0.695 0.695-0.695c0.384 0 0.695 0.311 0.694 0.695s-0.311 0.695-0.695 0.695z"></path>
<path d="M31.733 19.946c-0.329-0.474-0.871-0.753-1.447-0.746h-5.221v-4.266c-0.001-0.883-0.717-1.599-1.6-1.6h-2.92l-4.061-5.866h0.582c0.883-0.001 1.599-0.717 1.6-1.6-0.004-0.882-0.718-1.596-1.6-1.6h-15.524c-0.466 0.002-0.9 0.235-1.159 0.622-0.3 0.434-0.369 0.989-0.184 1.483l0.001 0.002 2.33 6.209c0.131 0.363 0.364 0.68 0.671 0.913v2.503h-1.6c-0.883 0.001-1.599 0.717-1.6 1.6v5.333c-0 0.294 0.239 0.533 0.533 0.533 0 0 0 0 0 0h0.121c0.049 0.366 0.146 0.723 0.288 1.064l-0.101 0.058c-0.255 0.148-0.342 0.474-0.194 0.729s0.473 0.342 0.728 0.195l0.106-0.061c0.23 0.301 0.499 0.57 0.8 0.8l-0.061 0.106c-0.147 0.255-0.060 0.581 0.196 0.729s0.581 0.060 0.728-0.195l0.058-0.1c0.351 0.146 0.719 0.244 1.096 0.291v0.118c0 0.295 0.239 0.533 0.533 0.533s0.533-0.239 0.533-0.533v-0.118c0.377-0.047 0.746-0.145 1.096-0.292l0.058 0.1c0.147 0.255 0.474 0.342 0.729 0.195s0.342-0.473 0.195-0.728l-0.062-0.108c0.3-0.23 0.568-0.499 0.797-0.8l0.11 0.064c0.255 0.147 0.581 0.060 0.729-0.195s0.060-0.581-0.195-0.729l-0.106-0.061c0.142-0.34 0.239-0.696 0.288-1.061h2.77c0.049 0.366 0.145 0.723 0.288 1.063l-0.101 0.058c-0.255 0.148-0.342 0.474-0.194 0.729s0.473 0.342 0.728 0.195l0.106-0.061c0.23 0.301 0.499 0.57 0.8 0.8l-0.061 0.106c-0.147 0.255-0.060 0.581 0.196 0.729s0.581 0.060 0.728-0.195l0.058-0.1c0.351 0.146 0.719 0.244 1.096 0.291v0.118c0 0.295 0.239 0.533 0.533 0.533s0.533-0.239 0.533-0.533v-0.118c0.377-0.047 0.746-0.145 1.096-0.292l0.058 0.1c0.148 0.255 0.474 0.342 0.729 0.194s0.342-0.473 0.195-0.728l-0.062-0.107c0.3-0.23 0.568-0.499 0.797-0.8l0.109 0.063c0.255 0.147 0.581 0.060 0.729-0.195s0.060-0.581-0.195-0.729l-0.105-0.061c0.142-0.34 0.239-0.696 0.288-1.061h0.142c0.294 0 0.533-0.239 0.533-0.533 0-0 0-0 0-0v-6.4h1.067v3.11c-0.494 0.421-0.666 1.111-0.427 1.715l0.001 0.003 1.502 3.728c0.271 0.641 0.904 1.054 1.6 1.043h4.245c0.694 0.011 1.326-0.399 1.599-1.038l1.504-3.735c0.19-0.468 0.131-1-0.157-1.414zM16.538 9.6c0.037-0.003 0.074-0.011 0.109-0.022l2.6 3.755h-3.25c-0.004-0.005-0.008-0.009-0.012-0.014-0.020-0.026-0.043-0.050-0.064-0.075-0.049-0.060-0.1-0.119-0.154-0.175-0.029-0.029-0.060-0.056-0.090-0.084-0.050-0.047-0.101-0.093-0.155-0.136-0.034-0.027-0.070-0.053-0.106-0.078-0.054-0.039-0.108-0.075-0.164-0.11-0.038-0.023-0.077-0.046-0.116-0.067-0.058-0.031-0.116-0.060-0.176-0.087-0.010-0.004-0.019-0.010-0.029-0.014v-2.893h1.606zM14.664 16.319c-0.243 0.14-0.518 0.214-0.798 0.215-0.884 0.001-1.601-0.714-1.602-1.598s0.714-1.601 1.598-1.602c0.572-0.001 1.101 0.304 1.387 0.799 0.442 0.765 0.18 1.744-0.585 2.186zM2.549 9.6h4.384c0.295 0 0.533-0.239 0.533-0.533s-0.239-0.533-0.533-0.533h-4.784l-0.4-1.067h6.251c0.295 0 0.533-0.239 0.533-0.533s-0.239-0.533-0.533-0.533h-6.651l-0.15-0.4c-0.063-0.167-0.041-0.355 0.060-0.503 0.062-0.098 0.168-0.159 0.283-0.164h15.524c0.144-0 0.281 0.059 0.38 0.163 0.099 0.097 0.155 0.231 0.154 0.37-0 0.294-0.239 0.533-0.533 0.533h-4.128c-0.211 0-0.402 0.124-0.487 0.317l-2.461 5.546c-0.054 0.119-0.13 0.228-0.223 0.32-0.141 0.136-0.328 0.213-0.524 0.217h-4.949c-0.353-0.014-0.659-0.25-0.764-0.587l-0.98-2.612zM5.020 13.867h1.692l2.133 2.133h-1.692l-2.133-2.133zM5.645 16h-1.379v-1.379l1.379 1.379zM8.22 13.867h1.379v1.379l-1.379-1.379zM4.834 26.052l-0.002-0-0.002 0c-1.726-0.005-3.129-1.394-3.15-3.119v-0.028l0.001-0.004-0.001-0.003c0.001-0.148 0.013-0.295 0.035-0.441 0.005-0.038 0.011-0.075 0.017-0.113 0.023-0.131 0.054-0.26 0.093-0.387 0.019-0.061 0.043-0.12 0.066-0.179 0.020-0.054 0.042-0.108 0.066-0.16 0.435-0.97 1.328-1.655 2.378-1.825 0.069-0.010 0.139-0.023 0.208-0.029v0c0.030-0.003 0.061-0.003 0.092-0.005 0.092-0.005 0.184-0.008 0.276-0.006 0.032 0.001 0.064 0.003 0.097 0.005 0.086 0.005 0.172 0.013 0.257 0.024 0.037 0.005 0.075 0.011 0.112 0.017 0.075 0.013 0.149 0.030 0.222 0.048 0.045 0.011 0.090 0.021 0.134 0.035 0.057 0.017 0.114 0.038 0.17 0.058 0.236 0.085 0.461 0.198 0.67 0.336 0.010 0.006 0.020 0.012 0.030 0.019 0.078 0.053 0.154 0.11 0.227 0.17l0.018 0.015c0.295 0.247 0.543 0.546 0.731 0.882 0.011 0.020 0.023 0.039 0.034 0.059 0.031 0.059 0.059 0.12 0.086 0.181 0.021 0.048 0.043 0.095 0.062 0.144 0.020 0.050 0.038 0.102 0.056 0.153 0.022 0.064 0.041 0.13 0.059 0.196 0.011 0.043 0.023 0.086 0.033 0.13 0.018 0.082 0.032 0.165 0.044 0.249 0.005 0.033 0.011 0.064 0.015 0.097 0.014 0.12 0.021 0.24 0.021 0.36-0.020 1.726-1.423 3.116-3.149 3.121zM15.953 26.052l-0.002-0-0.002 0c-1.726-0.005-3.128-1.394-3.149-3.119v-0.032c0.001-0.148 0.013-0.296 0.035-0.443 0.005-0.037 0.010-0.074 0.017-0.11 0.023-0.132 0.054-0.262 0.093-0.39 0.018-0.057 0.040-0.111 0.061-0.167 0.022-0.059 0.046-0.118 0.071-0.175 0.413-0.922 1.242-1.591 2.231-1.8 0.241-0.048 0.487-0.069 0.733-0.062v0l0.014 0.001c0.117 0.004 0.233 0.014 0.349 0.031l0.038 0.006c0.106 0.017 0.212 0.039 0.316 0.067 0.016 0.004 0.033 0.008 0.049 0.013 0.106 0.030 0.21 0.065 0.312 0.106 0.010 0.004 0.021 0.007 0.031 0.012 0.109 0.045 0.215 0.096 0.318 0.153 0.029 0.016 0.057 0.035 0.086 0.052 0.068 0.040 0.134 0.082 0.199 0.127 0.046 0.032 0.090 0.066 0.133 0.1 0.042 0.033 0.084 0.067 0.124 0.102 0.048 0.042 0.095 0.084 0.141 0.129 0.031 0.031 0.061 0.063 0.090 0.095 0.047 0.050 0.095 0.1 0.138 0.153 0.017 0.021 0.032 0.044 0.049 0.065 0.079 0.102 0.152 0.209 0.218 0.32 0.030 0.050 0.061 0.1 0.088 0.152 0.023 0.044 0.044 0.090 0.065 0.136 0.029 0.062 0.056 0.124 0.081 0.187 0.016 0.042 0.031 0.084 0.046 0.127 0.025 0.072 0.047 0.145 0.066 0.22 0.010 0.038 0.020 0.075 0.029 0.114 0.019 0.085 0.034 0.172 0.046 0.26 0.004 0.030 0.010 0.060 0.014 0.090 0.014 0.12 0.021 0.241 0.021 0.361-0.020 1.726-1.423 3.117-3.15 3.122zM19.732 21.036c-0.006-0.012-0.014-0.024-0.020-0.036-0.063-0.123-0.131-0.243-0.205-0.359-0.012-0.019-0.022-0.038-0.035-0.057-0.087-0.133-0.182-0.26-0.283-0.383-0.019-0.023-0.041-0.044-0.061-0.067-0.081-0.093-0.165-0.183-0.254-0.268-0.041-0.039-0.084-0.077-0.126-0.115-0.076-0.068-0.155-0.133-0.236-0.195l-0.011-0.009 0.060-0.104c0.147-0.255 0.059-0.581-0.196-0.728s-0.58-0.059-0.728 0.195l-0.057 0.099-0.017-0.006c-0.024-0.010-0.048-0.017-0.071-0.026-0.122-0.048-0.246-0.091-0.374-0.128-0.039-0.011-0.078-0.020-0.117-0.030-0.116-0.030-0.233-0.055-0.353-0.075-0.039-0.007-0.078-0.013-0.118-0.018-0.016-0.002-0.032-0.005-0.047-0.007v-0.118c0-0.295-0.239-0.533-0.533-0.533s-0.533 0.239-0.533 0.533v0.118c-0.106 0.014-0.213 0.027-0.317 0.049-0.181 0.035-0.359 0.081-0.534 0.137-0.086 0.028-0.165 0.068-0.248 0.101l-0.055-0.095c-0.147-0.255-0.474-0.342-0.729-0.195s-0.342 0.473-0.195 0.728l0.048 0.083c-0.306 0.231-0.577 0.505-0.806 0.812l-0.088-0.051c-0.254-0.148-0.581-0.062-0.729 0.192s-0.062 0.581 0.193 0.729c0.001 0.001 0.003 0.002 0.004 0.002l0.094 0.054c-0.029 0.071-0.049 0.147-0.074 0.22-0.026 0.074-0.053 0.148-0.075 0.224-0.018 0.062-0.033 0.124-0.048 0.187-0.038 0.152-0.067 0.306-0.087 0.461-0.002 0.014-0.006 0.027-0.008 0.040h-2.744c-0.005-0.041-0.015-0.081-0.021-0.122-0.014-0.094-0.028-0.188-0.049-0.28-0.009-0.039-0.020-0.078-0.030-0.117-0.025-0.1-0.051-0.199-0.083-0.296-0.012-0.037-0.027-0.074-0.041-0.111-0.025-0.068-0.047-0.137-0.075-0.204l0.1-0.057c0.256-0.146 0.345-0.472 0.199-0.727s-0.472-0.345-0.728-0.199c-0.001 0.001-0.003 0.002-0.004 0.002l-0.103 0.059c-0.015-0.020-0.031-0.038-0.046-0.057-0.030-0.038-0.060-0.076-0.091-0.113-0.063-0.075-0.129-0.146-0.197-0.217-0.024-0.025-0.048-0.049-0.073-0.074-0.076-0.074-0.155-0.146-0.236-0.215-0.022-0.018-0.043-0.036-0.065-0.053-0.030-0.025-0.060-0.050-0.091-0.074l0.058-0.101c0.147-0.255 0.060-0.581-0.195-0.729s-0.581-0.060-0.729 0.195c-0 0-0 0-0 0l-0.056 0.098c-0.067-0.028-0.137-0.049-0.206-0.073-0.071-0.025-0.14-0.052-0.213-0.074-0.069-0.021-0.139-0.037-0.208-0.054-0.083-0.020-0.167-0.039-0.252-0.055-0.065-0.012-0.13-0.021-0.195-0.030l-0.024-0.004v-0.118c0-0.295-0.239-0.533-0.533-0.533s-0.533 0.239-0.533 0.533v0.118c-0.039 0.005-0.078 0.012-0.117 0.018-0.239 0.033-0.475 0.085-0.705 0.156-0.096 0.030-0.189 0.068-0.281 0.106l-0.051-0.088c-0.147-0.255-0.473-0.343-0.728-0.196s-0.343 0.473-0.196 0.729c0 0 0 0 0 0l0.049 0.085c-0.472 0.364-0.861 0.825-1.141 1.352l-0.010 0.017c-0.017 0.032-0.037 0.063-0.053 0.095v-3.395c0-0.294 0.239-0.533 0.533-0.533h8.533c0.294-0.001 0.532-0.239 0.533-0.533v-3.356c0.022-0.027 0.040-0.057 0.061-0.085 0.018-0.025 0.037-0.050 0.054-0.076 0.069-0.1 0.129-0.205 0.181-0.315l2.323-5.235h1.902l0.738 1.067h-1.525c-0.294-0-0.533 0.239-0.533 0.533 0 0 0 0 0 0v3.2c-1.473 0-2.667 1.194-2.667 2.666s1.194 2.666 2.666 2.666c0.112-0 0.223-0.008 0.334-0.022 0.036-0.005 0.072-0.013 0.108-0.019 0.073-0.012 0.146-0.026 0.218-0.044 0.041-0.011 0.081-0.024 0.122-0.037 0.065-0.020 0.129-0.041 0.192-0.066 0.041-0.016 0.082-0.035 0.122-0.053 0.060-0.027 0.118-0.056 0.176-0.087 0.040-0.022 0.079-0.044 0.117-0.067 0.056-0.034 0.11-0.071 0.163-0.109 0.036-0.026 0.072-0.051 0.107-0.079 0.053-0.042 0.103-0.087 0.153-0.134 0.031-0.029 0.063-0.056 0.092-0.086 0.053-0.054 0.102-0.112 0.151-0.171 0.022-0.026 0.045-0.051 0.066-0.078 0.004-0.005 0.008-0.009 0.011-0.014h3.735l0 4.503zM22.932 20.8v-4.8c0-0.294-0.239-0.533-0.533-0.533-0 0-0 0-0 0h-5.921c0.004-0.020 0.003-0.040 0.006-0.060 0.065-0.313 0.065-0.635 0-0.947-0.004-0.020-0.002-0.040-0.006-0.059h6.988c0.294 0 0.533 0.239 0.533 0.533v5.866c-0 0.294-0.239 0.533-0.533 0.533-0.144 0-0.281-0.059-0.38-0.164-0.099-0.097-0.155-0.231-0.154-0.37zM30.901 20.963l-1.506 3.738c-0.112 0.232-0.35 0.376-0.608 0.366h-4.245c-0.259 0.010-0.499-0.136-0.609-0.37l-0.955-2.371c0.037 0.012 0.076 0.018 0.113 0.027 0.028 0.007 0.056 0.015 0.085 0.020 0.862 0.165 1.695-0.4 1.86-1.262 0.020-0.102 0.029-0.206 0.028-0.309v-0.533h5.221c0.222-0.007 0.434 0.097 0.564 0.277 0.088 0.122 0.107 0.28 0.050 0.419z"></path>
<path d="M14.358 14.731c-0.027-0.065-0.065-0.124-0.112-0.176-0.214-0.197-0.543-0.197-0.757 0-0.049 0.052-0.089 0.111-0.117 0.176-0.050 0.13-0.050 0.275 0 0.405 0.029 0.065 0.069 0.124 0.117 0.176 0.21 0.206 0.547 0.206 0.757 0 0.047-0.052 0.085-0.111 0.112-0.176 0.057-0.129 0.057-0.276 0-0.405z"></path>
</symbol>
<symbol id="icon-demolicion-1" viewBox="0 0 32 32">
<title>demolicion-1</title>
<path d="M11.29 11.359c-0.13-0.455-0.551-0.774-1.026-0.774h-3.864c-0.588 0-1.067 0.478-1.067 1.067v2.667c0 0.588 0.478 1.067 1.067 1.067h4.626c0.338 0 0.648-0.155 0.852-0.425s0.267-0.611 0.174-0.935l-0.762-2.667z"></path>
<path d="M8 27.119c0 0.295-0.239 0.533-0.533 0.533s-0.533-0.239-0.533-0.533c0-0.295 0.239-0.533 0.533-0.533s0.533 0.239 0.533 0.533z"></path>
<path d="M10.667 27.119c0 0.295-0.239 0.533-0.533 0.533s-0.533-0.239-0.533-0.533c0-0.295 0.239-0.533 0.533-0.533s0.533 0.239 0.533 0.533z"></path>
<path d="M13.333 27.119c0 0.295-0.239 0.533-0.533 0.533s-0.533-0.239-0.533-0.533c0-0.295 0.239-0.533 0.533-0.533s0.533 0.239 0.533 0.533z"></path>
<path d="M16 27.119c0 0.295-0.239 0.533-0.533 0.533s-0.533-0.239-0.533-0.533c0-0.295 0.239-0.533 0.533-0.533s0.533 0.239 0.533 0.533z"></path>
<path d="M18.667 27.119c0 0.295-0.239 0.533-0.533 0.533s-0.533-0.239-0.533-0.533c0-0.295 0.239-0.533 0.533-0.533s0.533 0.239 0.533 0.533z"></path>
<path d="M25.6 15.385c0 0.698 0.221 1.362 0.639 1.919 0.177 0.236 0.51 0.284 0.747 0.107 0.235-0.177 0.283-0.511 0.106-0.747-0.278-0.371-0.426-0.813-0.426-1.279 0-1.177 0.957-2.133 2.133-2.133s2.133 0.957 2.133 2.133c0 0.466-0.147 0.909-0.426 1.28-0.177 0.236-0.13 0.57 0.106 0.747 0.096 0.072 0.208 0.107 0.319 0.107 0.163 0 0.322-0.074 0.427-0.213 0.419-0.558 0.64-1.222 0.64-1.921 0-1.582-1.155-2.897-2.667-3.152v-6.981c0-0.030-0.012-0.057-0.017-0.086 0.096-0.282 0.138-0.583 0.115-0.885-0.045-0.617-0.349-1.192-0.831-1.578-0.911-0.73-2.244-0.63-3.035 0.228l-10.365 10.888-1.066-4.765c-0.22-0.982-1.076-1.668-2.083-1.668h-1.385v-1.067c0-1.177-0.957-2.133-2.133-2.133s-2.133 0.957-2.133 2.133v1.067h-1.599c-1.177 0-2.134 0.957-2.134 2.134v10.132h9.6c0.295 0 0.533 0.238 0.533 0.533s-0.238 0.533-0.533 0.533h-9.6v1.067h13.333c0.295 0 0.533 0.238 0.533 0.533s-0.238 0.533-0.533 0.533h-13.333v1.6c-1.47 0-2.667 1.196-2.667 2.667s1.197 2.667 2.667 2.667h20.267c1.47 0 2.667-1.196 2.667-2.667s-1.196-2.667-2.667-2.667h-0.731l1.788-5.076c0.186-0.401 0.159-0.86-0.074-1.237-0.24-0.388-0.655-0.62-1.111-0.62h-5.041l10.502-10.955v5.669c-1.511 0.255-2.667 1.57-2.667 3.152zM7.467 6.319c0-0.588 0.478-1.067 1.067-1.067s1.067 0.478 1.067 1.067v1.067h-2.133v-1.067zM3.733 17.519v-7.999c0-0.589 0.479-1.068 1.068-1.068h7.25c0.503 0 0.932 0.343 1.042 0.834l1.842 8.232h-11.201zM2.667 28.719c-0.882 0-1.6-0.718-1.6-1.6s0.718-1.6 1.6-1.6c0.883 0 1.6 0.718 1.6 1.6s-0.717 1.6-1.6 1.6zM22.933 25.519c0.883 0 1.6 0.718 1.6 1.6s-0.717 1.6-1.6 1.6c-0.882 0-1.6-0.718-1.6-1.6s0.718-1.6 1.6-1.6zM20.814 25.519c-0.339 0.447-0.547 0.997-0.547 1.6s0.209 1.153 0.547 1.6h-16.027c0.338-0.447 0.547-0.997 0.547-1.6s-0.209-1.153-0.547-1.6h16.027zM28.067 5.232l-11.78 12.287h-0.259l-0.11-0.49-0.438-1.958 10.86-11.408c0.002-0.002 0.004-0.004 0.006-0.006 0.413-0.45 1.11-0.504 1.587-0.122 0.255 0.204 0.41 0.497 0.434 0.824s-0.085 0.639-0.301 0.873z"></path>
<path d="M31.984 21.123l-0.533-2.133c-0.038-0.151-0.14-0.278-0.279-0.348l-2.133-1.067c-0.205-0.103-0.454-0.063-0.615 0.1l-2.133 2.133c-0.133 0.132-0.186 0.325-0.14 0.506l0.533 2.133c0.050 0.2 0.211 0.354 0.412 0.394l2.667 0.533c0.035 0.006 0.070 0.010 0.105 0.010 0.14 0 0.276-0.055 0.377-0.156l1.6-1.6c0.132-0.132 0.186-0.324 0.14-0.506z"></path>
</symbol>
<symbol id="icon-excavadora-3" viewBox="0 0 32 32">
<title>excavadora-3</title>
<path d="M17.947 16.294l-9.355-2.879c-0.164-0.050-0.341-0.020-0.479 0.082s-0.219 0.263-0.219 0.434v2.879c0 0.142 0.057 0.281 0.158 0.382s0.24 0.158 0.382 0.158h9.355c0.267 0 0.494-0.195 0.534-0.459s-0.12-0.517-0.375-0.596zM8.973 16.27v-1.608l5.226 1.608h-5.226z"></path>
<path d="M31.65 22.705c-0.203-0.265-0.468-0.491-0.792-0.637l-4.832-2.147c-0.166-0.074-0.342-0.116-0.521-0.117-0.040-0.5-0.137-1.068-0.262-1.492l-0.562-1.875c-0.108-0.352-0.315-0.654-0.566-0.912-0.254-0.256-0.552-0.469-0.901-0.583l-1.967-0.631-2.336-8.294c-0.018-0.063-0.045-0.122-0.069-0.181h1.466c0.298 0 0.54-0.242 0.54-0.54s-0.242-0.54-0.54-0.54h-9.535c-0.394 0.001-0.749 0.153-1.028 0.384-0.279 0.232-0.493 0.554-0.567 0.94l-0.771 4.112-2.549-0.818c-0.552-0.173-1.342-0.297-1.921-0.3h-2.159c-0.794 0.005-1.437 0.632-1.462 1.425l-0.313 12.224h-0l-0.001 0.047c-0 0.388 0.158 0.746 0.413 1.001 0.254 0.256 0.613 0.415 1.003 0.415h1.807c0.539 1.77 2.183 3.058 4.13 3.058 1.948 0 3.593-1.291 4.131-3.063l2.532-0.002c0.537 1.773 2.183 3.065 4.131 3.065 1.951 0 3.598-1.295 4.133-3.071l1.805-0.001c0.125-0 0.244-0.022 0.36-0.052v1.145c-0.001 0.353 0.133 0.689 0.369 0.928 0.234 0.24 0.567 0.377 0.914 0.376 0.077 0 0.155-0.006 0.232-0.019l4.702-0.784c0.302-0.051 0.574-0.142 0.806-0.274 0.117-0.068 0.225-0.144 0.325-0.255 0.050-0.056 0.098-0.122 0.138-0.206s0.069-0.188 0.069-0.304c0-0.198 0-0.684 0-1.079-0.003-0.367-0.152-0.674-0.35-0.941zM15.989 5.835h1.259c0.104-0.002 0.255 0.049 0.381 0.145 0.126 0.094 0.216 0.226 0.242 0.327l2.129 7.604-5.771-1.851-1.186-6.224h2.946zM10.237 6.279c0.018-0.1 0.088-0.22 0.196-0.308 0.107-0.090 0.238-0.137 0.339-0.135h1.173l1.117 5.85-3.621-1.162 0.796-4.245zM7.354 26.165c-1.786 0-3.238-1.453-3.238-3.238s1.453-3.238 3.238-3.238 3.238 1.453 3.238 3.238-1.453 3.238-3.238 3.238zM18.148 26.165c-1.786 0-3.238-1.453-3.238-3.238s1.453-3.238 3.238-3.238 3.238 1.453 3.238 3.238-1.453 3.238-3.238 3.238zM24.445 20.944c0 0.001 0 0.002 0 0.003v1.13c0-0 0 0.655 0 0.655 0 0.099-0.039 0.186-0.106 0.254s-0.155 0.106-0.254 0.107l-1.627 0.001c0.002-0.056 0.008-0.111 0.008-0.168 0-2.384-1.933-4.318-4.318-4.318s-4.318 1.934-4.318 4.318c0 0.059 0.007 0.116 0.009 0.173l-2.177 0.001c0.002-0.059 0.009-0.116 0.009-0.175 0-2.384-1.933-4.318-4.318-4.318s-4.318 1.934-4.318 4.318c0 0.061 0.007 0.12 0.009 0.18h-1.628c-0.191-0.001-0.336-0.149-0.338-0.336l0-0.010 0.313-12.233c0.001-0.195 0.187-0.378 0.383-0.373h2.159c0.411-0.004 1.201 0.12 1.591 0.249l17.357 5.568c0.122 0.036 0.31 0.155 0.46 0.311 0.153 0.153 0.268 0.344 0.303 0.466l0.562 1.875c0.123 0.397 0.239 1.19 0.236 1.606l-0 0.716zM30.922 24.561c-0.032 0.018-0.071 0.037-0.119 0.055-0.089 0.035-0.2 0.066-0.318 0.085l-4.757 0.788c-0.074-0.001-0.113-0.023-0.145-0.054-0.030-0.032-0.058-0.078-0.059-0.17v-4.318c-0-0.027 0.003-0.046 0.005-0.061 0.015 0.004 0.034 0.009 0.058 0.020l4.832 2.147c0.128 0.055 0.274 0.174 0.37 0.302 0.099 0.127 0.136 0.261 0.132 0.29-0 0.311-0 0.675-0 0.914z"></path>
<path d="M18.148 21.128c-0.993 0-1.799 0.806-1.799 1.799s0.806 1.799 1.799 1.799 1.799-0.806 1.799-1.799c0-0.993-0.806-1.799-1.799-1.799zM18.148 23.646c-0.397 0-0.72-0.323-0.72-0.72s0.322-0.72 0.72-0.72c0.397 0 0.72 0.323 0.72 0.72s-0.323 0.72-0.72 0.72z"></path>
<path d="M7.354 21.128c-0.993 0-1.799 0.806-1.799 1.799s0.806 1.799 1.799 1.799 1.799-0.806 1.799-1.799c0-0.993-0.806-1.799-1.799-1.799zM7.354 23.646c-0.397 0-0.72-0.323-0.72-0.72s0.322-0.72 0.72-0.72 0.72 0.323 0.72 0.72c0 0.397-0.323 0.72-0.72 0.72z"></path>
</symbol>
<symbol id="icon-cabrestante-1" viewBox="0 0 32 32">
<title>cabrestante-1</title>
<path d="M29.895 30.614h-3.504v-2.348c0-0.383-0.31-0.693-0.693-0.693h-2.109v-2.435c0-0.383-0.31-0.693-0.693-0.693h-1.9v-12.32h5.573c0.383 0 0.693-0.31 0.693-0.693v-4.92c0-0.383-0.31-0.693-0.693-0.693h-2.408l-4.52-4.035v-1.090c0-0.383-0.31-0.693-0.693-0.693h-3.020c-0.383 0-0.693 0.31-0.693 0.693v1.090l-4.519 4.035h-5.281c-0.383 0-0.693 0.31-0.693 0.693v4.918c0 0.001-0 0.001-0 0.001v8.101c0 0.383 0.31 0.693 0.693 0.693h0.892v0.767c-0.794 0.255-1.371 1.001-1.371 1.879 0 1.088 0.885 1.973 1.973 1.973 0.629 0 1.225-0.304 1.595-0.812 0.225-0.309 0.157-0.743-0.152-0.968s-0.743-0.157-0.968 0.152c-0.112 0.154-0.285 0.242-0.475 0.242-0.323 0-0.586-0.263-0.586-0.586s0.263-0.586 0.586-0.586h0.091c0.383 0 0.693-0.31 0.693-0.693v-1.367h0.9c0.383 0 0.693-0.31 0.693-0.693v-7.407h4.573v12.32h-1.9c-0.383 0-0.693 0.31-0.693 0.693v2.435h-2.109c-0.383 0-0.693 0.31-0.693 0.693v2.348h-4.090c-0.383 0-0.693 0.31-0.693 0.693s0.31 0.693 0.693 0.693h25.503c0.383 0 0.693-0.31 0.693-0.693s-0.31-0.693-0.693-0.693zM19.639 3.642l2.438 2.177h-2.438v-2.177zM17.436 1.675l0.817 0.729v3.414h-1.634v-3.414h-0l0.817-0.729zM15.233 3.642v2.177h-2.438l2.438-2.177zM7.918 18.839h-0.453c-0.121-0.102-0.277-0.164-0.447-0.164s-0.326 0.062-0.447 0.164h-0.445v-6.714h1.793v6.714zM8.611 10.738h-2.486v-1.073h15.185c0.383 0 0.693-0.31 0.693-0.693s-0.31-0.693-0.693-0.693h-15.185v-1.073h19.748v3.533h-17.263zM19.608 22.905v1.539h-3.263l3.263-1.539zM15.264 23.421v-4.011l3.551 2.336-3.551 1.675zM15.979 18.221l3.63-2.027v4.415l-3.63-2.388zM15.264 17.032v-4.32l3.613 2.302-3.613 2.018zM16.922 12.124h2.687v1.712l-2.687-1.712zM12.671 25.831h9.531v1.742h-9.531v-1.742zM25.004 30.614h-15.136v-1.655h15.136v1.655z"></path>
<path d="M2.595 30.817c-0.032-0.032-0.067-0.061-0.105-0.086s-0.078-0.046-0.12-0.064c-0.042-0.017-0.085-0.030-0.13-0.040-0.089-0.018-0.182-0.018-0.271 0-0.044 0.009-0.088 0.022-0.13 0.040s-0.082 0.039-0.119 0.064c-0.038 0.025-0.074 0.054-0.105 0.086-0.13 0.129-0.203 0.308-0.203 0.49s0.073 0.361 0.203 0.49c0.032 0.032 0.067 0.061 0.105 0.087s0.078 0.046 0.119 0.064c0.042 0.017 0.085 0.030 0.13 0.040s0.090 0.013 0.136 0.013c0.045 0 0.091-0.004 0.135-0.013s0.088-0.022 0.13-0.040c0.042-0.017 0.082-0.039 0.12-0.064s0.074-0.055 0.105-0.087 0.061-0.067 0.086-0.105c0.025-0.037 0.046-0.078 0.064-0.119s0.030-0.086 0.039-0.13 0.014-0.090 0.014-0.135c0-0.182-0.074-0.361-0.203-0.49z"></path>
<path d="M24.278 8.836c-0.009-0.044-0.022-0.088-0.040-0.13s-0.039-0.082-0.064-0.12c-0.026-0.038-0.054-0.073-0.087-0.105s-0.067-0.061-0.105-0.086c-0.037-0.025-0.078-0.046-0.119-0.064s-0.085-0.030-0.13-0.040c-0.089-0.018-0.182-0.018-0.271 0-0.044 0.009-0.088 0.022-0.13 0.040s-0.082 0.039-0.12 0.064c-0.037 0.025-0.073 0.054-0.105 0.086-0.129 0.129-0.203 0.308-0.203 0.49 0 0.046 0.005 0.091 0.014 0.136s0.022 0.088 0.040 0.13 0.039 0.082 0.064 0.12c0.025 0.037 0.054 0.073 0.086 0.105s0.068 0.060 0.105 0.086c0.038 0.025 0.078 0.046 0.12 0.064s0.085 0.030 0.13 0.040c0.045 0.009 0.090 0.013 0.136 0.013 0.182 0 0.36-0.073 0.489-0.202 0.033-0.033 0.061-0.068 0.087-0.105s0.046-0.078 0.064-0.12c0.017-0.042 0.030-0.085 0.040-0.13s0.013-0.090 0.013-0.136c0-0.045-0.004-0.090-0.013-0.135z"></path>
</symbol>
<symbol id="icon-excavadora-4" viewBox="0 0 32 32">
<title>excavadora-4</title>
<path d="M31.733 19.947c-0.327-0.474-0.869-0.754-1.445-0.747h-5.221v-4.267c-0.003-0.883-0.717-1.597-1.6-1.6h-2.923l-4.059-5.867h0.581c0.883-0.003 1.597-0.717 1.6-1.6-0.006-0.881-0.719-1.594-1.6-1.6h-15.525c-0.467 0.001-0.904 0.235-1.163 0.624-0.185 0.268-0.284 0.586-0.283 0.912-0.001 0.195 0.034 0.388 0.101 0.571l0.299 0.8 2.032 5.408c0.131 0.366 0.364 0.686 0.672 0.923v2.496h-1.6c-0.883 0.001-1.599 0.717-1.6 1.6v5.333c0 0.011 0 0.016 0.005 0.021v0.005c0.001 0.022 0.004 0.043 0.011 0.064 0.038 0.256 0.259 0.445 0.517 0.443h0.117c0.049 0.365 0.145 0.722 0.288 1.061v0.005l-0.096 0.053c-0.255 0.149-0.342 0.476-0.193 0.732 0.148 0.253 0.472 0.341 0.727 0.196l0.101-0.059c0.231 0.3 0.5 0.569 0.8 0.8l-0.059 0.101c-0.148 0.254-0.062 0.58 0.192 0.728 0.082 0.048 0.176 0.073 0.272 0.072 0.19-0 0.365-0.102 0.459-0.267l0.059-0.101c0.35 0.149 0.72 0.248 1.099 0.293v0.117c0 0.295 0.239 0.533 0.533 0.533s0.533-0.239 0.533-0.533v-0.117c0.376-0.047 0.744-0.146 1.093-0.293l0.059 0.101c0.145 0.256 0.47 0.346 0.726 0.201s0.346-0.47 0.201-0.726c-0.002-0.003-0.003-0.005-0.005-0.008l-0.059-0.107c0.301-0.229 0.571-0.499 0.8-0.8l0.107 0.064c0.081 0.046 0.173 0.070 0.267 0.069 0.296-0.002 0.534-0.244 0.531-0.54-0.002-0.188-0.102-0.362-0.264-0.457l-0.107-0.059c0.144-0.339 0.243-0.696 0.293-1.061h2.763c0.049 0.365 0.145 0.722 0.288 1.061v0.005l-0.096 0.053c-0.255 0.149-0.342 0.476-0.193 0.732 0.148 0.253 0.472 0.341 0.727 0.196l0.101-0.059c0.231 0.3 0.5 0.569 0.8 0.8l-0.059 0.101c-0.148 0.256-0.060 0.582 0.196 0.73 0.001 0 0.001 0.001 0.002 0.001 0.255 0.144 0.579 0.056 0.725-0.197l0.059-0.101c0.35 0.151 0.72 0.252 1.099 0.299v0.112c0 0.295 0.239 0.533 0.533 0.533s0.533-0.239 0.533-0.533v-0.117c0.376-0.047 0.744-0.146 1.093-0.293l0.059 0.101c0.146 0.256 0.471 0.345 0.727 0.199s0.345-0.471 0.199-0.727c-0.001-0.002-0.002-0.004-0.003-0.006l-0.059-0.107c0.301-0.229 0.571-0.499 0.8-0.8l0.107 0.064c0.255 0.144 0.579 0.056 0.725-0.197 0.149-0.253 0.064-0.58-0.189-0.729-0.001-0.001-0.002-0.001-0.003-0.002l-0.107-0.059c0.144-0.339 0.243-0.696 0.293-1.061h0.139c0.294-0.001 0.532-0.239 0.533-0.533v-6.4h1.067v3.109c-0.494 0.423-0.666 1.113-0.427 1.717l1.504 3.728c0.269 0.643 0.903 1.057 1.6 1.045h4.245c0.694 0.010 1.324-0.401 1.595-1.040l1.509-3.733c0.187-0.468 0.127-0.998-0.16-1.413zM1.344 6.4h6.656c0.295 0 0.533 0.239 0.533 0.533s-0.239 0.533-0.533 0.533h-6.256l-0.4-1.067zM2.544 9.6l-0.4-1.067h4.789c0.295 0 0.533 0.239 0.533 0.533s-0.239 0.533-0.533 0.533h-4.389zM4.267 14.624l1.376 1.376h-1.376v-1.376zM4.8 26.133c-1.767 0-3.2-1.433-3.2-3.2s1.433-3.2 3.2-3.2c0.091 0 0.176 0.005 0.261 0.011 0.082 0.005 0.164 0.016 0.245 0.032l0.021 0.005c0.328 0.051 0.646 0.158 0.939 0.315 0.043 0.021 0.080 0.043 0.117 0.059 0.009 0.002 0.017 0.008 0.021 0.016 0.080 0.039 0.155 0.087 0.224 0.144 0.074 0.047 0.144 0.1 0.208 0.16 0.032 0.027 0.064 0.048 0.091 0.075 0.045 0.037 0.086 0.078 0.123 0.123 0.031 0.023 0.058 0.049 0.080 0.080 0.007 0.006 0.012 0.013 0.016 0.021h0.005c0.016 0.021 0.037 0.043 0.053 0.064 0.010 0.004 0.017 0.012 0.021 0.021 0.005 0.011 0.016 0.016 0.021 0.027l0.016 0.016c0.032 0.037 0.064 0.080 0.096 0.123 0.031 0.039 0.060 0.080 0.085 0.123l0.011 0.011c0.009 0.013 0.016 0.027 0.021 0.043l0.005 0.005c0.096 0.139 0.176 0.287 0.24 0.443 0.134 0.29 0.221 0.6 0.256 0.917 0.015 0.122 0.022 0.245 0.021 0.368-0.001 1.767-1.433 3.198-3.2 3.2zM7.152 16l-2.133-2.133h1.691l2.133 2.133h-1.691zM9.6 15.248l-1.381-1.381h1.381v1.381zM14.933 9.6h1.605c0.038-0.001 0.075-0.005 0.112-0.011l2.597 3.744h-3.259c-0.011-0.022-0.025-0.041-0.043-0.059-0.056-0.076-0.119-0.147-0.187-0.213-0.015-0.022-0.036-0.040-0.059-0.053-0.030-0.035-0.064-0.065-0.101-0.091-0.005-0.011-0.016-0.021-0.021-0.021-0.011-0.014-0.026-0.025-0.043-0.032-0.023-0.022-0.048-0.042-0.075-0.059-0.066-0.056-0.138-0.106-0.213-0.149h-0.005c-0.031-0.021-0.063-0.041-0.096-0.059-0.045-0.026-0.091-0.049-0.139-0.069-0.023-0.016-0.048-0.028-0.075-0.037v-2.891zM12.267 14.933c-0.002-0.882 0.712-1.598 1.595-1.6 0.572-0.001 1.101 0.304 1.387 0.8 0.442 0.765 0.18 1.744-0.586 2.186-0.242 0.14-0.516 0.214-0.796 0.214-0.883-0.001-1.599-0.717-1.6-1.6zM16 26.133c-0.043 0.001-0.085-0.001-0.128-0.005-0.059 0-0.117-0.005-0.171-0.011-0.081-0.005-0.161-0.016-0.24-0.032-0.069-0.009-0.136-0.023-0.203-0.043-0.203-0.043-0.4-0.111-0.587-0.203-0.060-0.021-0.118-0.050-0.171-0.085-0.063-0.030-0.123-0.064-0.181-0.101-0.057-0.034-0.113-0.071-0.165-0.112-0.045-0.029-0.088-0.061-0.128-0.096-0.662-0.511-1.093-1.266-1.195-2.096-0.015-0.068-0.022-0.138-0.021-0.208-0.009-0.069-0.012-0.139-0.011-0.208 0-0.112 0.005-0.224 0.016-0.336 0-0.021 0.005-0.037 0.005-0.059 0.009-0.090 0.023-0.179 0.043-0.267v-0.005c0.016-0.087 0.039-0.173 0.069-0.256 0.001-0.016 0.005-0.033 0.011-0.048 0.026-0.099 0.060-0.195 0.101-0.288 0.032-0.081 0.069-0.159 0.112-0.235 0.005-0.015 0.012-0.030 0.021-0.043 0.016-0.024 0.030-0.049 0.043-0.075 0.006-0.006 0.009-0.013 0.011-0.021 0.279-0.467 0.671-0.856 1.141-1.131 0.032-0.021 0.066-0.039 0.101-0.053l0.005-0.005c0.064-0.032 0.128-0.064 0.197-0.091 0.047-0.027 0.097-0.048 0.149-0.064 0.078-0.031 0.159-0.058 0.24-0.080 0.081-0.029 0.165-0.051 0.251-0.064 0.174-0.045 0.353-0.068 0.533-0.069 0.050-0.006 0.099-0.010 0.149-0.011 1.767 0 3.2 1.433 3.2 3.2s-1.433 3.2-3.2 3.2zM22.933 20.8v-4.8c-0.001-0.294-0.239-0.532-0.533-0.533h-5.925c-0.001-0.006 0.001-0.012 0.005-0.016 0.016-0.080 0.027-0.165 0.037-0.251 0.021-0.177 0.021-0.356 0-0.533-0.011-0.085-0.021-0.171-0.037-0.251-0.004-0.004-0.006-0.010-0.005-0.016h6.992c0.294 0.001 0.532 0.239 0.533 0.533v5.867c-0.001 0.294-0.239 0.532-0.533 0.533-0.146 0.001-0.285-0.059-0.384-0.165-0.097-0.098-0.151-0.23-0.149-0.368zM30.901 20.965l-1.504 3.733c-0.111 0.233-0.35 0.378-0.608 0.368h-4.245c-0.258 0.012-0.498-0.134-0.608-0.368l-0.96-2.373c0.159 0.049 0.324 0.075 0.491 0.075 0.883-0.003 1.597-0.717 1.6-1.6v-0.533h5.221c0.223-0.006 0.434 0.097 0.565 0.277 0.084 0.124 0.102 0.282 0.048 0.421z"></path>
<path d="M14.373 20.171c-0.47 0.274-0.863 0.663-1.141 1.131-0.001 0.008-0.005 0.015-0.011 0.021-0.012 0.026-0.026 0.051-0.043 0.075-0.009 0.013-0.016 0.027-0.021 0.043-0.043 0.076-0.080 0.154-0.112 0.235-0.042 0.093-0.076 0.189-0.101 0.288-0.006 0.015-0.010 0.032-0.011 0.048 0.249-0.807 0.802-1.486 1.541-1.893-0.035 0.015-0.069 0.032-0.101 0.053z"></path>
<path d="M14.357 14.731c-0.027-0.065-0.065-0.124-0.112-0.176-0.214-0.197-0.543-0.197-0.757 0-0.049 0.052-0.088 0.111-0.117 0.176-0.050 0.13-0.050 0.275 0 0.405 0.029 0.065 0.069 0.124 0.117 0.176 0.21 0.206 0.547 0.206 0.757 0 0.047-0.052 0.085-0.111 0.112-0.176 0.057-0.129 0.057-0.276 0-0.405z"></path>
<path d="M4.832 21.141c-0.972 0-1.76 0.788-1.76 1.76s0.788 1.76 1.76 1.76 1.76-0.788 1.76-1.76c-0.003-0.971-0.789-1.757-1.76-1.76zM4.832 23.595v0c-0.383 0-0.693-0.31-0.693-0.693s0.31-0.693 0.693-0.693 0.693 0.31 0.693 0.693c-0.002 0.382-0.311 0.692-0.693 0.693z"></path>
<path d="M7.264 20.901c-0.006-0.006-0.012-0.012-0.017-0.019 0.038 0.047 0.079 0.093 0.113 0.141-0.032-0.043-0.064-0.085-0.096-0.123z"></path>
<path d="M15.952 21.141c-0.972 0-1.76 0.788-1.76 1.76s0.788 1.76 1.76 1.76c0.972 0 1.76-0.788 1.76-1.76-0.002-0.971-0.789-1.758-1.76-1.76zM15.952 23.595v0c-0.383 0-0.693-0.31-0.693-0.693s0.31-0.693 0.693-0.693 0.693 0.31 0.693 0.693c-0.002 0.382-0.311 0.692-0.693 0.693z"></path>
</symbol>
<symbol id="icon-excavadora-5" viewBox="0 0 32 32">
<title>excavadora-5</title>
<path fill="#ccc" style="fill: var(--color1, #ccc)" d="M31.484 25.068l-5.977-9.668c-0.184-0.297-0.635-0.224-0.715 0.117l-1.172 5.019 2.43 3.931 5.011 1.19c0.34 0.080 0.607-0.291 0.423-0.589z"></path>
<path fill="#b3b3b3" style="fill: var(--color2, #b3b3b3)" d="M31.484 25.068l-5.977-9.668c-0.184-0.297-0.635-0.224-0.715 0.117l-0.377 1.603 4.914 7.949c0.039 0.063 0.057 0.129 0.059 0.194l1.673 0.395c0.34 0.080 0.607-0.291 0.423-0.589z"></path>
<path fill="#686868" style="fill: var(--color3, #686868)" d="M23.431 25.883h-19.715c-1.801 0-3.261-1.46-3.261-3.261v-0.004c0-1.801 1.46-3.261 3.261-3.261h19.715c1.801 0 3.261 1.46 3.261 3.261v0.004c0 1.801-1.46 3.261-3.261 3.261z"></path>
<path fill="#4f4f4f" style="fill: var(--color4, #4f4f4f)" d="M23.433 19.357h-1.849c1.8 0 3.259 1.461 3.259 3.263v0c0 1.802-1.459 3.263-3.259 3.263h1.849c1.8 0 3.259-1.461 3.259-3.263v0c0-1.802-1.459-3.263-3.259-3.263z"></path>
<path fill="#b3b3b3" style="fill: var(--color2, #b3b3b3)" d="M4.962 22.683c0 0.637-0.516 1.153-1.152 1.153s-1.152-0.516-1.152-1.153c0-0.637 0.516-1.153 1.152-1.153s1.152 0.516 1.152 1.153z"></path>
<path fill="#b3b3b3" style="fill: var(--color2, #b3b3b3)" d="M11.446 22.683c0 0.637-0.516 1.153-1.152 1.153s-1.152-0.516-1.152-1.153c0-0.637 0.516-1.153 1.152-1.153s1.152 0.516 1.152 1.153z"></path>
<path fill="#b3b3b3" style="fill: var(--color2, #b3b3b3)" d="M17.93 22.683c0 0.637-0.516 1.153-1.152 1.153s-1.152-0.516-1.152-1.153c0-0.637 0.516-1.153 1.152-1.153s1.152 0.516 1.152 1.153z"></path>
<path fill="#b3b3b3" style="fill: var(--color2, #b3b3b3)" d="M24.414 22.683c0 0.637-0.516 1.153-1.152 1.153s-1.152-0.516-1.152-1.153c0-0.637 0.516-1.153 1.152-1.153s1.152 0.516 1.152 1.153z"></path>
<path fill="#ffcc5a" style="fill: var(--color5, #ffcc5a)" d="M21.632 13.144h-5.012l-2.89-6.092h-8.863v7.868c0 0.221-0.179 0.401-0.401 0.401h-3.048c-0.121 0-0.219 0.098-0.219 0.219v3.6c0 0.121 0.098 0.219 0.219 0.219h21.35v-5.076c0-0.629-0.509-1.138-1.137-1.138z"></path>
<path fill="#ffb000" style="fill: var(--color6, #ffb000)" d="M21.632 13.144h-1.849c0.628 0 1.137 0.51 1.137 1.138v2.859c0 0.21-0.17 0.38-0.38 0.38h-19.122c-0.121 0-0.219-0.098-0.219-0.219v1.837c0 0.121 0.098 0.219 0.219 0.219h21.35v-5.076c0-0.629-0.509-1.138-1.137-1.138z"></path>
<path fill="#aeffff" style="fill: var(--color7, #aeffff)" d="M15.062 14.252l-2.259-4.748c-0.080-0.169-0.25-0.276-0.437-0.276h-5.22c-0.267 0-0.484 0.217-0.484 0.485v2.688c0 0.091 0.025 0.179 0.073 0.256l1.433 2.302c0.088 0.142 0.244 0.228 0.411 0.228h6.046c0.267 0 0.484-0.217 0.484-0.485v-0.242c0-0.072-0.016-0.143-0.047-0.208z"></path>
<path fill="#84f1f7" style="fill: var(--color8, #84f1f7)" d="M15.062 14.252l-2.259-4.748c-0.080-0.169-0.25-0.276-0.437-0.276h-1.932c0.187 0 0.357 0.107 0.437 0.276l2.564 5.463c0.034 0.070 0.069 0.144 0.105 0.221h1.085c0.267 0 0.484-0.217 0.484-0.485v-0.242c0-0.072-0.016-0.143-0.047-0.208z"></path>
<path fill="#b3b3b3" style="fill: var(--color2, #b3b3b3)" d="M2.094 12.232h0.942c0.093 0 0.169 0.076 0.169 0.169v2.913h-1.28v-2.913c0-0.093 0.076-0.169 0.169-0.169z"></path>
<path fill="#ffb000" style="fill: var(--color6, #ffb000)" d="M13.73 7.051h-1.821l2.862 6.092h1.849z"></path>
<path fill="#b3b3b3" style="fill: var(--color2, #b3b3b3)" d="M16.138 6.117h-11.979c-0.15 0-0.272 0.122-0.272 0.272v0.891c0 0.15 0.122 0.272 0.272 0.272h11.979c0.15 0 0.272-0.122 0.272-0.272v-0.891c0-0.15-0.122-0.272-0.272-0.272z"></path>
<path fill="#999" style="fill: var(--color9, #999)" d="M16.138 6.117h-1.563v1.435h1.563c0.15 0 0.272-0.122 0.272-0.272v-0.89c0-0.15-0.122-0.272-0.272-0.272z"></path>
<path fill="#051c1b" style="fill: var(--color10, #051c1b)" d="M17.126 14.058c-0.226-0.11-0.499-0.016-0.609 0.21l-0.715 1.469c-0.11 0.226-0.016 0.499 0.21 0.609 0.064 0.031 0.132 0.046 0.199 0.046 0.169 0 0.331-0.094 0.41-0.256l0.715-1.469c0.11-0.226 0.016-0.499-0.21-0.609z"></path>
<path fill="#051c1b" style="fill: var(--color10, #051c1b)" d="M17.501 16.346c0.064 0.031 0.132 0.046 0.199 0.046 0.169 0 0.331-0.094 0.41-0.256l0.715-1.469c0.11-0.226 0.016-0.499-0.21-0.609s-0.499-0.016-0.609 0.21l-0.715 1.469c-0.11 0.226-0.016 0.499 0.21 0.609z"></path>
<path fill="#051c1b" style="fill: var(--color10, #051c1b)" d="M5.131 16.395c0 0.252 0.204 0.455 0.455 0.455h1.528c0.252 0 0.455-0.204 0.455-0.455s-0.204-0.455-0.455-0.455h-1.528c-0.252-0-0.455 0.204-0.455 0.455z"></path>
<path fill="#051c1b" style="fill: var(--color10, #051c1b)" d="M31.871 24.829l-5.977-9.668c-0.156-0.252-0.424-0.402-0.719-0.402-0.396 0-0.736 0.269-0.827 0.655l-0.815 3.492c-0.034-0.001-0.068-0.003-0.102-0.003h-0.207v-4.62c0-0.879-0.714-1.594-1.592-1.594h-4.724l-2.22-4.681h1.451c0.401 0 0.727-0.326 0.727-0.727v-0.891c0-0.401-0.326-0.727-0.727-0.727h-2.35c-0.252 0-0.455 0.204-0.455 0.455s0.204 0.455 0.455 0.455h2.166v0.524h-11.612v-0.524h7.594c0.252 0 0.455-0.204 0.455-0.455s-0.204-0.455-0.455-0.455h-7.777c-0.401 0-0.727 0.326-0.727 0.727v0.891c0 0.401 0.326 0.727 0.727 0.727h0.252v6.857h-0.751v-2.463c0-0.344-0.28-0.625-0.625-0.625h-0.015v-1.047c0-0.492-0.401-0.893-0.893-0.893h-0.518c-0.252 0-0.455 0.204-0.455 0.455s0.204 0.455 0.455 0.455h0.501v1.029h-0.015c-0.344 0-0.625 0.28-0.625 0.625v2.463h-0.052c-0.372 0-0.674 0.302-0.674 0.674v0.856c0 0.252 0.204 0.455 0.455 0.455s0.455-0.204 0.455-0.455v-0.619h2.812c0.472 0 0.856-0.384 0.856-0.856v-6.912h8.357l2.529 5.331c0.075 0.159 0.236 0.26 0.411 0.26h5.012c0.376 0 0.681 0.306 0.681 0.683v4.62h-20.658v-0.655c0-0.252-0.204-0.455-0.455-0.455s-0.455 0.204-0.455 0.455v0.892c0 0.33 0.239 0.605 0.553 0.663-0.793 0.683-1.297 1.693-1.297 2.821 0 2.049 1.667 3.716 3.716 3.716h19.715c1.149 0 2.177-0.524 2.86-1.346l4.665 1.108c0.065 0.015 0.132 0.023 0.198 0.023v0c0.305 0 0.587-0.167 0.737-0.437 0.151-0.272 0.144-0.592-0.020-0.858zM2.75 12.688v2.172h-0.369v-2.172h0.369zM23.431 25.427h-19.715c-1.547 0-2.805-1.259-2.805-2.809 0-1.547 1.258-2.805 2.805-2.805h19.715c1.547 0 2.805 1.259 2.805 2.809 0 1.547-1.259 2.805-2.805 2.805zM26.804 24.178v0c0.22-0.475 0.343-1.003 0.343-1.559 0-1.701-1.149-3.137-2.711-3.577l0.764-3.272 5.816 9.408-4.212-1.001zM26.431 24.812c0.007-0.009 0.013-0.019 0.020-0.029-0.007 0.009-0.013 0.019-0.020 0.029zM26.564 24.616c0.005-0.008 0.010-0.015 0.014-0.022-0.005 0.008-0.010 0.015-0.014 0.022z"></path>
<path fill="#051c1b" style="fill: var(--color10, #051c1b)" d="M3.81 21.075c-0.886 0-1.607 0.721-1.607 1.608s0.721 1.608 1.607 1.608 1.607-0.721 1.607-1.608-0.721-1.608-1.607-1.608zM3.81 23.381c-0.384 0-0.696-0.313-0.696-0.698s0.312-0.698 0.696-0.698 0.696 0.313 0.696 0.698-0.312 0.698-0.696 0.698z"></path>
<path fill="#051c1b" style="fill: var(--color10, #051c1b)" d="M10.294 21.075c-0.886 0-1.607 0.721-1.607 1.608s0.721 1.608 1.607 1.608 1.607-0.721 1.607-1.608-0.721-1.608-1.607-1.608zM10.294 23.381c-0.384 0-0.696-0.313-0.696-0.698s0.312-0.698 0.696-0.698 0.696 0.313 0.696 0.698-0.312 0.698-0.696 0.698z"></path>
<path fill="#051c1b" style="fill: var(--color10, #051c1b)" d="M16.778 21.075c-0.886 0-1.607 0.721-1.607 1.608s0.721 1.608 1.607 1.608c0.886 0 1.607-0.721 1.607-1.608s-0.721-1.608-1.607-1.608zM16.778 23.381c-0.384 0-0.696-0.313-0.696-0.698s0.312-0.698 0.696-0.698 0.696 0.313 0.696 0.698-0.312 0.698-0.696 0.698z"></path>
<path fill="#051c1b" style="fill: var(--color10, #051c1b)" d="M23.262 21.075c-0.886 0-1.607 0.721-1.607 1.608s0.721 1.608 1.607 1.608 1.607-0.721 1.607-1.608-0.721-1.608-1.607-1.608zM23.262 23.381c-0.384 0-0.696-0.313-0.696-0.698s0.312-0.698 0.696-0.698 0.696 0.313 0.696 0.698-0.312 0.698-0.696 0.698z"></path>
<path fill="#051c1b" style="fill: var(--color10, #051c1b)" d="M8.579 15.642h6.046c0.518 0 0.939-0.422 0.939-0.94v-0.242c0-0.139-0.031-0.278-0.091-0.404l-2.259-4.748c-0.155-0.326-0.488-0.536-0.848-0.536h-5.22c-0.518 0-0.939 0.422-0.939 0.94v2.688c0 0.176 0.049 0.348 0.142 0.497l1.433 2.302c0.173 0.277 0.471 0.443 0.797 0.443zM7.118 12.4v-2.688c0-0.016 0.013-0.029 0.029-0.029h5.22c0.011 0 0.021 0.006 0.026 0.017l2.259 4.748c0.002 0.004 0.003 0.008 0.003 0.013v0.242c0 0.016-0.013 0.029-0.029 0.029h-6.046c-0.010 0-0.019-0.005-0.024-0.014l-1.433-2.303c-0.003-0.005-0.004-0.010-0.004-0.015z"></path>
</symbol>
<symbol id="icon-maquinaria" viewBox="0 0 32 32">
<title>maquinaria</title>
<path d="M9.806 24.258c-1.423 0-2.581 1.158-2.581 2.581s1.158 2.581 2.581 2.581c1.423 0 2.581-1.158 2.581-2.581s-1.158-2.581-2.581-2.581zM9.806 28.387c-0.854 0-1.548-0.695-1.548-1.548s0.695-1.548 1.548-1.548 1.548 0.695 1.548 1.548-0.695 1.548-1.548 1.548z"></path>
<path d="M24.774 24.258h3.097v1.032h-3.097v-1.032z"></path>
<path d="M31.3 21.677c-1.121-2.363-3.41-3.926-6.009-4.11v-8.793h1.032v3.097c0 0.569 0.463 1.032 1.032 1.032h1.032c0.569 0 1.032-0.463 1.032-1.032v-3.097c0-0.569-0.463-1.032-1.032-1.032h-3.149c-0.078-0.383-0.249-0.731-0.477-1.032h0.529c0.569 0 1.032-0.463 1.032-1.032v-1.032c0-0.569-0.463-1.032-1.032-1.032v-3.613h-3.953l-1.548 3.613h-7.918c-0.569 0-1.032 0.463-1.032 1.032v1.032c0 0.569 0.463 1.032 1.032 1.032h0.095c-0.21 0.279-0.372 0.599-0.456 0.957l-1.415 6.014c-0.127 0.541-0.537 0.974-1.070 1.13l-6.14 1.806c-1.091 0.321-1.852 1.339-1.852 2.476v5.522l-1.032 0.281v4.523h5.343c0.894 1.54 2.557 2.581 4.463 2.581 2.492 0 4.578-1.776 5.057-4.129h3.385c0.377 0.796 0.887 1.5 1.498 2.092 0.010 0.010 0.021 0.020 0.031 0.030 0.366 0.351 0.767 0.661 1.197 0.926 0.024 0.015 0.049 0.030 0.073 0.045 0.415 0.25 0.856 0.458 1.317 0.62 0.043 0.015 0.086 0.030 0.13 0.045 0.228 0.075 0.458 0.143 0.694 0.196 0.005 0.001 0.009 0.002 0.014 0.003 0.224 0.050 0.452 0.085 0.682 0.114 0.058 0.007 0.116 0.014 0.174 0.020 0.237 0.023 0.475 0.039 0.716 0.039 2.809 0 5.331-1.611 6.525-4.129h0.7v-6.194h-0.7zM27.355 8.774h1.032v3.097h-1.032v-3.097zM24.774 18.581c2.239 0 4.265 1.194 5.362 3.097h-1.244c-0.974-1.293-2.488-2.065-4.117-2.065-2.846 0-5.161 2.315-5.161 5.161h-1.032c0-3.415 2.778-6.194 6.194-6.194zM27.501 21.677h-3.974l-2.871 2.872c0.118-2.172 1.917-3.904 4.118-3.904 1.018 0 1.982 0.375 2.727 1.032zM21.677 13.935v4.32c-0.208 0.099-0.41 0.207-0.606 0.325h-7.136v-4.645h7.742zM14.049 12.903l0.826-4.129h6.803v4.129h-7.628zM22.018 1.032h2.241v2.581h-3.347l1.106-2.581zM11.871 5.677v-1.032h13.419l0.001 1.032h-13.42zM11.1 13.917l1.415-6.013c0.165-0.703 0.785-1.194 1.507-1.194h8.687c0.854 0 1.548 0.695 1.548 1.548v9.317c-0.534 0.038-1.052 0.13-1.548 0.278v-10.111h-8.681l-1.115 5.576-0.009 5.262h-1.048l-1.425-3.452c0.323-0.331 0.559-0.746 0.668-1.211zM4.883 28.387h-3.851v-2.702l4.154-1.133c-0.343 0.691-0.541 1.465-0.541 2.287 0 0.539 0.084 1.059 0.238 1.548zM2.065 24.334v-2.136l2.064 0.003 0.002-1.032-2.066-0.003v-1.036l2.064 0.003 0.002-1.032-2.066-0.003v-0.004c0-0.682 0.457-1.293 1.111-1.486l6.14-1.806c0.082-0.024 0.161-0.056 0.239-0.088l2.714 6.59c-0.732-0.399-1.571-0.627-2.462-0.627-1.442 0-2.745 0.596-3.682 1.551l-4.060 1.105zM9.806 30.968c-2.277 0-4.129-1.852-4.129-4.129s1.852-4.129 4.129-4.129 4.129 1.852 4.129 4.129c0 2.277-1.852 4.129-4.129 4.129zM14.534 24.774c-0.131-0.299-0.289-0.584-0.472-0.851l-1.779-4.311h7.445c-1.342 1.313-2.179 3.14-2.179 5.161h-3.015zM24.774 30.968c-0.206 0-0.41-0.014-0.614-0.034-0.050-0.005-0.1-0.011-0.149-0.017-0.198-0.024-0.395-0.055-0.588-0.098-0.003-0.001-0.006-0.001-0.008-0.002-0.202-0.045-0.401-0.103-0.597-0.168-0.036-0.012-0.072-0.025-0.108-0.037-0.395-0.139-0.775-0.317-1.134-0.534-0.019-0.011-0.037-0.023-0.055-0.034-0.37-0.228-0.716-0.495-1.034-0.801-0.006-0.006-0.012-0.012-0.019-0.019-0.161-0.155-0.314-0.32-0.459-0.494l-0.002 0.002c-0.221-0.267-0.419-0.556-0.595-0.862h1.244c0.974 1.293 2.488 2.065 4.117 2.065s3.143-0.771 4.117-2.065h1.245c-1.097 1.902-3.123 3.096-5.362 3.096zM22.047 27.871h5.454c-0.745 0.657-1.709 1.032-2.727 1.032s-1.982-0.375-2.727-1.032zM30.968 26.839h-16c0-0.354-0.036-0.699-0.104-1.032h5.995l3.097-3.097h7.012v4.129z"></path>
<path d="M18.581 14.968h2.065v1.032h-2.065v-1.032z"></path>
</symbol>
<symbol id="icon-grua" viewBox="0 0 32 32">
<title>grua</title>
<path d="M29.815 20.755c-0.032-5.924-4.858-10.734-10.789-10.734h-2.348c-1.935 0-3.508 1.574-3.508 3.508v2.604h-1.114v-13.247c0-0.45-0.283-0.851-0.707-1.001-0.425-0.151-0.897-0.018-1.18 0.332l-6.794 8.375c-1.903 0.271-3.376 1.894-3.376 3.87v2.773c0 0.587 0.476 1.062 1.062 1.062s1.062-0.476 1.062-1.062v-2.773c0-0.994 0.808-1.802 1.802-1.802s1.802 0.808 1.802 1.802v2.773c0 0.587 0.476 1.062 1.062 1.062s1.062-0.476 1.062-1.062v-2.773c0-1.496-0.851-2.784-2.086-3.447l4.165-5.133v11.314c0 0.587 0.476 1.062 1.062 1.062h2.176v1.504l-7.004 0.011c-2.868 0-5.202 2.334-5.202 5.202s2.334 5.202 5.202 5.202h20.633c2.868 0 5.202-2.334 5.202-5.202 0-1.741-0.867-3.276-2.185-4.221zM27.629 19.751l-12.335 0.011v-2.168h7.146c0.294 0 0.531-0.238 0.531-0.531v-3.961c2.501 1.284 4.301 3.745 4.658 6.65zM16.678 12.145h2.348c1.011 0 1.98 0.182 2.883 0.502v3.884h-6.615v-3.002c0-0.763 0.621-1.384 1.384-1.384zM26.798 28.052h-20.633c-1.697 0-3.077-1.381-3.077-3.077s1.381-3.077 3.077-3.077h20.633c1.697 0 3.077 1.381 3.077 3.077s-1.381 3.077-3.077 3.077z"></path>
<path d="M6.777 22.899c-1.145 0-2.074 0.931-2.074 2.077 0 1.145 0.929 2.075 2.074 2.075 1.147 0 2.076-0.929 2.076-2.075 0-1.147-0.929-2.077-2.076-2.077z"></path>
<path d="M13.248 22.899c-1.146 0-2.076 0.931-2.076 2.077 0 1.145 0.931 2.075 2.076 2.075 1.147 0 2.076-0.929 2.076-2.075 0-1.147-0.929-2.077-2.076-2.077z"></path>
<path d="M19.716 22.899c-1.146 0-2.075 0.931-2.075 2.077 0 1.145 0.929 2.075 2.075 2.075s2.077-0.929 2.077-2.075c0-1.147-0.93-2.077-2.077-2.077z"></path>
<path d="M26.186 22.899c-1.146 0-2.075 0.931-2.075 2.077 0 1.145 0.929 2.075 2.075 2.075s2.075-0.929 2.075-2.075c0-1.147-0.929-2.077-2.075-2.077z"></path>
</symbol>
<symbol id="icon-montacargas" viewBox="0 0 32 32">
<title>montacargas</title>
<path d="M18.126 9.561c0.877-0.28 1.621-0.889 2.048-1.745l0.622-1.245c0.109-0.216 0.096-0.472-0.031-0.676s-0.351-0.33-0.591-0.33h-9.739c-0.241 0-0.465 0.125-0.591 0.33s-0.139 0.46-0.031 0.676l0.622 1.245c0.44 0.879 1.21 1.508 2.119 1.775 0.161 2.598 1.416 4.579 2.546 6.333 0.857 1.33 1.596 2.481 1.596 3.553 0 1.151-0.936 2.087-2.087 2.087-0.888 0-3.093-0.896-6.641-2.706-0.214-0.109-0.473-0.099-0.679 0.026-0.207 0.125-0.333 0.351-0.333 0.593 0 4.218 3.432 7.652 7.652 7.652s7.652-3.434 7.652-7.652c0-2.166-1.153-4.036-2.268-5.845-0.868-1.407-1.689-2.745-1.867-4.072z"></path>
<path d="M16 0c-8.822 0-16 7.178-16 16s7.178 16 16 16 16-7.178 16-16-7.178-16-16-16zM16 30.609c-8.056 0-14.609-6.553-14.609-14.609s6.553-14.609 14.609-14.609 14.609 6.553 14.609 14.609-6.553 14.609-14.609 14.609z"></path>
</symbol>
<symbol id="icon-demolicion-2" viewBox="0 0 32 32">
<title>demolicion-2</title>
<path d="M11.29 11.359c-0.13-0.455-0.551-0.774-1.026-0.774h-3.864c-0.588 0-1.067 0.478-1.067 1.067v2.667c0 0.588 0.478 1.067 1.067 1.067h4.626c0.338 0 0.648-0.155 0.852-0.425s0.267-0.611 0.174-0.935l-0.762-2.667z"></path>
<path d="M8 27.119c0 0.295-0.239 0.533-0.533 0.533s-0.533-0.239-0.533-0.533c0-0.295 0.239-0.533 0.533-0.533s0.533 0.239 0.533 0.533z"></path>
<path d="M10.667 27.119c0 0.295-0.239 0.533-0.533 0.533s-0.533-0.239-0.533-0.533c0-0.295 0.239-0.533 0.533-0.533s0.533 0.239 0.533 0.533z"></path>
<path d="M13.334 27.119c0 0.295-0.239 0.533-0.533 0.533s-0.533-0.239-0.533-0.533c0-0.295 0.239-0.533 0.533-0.533s0.533 0.239 0.533 0.533z"></path>
<path d="M16 27.119c0 0.295-0.239 0.533-0.533 0.533s-0.533-0.239-0.533-0.533c0-0.295 0.239-0.533 0.533-0.533s0.533 0.239 0.533 0.533z"></path>
<path d="M18.667 27.119c0 0.295-0.239 0.533-0.533 0.533s-0.533-0.239-0.533-0.533c0-0.295 0.239-0.533 0.533-0.533s0.533 0.239 0.533 0.533z"></path>
<path d="M29.333 12.233v-6.981c0-0.030-0.012-0.057-0.017-0.086 0.096-0.282 0.138-0.583 0.115-0.885-0.045-0.617-0.349-1.192-0.831-1.578-0.911-0.73-2.244-0.63-3.035 0.228l-10.365 10.888-1.066-4.765c-0.22-0.982-1.076-1.668-2.083-1.668h-1.385v-1.067c0-1.177-0.957-2.133-2.133-2.133s-2.133 0.957-2.133 2.133v1.067h-1.599c-1.177 0-2.134 0.957-2.134 2.134v10.132h9.6c0.295 0 0.533 0.238 0.533 0.533s-0.238 0.533-0.533 0.533h-9.6v1.067h12.8c0.295 0 0.533 0.238 0.533 0.533s-0.238 0.533-0.533 0.533h-12.8v1.6c-1.47 0-2.667 1.196-2.667 2.667s1.197 2.667 2.667 2.667h20.267c1.47 0 2.667-1.196 2.667-2.667s-1.196-2.667-2.667-2.667h-0.731l1.788-5.076c0.186-0.401 0.159-0.86-0.074-1.237-0.24-0.388-0.655-0.62-1.111-0.62h-5.041l10.502-10.955v5.669c-1.511 0.255-2.667 1.57-2.667 3.152 0 1.765 1.436 3.2 3.2 3.2s3.2-1.435 3.2-3.2c0-1.582-1.155-2.896-2.667-3.152zM7.467 6.319c0-0.588 0.478-1.067 1.067-1.067s1.067 0.478 1.067 1.067v1.067h-2.133v-1.067zM3.733 17.519v-7.999c0-0.589 0.479-1.068 1.068-1.068h7.25c0.503 0 0.932 0.343 1.042 0.834l1.842 8.233h-11.201zM2.667 28.719c-0.882 0-1.6-0.718-1.6-1.6s0.718-1.6 1.6-1.6c0.883 0 1.6 0.718 1.6 1.6s-0.717 1.6-1.6 1.6zM22.933 25.519c0.883 0 1.6 0.718 1.6 1.6s-0.717 1.6-1.6 1.6c-0.882 0-1.6-0.718-1.6-1.6s0.718-1.6 1.6-1.6zM20.814 25.519c-0.339 0.447-0.547 0.997-0.547 1.6s0.209 1.153 0.547 1.6h-16.027c0.338-0.447 0.547-0.997 0.547-1.6s-0.209-1.153-0.547-1.6h16.027zM28.067 5.232l-11.78 12.287h-0.259l-0.11-0.49-0.438-1.958 10.86-11.408c0.002-0.002 0.004-0.004 0.006-0.006 0.413-0.45 1.11-0.504 1.587-0.122 0.255 0.204 0.41 0.497 0.434 0.824s-0.085 0.639-0.301 0.872z"></path>
</symbol>
<symbol id="icon-maquinaria-pesada" viewBox="0 0 32 32">
<title>maquinaria-pesada</title>
<path d="M31.294 9.864c-0.679-1.099-4.074-6.251-8.068-6.251-3.928 0-7.277 4.984-8.032 6.194h-0.226v-2.065c0-0.569-0.463-1.032-1.032-1.032h-4.645c-0.569 0-1.032 0.463-1.032 1.032v1.032h-4.315c-0.401 0-0.769 0.235-0.937 0.6l-2.911 6.307c-0.063 0.136-0.095 0.282-0.095 0.433v8.145c0 0.854 0.695 1.548 1.548 1.548h3.249c0.445 1.49 1.828 2.581 3.461 2.581s3.015-1.091 3.461-2.581h3.917c0.445 1.49 1.828 2.581 3.461 2.581 1.315 0 2.465-0.709 3.097-1.762 0.632 1.053 1.782 1.762 3.097 1.762 1.633 0 3.015-1.091 3.461-2.581h2.217c0.569 0 1.032-0.463 1.032-1.032v-13.935c0-0.455-0.297-0.837-0.706-0.974zM23.226 4.645c2.941 0 5.697 3.552 6.795 5.161h-13.59c1.098-1.609 3.854-5.161 6.795-5.161zM4.645 24.774h-3.097c-0.285 0-0.516-0.231-0.516-0.516v-0.516h3.765c-0.098 0.327-0.152 0.674-0.152 1.032zM8.258 27.355c-1.423 0-2.581-1.158-2.581-2.581s1.158-2.581 2.581-2.581c1.423 0 2.581 1.158 2.581 2.581s-1.158 2.581-2.581 2.581zM15.484 24.774h-3.613c0-0.359-0.054-0.705-0.152-1.032h3.917c-0.098 0.327-0.152 0.674-0.152 1.032zM19.097 27.355c-1.423 0-2.581-1.158-2.581-2.581s1.158-2.581 2.581-2.581c1.423 0 2.581 1.158 2.581 2.581s-1.158 2.581-2.581 2.581zM25.29 27.355c-1.423 0-2.581-1.158-2.581-2.581s1.158-2.581 2.581-2.581c1.423 0 2.581 1.158 2.581 2.581s-1.158 2.581-2.581 2.581zM30.968 24.774h-2.065c0-0.359-0.054-0.705-0.152-1.032h2.217v1.032zM30.968 22.71h-2.717c-0.654-0.935-1.736-1.548-2.961-1.548-1.315 0-2.465 0.709-3.097 1.762-0.632-1.053-1.782-1.762-3.097-1.762-1.224 0-2.307 0.614-2.961 1.548h-4.918c-0.654-0.935-1.736-1.548-2.961-1.548s-2.307 0.614-2.961 1.548h-4.265v-1.032h1.548v-1.032h-1.548v-4.532l2.911-6.307h6.379v10.323h20.645v2.581zM30.968 19.097h-2.065v-6.194h-1.032v6.194h-2.581v-6.194h-1.032v6.194h-2.581v-6.194h-1.032v6.194h-2.581v-6.194h-1.032v6.194h-2.581v-6.194h-1.032v6.194h-2.065v-9.29c0-0.569-0.463-1.032-1.032-1.032h-1.032v-1.032h4.645v3.097h17.032v8.258z"></path>
<path d="M8.258 10.839h-2.995c-0.401 0-0.768 0.235-0.937 0.6l-2.262 4.901v2.241c0 0.569 0.463 1.032 1.032 1.032h5.161c0.569 0 1.032-0.463 1.032-1.032v-6.71c0-0.569-0.463-1.032-1.032-1.032zM8.258 16h-1.032v1.032h1.032v1.548h-5.161v-1.548h3.097v-1.032h-2.835l1.905-4.129h2.995v4.129z"></path>
<path d="M8.258 23.226c-0.854 0-1.548 0.695-1.548 1.548s0.695 1.548 1.548 1.548 1.548-0.695 1.548-1.548-0.695-1.548-1.548-1.548zM8.258 25.29c-0.285 0-0.516-0.231-0.516-0.516s0.231-0.516 0.516-0.516 0.516 0.231 0.516 0.516c0 0.285-0.231 0.516-0.516 0.516z"></path>
<path d="M25.29 23.226c-0.854 0-1.548 0.695-1.548 1.548s0.695 1.548 1.548 1.548 1.548-0.695 1.548-1.548-0.695-1.548-1.548-1.548zM25.29 25.29c-0.285 0-0.516-0.231-0.516-0.516s0.231-0.516 0.516-0.516c0.285 0 0.516 0.231 0.516 0.516s-0.231 0.516-0.516 0.516z"></path>
<path d="M19.097 23.226c-0.854 0-1.548 0.695-1.548 1.548s0.695 1.548 1.548 1.548 1.548-0.695 1.548-1.548-0.695-1.548-1.548-1.548zM19.097 25.29c-0.285 0-0.516-0.231-0.516-0.516s0.231-0.516 0.516-0.516c0.285 0 0.516 0.231 0.516 0.516s-0.231 0.516-0.516 0.516z"></path>
<path d="M24.774 5.677h1.032v1.032h-1.032v-1.032z"></path>
<path d="M27.355 8.258h1.032v1.032h-1.032v-1.032z"></path>
<path d="M23.742 7.742h1.032v1.032h-1.032v-1.032z"></path>
<path d="M21.677 6.71h1.032v1.032h-1.032v-1.032z"></path>
<path d="M19.097 7.742h1.032v1.032h-1.032v-1.032z"></path>
</symbol>
<symbol id="icon-excavadora-6" viewBox="0 0 32 32">
<title>excavadora-6</title>
<path d="M7.652 4.174c-1.918 0-3.478 1.56-3.478 3.478s1.56 3.478 3.478 3.478c1.918 0 3.478-1.56 3.478-3.478s-1.56-3.478-3.478-3.478zM7.652 9.739c-1.151 0-2.087-0.936-2.087-2.087s0.936-2.087 2.087-2.087 2.087 0.936 2.087 2.087-0.936 2.087-2.087 2.087z"></path>
<path d="M25.739 1.391c-2.095 0-4.040 1.064-5.185 2.783h-6.093c-1.3-2.549-3.923-4.174-6.809-4.174-4.219 0-7.652 3.433-7.652 7.652 0 2.887 1.626 5.511 4.174 6.809v11.974h-2.087c-1.151 0-2.087 0.936-2.087 2.087v2.783c0 0.384 0.312 0.696 0.696 0.696h13.913c0.384 0 0.696-0.312 0.696-0.696v-2.783c0-1.151-0.936-2.087-2.087-2.087h-2.087v-11.979c1.439-0.735 2.598-1.894 3.327-3.325h6.098c0.455 0.678 1.033 1.259 1.706 1.712v4.549c0 1.151 0.936 2.087 2.087 2.087h0.696v6.261c0 0.384 0.312 0.696 0.696 0.696s0.696-0.312 0.696-0.696v-6.261h0.696c1.151 0 2.087-0.936 2.087-2.087v-4.554c1.721-1.149 2.783-3.092 2.783-5.185 0-3.452-2.809-6.261-6.261-6.261zM13.217 27.826c0.383 0 0.696 0.312 0.696 0.696v2.087h-12.522v-2.087c0-0.383 0.312-0.696 0.696-0.696h11.13zM5.565 26.435v-11.42c0.056 0.016 0.114 0.021 0.17 0.035 0.232 0.061 0.467 0.11 0.705 0.148 0.084 0.013 0.167 0.029 0.251 0.039 0.317 0.040 0.637 0.067 0.961 0.067s0.644-0.027 0.961-0.067c0.084-0.010 0.166-0.026 0.25-0.039 0.239-0.038 0.474-0.088 0.708-0.149 0.056-0.015 0.113-0.019 0.168-0.035v11.421h-4.175zM13.386 10.157c-0.629 1.447-1.777 2.594-3.233 3.231-1.18 0.522-2.519 0.653-3.778 0.392-0.42-0.087-0.833-0.218-1.228-0.393-2.281-0.995-3.756-3.247-3.756-5.735 0-3.452 2.809-6.261 6.261-6.261 2.488 0 4.739 1.475 5.736 3.76 0.348 0.787 0.525 1.628 0.525 2.501s-0.177 1.714-0.527 2.505zM15.015 9.74v-0.001c0.016-0.057 0.022-0.116 0.037-0.173 0.058-0.225 0.107-0.454 0.144-0.685 0.015-0.093 0.032-0.184 0.043-0.278 0.039-0.314 0.065-0.63 0.065-0.952s-0.026-0.639-0.065-0.952c-0.012-0.093-0.028-0.184-0.043-0.275-0.038-0.232-0.086-0.461-0.145-0.688-0.015-0.056-0.020-0.115-0.036-0.171h4.822c-0.046 0.129-0.084 0.262-0.122 0.395-0.008 0.027-0.017 0.053-0.024 0.080-0.062 0.232-0.107 0.468-0.142 0.707-0.008 0.056-0.015 0.113-0.022 0.17-0.029 0.243-0.048 0.488-0.048 0.735s0.019 0.492 0.049 0.735c0.007 0.057 0.014 0.114 0.022 0.171 0.035 0.238 0.079 0.473 0.141 0.704 0.008 0.030 0.019 0.058 0.027 0.088 0.037 0.131 0.074 0.262 0.12 0.39h-4.822zM27.13 18.087h-2.783c-0.383 0-0.696-0.312-0.696-0.696v-3.837c0.127 0.045 0.255 0.081 0.385 0.117 0.037 0.010 0.073 0.024 0.11 0.033 0.214 0.056 0.432 0.097 0.651 0.129 0.092 0.014 0.184 0.024 0.277 0.035 0.157 0.017 0.312 0.026 0.47 0.031 0.065 0.002 0.129 0.013 0.195 0.013 0.060 0 0.119-0.010 0.179-0.012 0.168-0.005 0.335-0.015 0.502-0.033 0.089-0.010 0.177-0.020 0.264-0.033 0.221-0.033 0.441-0.074 0.656-0.131 0.039-0.010 0.077-0.024 0.116-0.035 0.124-0.035 0.248-0.070 0.369-0.113v3.836h0.001c0 0.384-0.312 0.696-0.696 0.696zM28.168 11.867c-1.455 0.858-3.366 0.866-4.862 0.005-0.001 0-0.001-0.001-0.001-0.001-0.733-0.424-1.347-1.041-1.781-1.789-0.428-0.727-0.655-1.567-0.655-2.43s0.227-1.703 0.659-2.436c0.86-1.501 2.473-2.433 4.21-2.433 2.685 0 4.87 2.184 4.87 4.87 0 1.737-0.932 3.35-2.44 4.215z"></path>
<path d="M25.739 5.565c-1.151 0-2.087 0.936-2.087 2.087s0.936 2.087 2.087 2.087 2.087-0.936 2.087-2.087-0.936-2.087-2.087-2.087zM25.739 8.348c-0.383 0-0.696-0.312-0.696-0.696s0.312-0.696 0.696-0.696c0.383 0 0.696 0.312 0.696 0.696s-0.312 0.696-0.696 0.696z"></path>
</symbol>
<symbol id="icon-grua-1" viewBox="0 0 32 32">
<title>grua-1</title>
<path d="M5.717 23.775c0 0.751 0.614 1.359 1.359 1.359h0.614c0.751 0 1.359-0.614 1.359-1.359s-0.614-1.359-1.359-1.359h-0.614c-0.745 0-1.359 0.608-1.359 1.359z"></path>
<path d="M21.991 25.14h0.614c0.751 0 1.359-0.614 1.359-1.359s-0.614-1.359-1.359-1.359h-0.614c-0.751 0-1.359 0.614-1.359 1.359s0.614 1.359 1.359 1.359z"></path>
<path d="M28.459 12.198c-0.477-0.542-1.359-0.614-1.908-0.137s-0.614 1.359-0.137 1.908c0.614 0.679 1.496 1.091 2.385 1.091 1.771 0 3.201-1.633 3.201-3.606 0-1.666-1.013-3.038-2.398-3.43l-3.123-5.285c-0.412-0.706-1.405-0.843-1.973-0.34l-8.036 6.331h-2.528l-0.536-2.182c-0.137-0.614-0.679-1.019-1.294-1.019h-7.010c-0.751 0-1.359 0.614-1.359 1.359v11.237c-2.208 0.921-3.744 3.097-3.744 5.651 0 3.404 2.724 6.128 6.128 6.128h17.431c3.404 0 6.128-2.724 6.128-6.128s-2.724-6.128-6.128-6.128h-7.422l-1.522-6.2h2.339c0.34 0 0.614-0.065 0.889-0.34l7.147-5.723c0 0 2.548 4.397 2.561 4.417 0.209 0.483 0.693 0.83 1.254 0.83 0.274 0 0.542 0.412 0.542 0.889s-0.359 1.235-0.889 0.679zM6.396 8.18h4.704l2.313 9.467h-7.017v-9.467zM23.559 20.299c1.908 0.007 3.476 1.568 3.476 3.476s-1.568 3.476-3.476 3.476h-17.431c-1.908 0-3.476-1.568-3.476-3.476s1.568-3.476 3.476-3.476h17.431z"></path>
</symbol>
<symbol id="icon-gancho" viewBox="0 0 32 32">
<title>gancho</title>
<path d="M23.652 11.826c0-3.985-3.062-7.264-6.957-7.617v-2.818h3.478c0.384 0 0.696-0.312 0.696-0.696s-0.312-0.696-0.696-0.696h-8.348c-0.384 0-0.696 0.312-0.696 0.696s0.312 0.696 0.696 0.696h3.478v2.818c-3.894 0.353-6.957 3.632-6.957 7.617s3.062 7.264 6.957 7.617v3.514c0 0.385 0.312 0.696 0.696 0.696 1.918 0 3.478 1.56 3.478 3.478s-1.56 3.478-3.478 3.478c-1.918 0-3.478-1.56-3.478-3.478 0-0.385-0.312-0.696-0.696-0.696s-0.696 0.311-0.696 0.696c0 2.685 2.184 4.87 4.87 4.87s4.87-2.185 4.87-4.87c0-2.449-1.817-4.481-4.174-4.82v-2.867c3.894-0.353 6.957-3.632 6.957-7.617zM16 18.087c-3.452 0-6.261-2.809-6.261-6.261s2.809-6.261 6.261-6.261 6.261 2.809 6.261 6.261-2.809 6.261-6.261 6.261z"></path>
<path d="M16 8.348c-1.918 0-3.478 1.56-3.478 3.478s1.56 3.478 3.478 3.478c1.918 0 3.478-1.56 3.478-3.478s-1.56-3.478-3.478-3.478zM16 13.913c-1.151 0-2.087-0.936-2.087-2.087s0.936-2.087 2.087-2.087 2.087 0.936 2.087 2.087-0.936 2.087-2.087 2.087z"></path>
</symbol>
<symbol id="icon-camion" viewBox="0 0 32 32">
<title>camion</title>
<path d="M29.105 9.156h-0.244l-2.445-3.94c-0.473-0.761-1.291-1.216-2.186-1.216h-1.788c-0.856 0-1.552 0.696-1.552 1.552v11.489h-19.338c-0.856 0-1.552 0.696-1.552 1.552v2.57c0 1.596 1.299 2.895 2.895 2.895h2.15c0.169 2.199 1.993 3.943 4.234 3.943s4.066-1.744 4.235-3.943h4.971c0.169 2.199 1.993 3.943 4.234 3.943 2.242 0 4.067-1.744 4.236-3.943h2.15c1.596 0 2.895-1.299 2.895-2.895v-9.111c-0-1.596-1.299-2.894-2.895-2.895zM24.23 6.133c0.151 0 0.294 0.080 0.374 0.208l1.747 2.815h-3.328v-3.022h1.207zM9.279 25.867c-1.177 0-2.133-0.957-2.133-2.134s0.957-2.134 2.133-2.134c1.177 0 2.134 0.957 2.134 2.134s-0.957 2.134-2.134 2.134zM22.719 25.867c-1.177 0-2.133-0.957-2.133-2.134s0.957-2.134 2.133-2.134c1.178 0 2.135 0.957 2.135 2.134s-0.958 2.134-2.135 2.134zM29.867 21.162c0 0.42-0.342 0.762-0.762 0.762h-2.534c-0.684-1.448-2.147-2.459-3.852-2.459s-3.167 1.011-3.85 2.459h-5.739c-0.683-1.448-2.147-2.459-3.851-2.459s-3.167 1.011-3.85 2.459h-2.534c-0.42 0-0.762-0.342-0.762-0.762v-1.988h27.733v1.988zM23.023 17.040v-5.751h6.082c0.42 0 0.762 0.342 0.762 0.762v4.989h-6.844z"></path>
</symbol>
<symbol id="icon-grua-2" viewBox="0 0 32 32">
<title>grua-2</title>
<path d="M31.304 1.391h-21.693c-0.288-0.808-1.053-1.391-1.959-1.391h-5.565c-1.151 0-2.087 0.936-2.087 2.087v5.565c0 1.151 0.936 2.087 2.087 2.087h5.565c0.906 0 1.671-0.584 1.959-1.391h2.911v18.087h-2.087c-1.151 0-2.087 0.936-2.087 2.087v2.783c0 0.384 0.311 0.696 0.696 0.696h13.913c0.385 0 0.696-0.312 0.696-0.696v-2.783c0-1.151-0.936-2.087-2.087-2.087h-2.087v-18.087h6.957v6.261c0 0.384 0.311 0.696 0.696 0.696 1.151 0 2.087 0.936 2.087 2.087s-0.936 2.087-2.087 2.087-2.087-0.936-2.087-2.087c0-0.384-0.311-0.696-0.696-0.696s-0.696 0.312-0.696 0.696c0 1.918 1.56 3.478 3.478 3.478s3.478-1.56 3.478-3.478c0-1.68-1.197-3.085-2.783-3.408v-5.635h3.478c0.385 0 0.696-0.312 0.696-0.696v-5.565c0-0.384-0.311-0.696-0.696-0.696zM8.348 7.652c0 0.383-0.312 0.696-0.696 0.696h-5.565c-0.384 0-0.696-0.312-0.696-0.696v-5.565c0-0.383 0.312-0.696 0.696-0.696h5.565c0.384 0 0.696 0.312 0.696 0.696v5.565zM13.913 8.348h4.174v2.783h-4.174v-2.783zM13.913 12.522h4.174v13.913h-4.174v-13.913zM9.739 6.957v-4.174h2.783v4.174h-2.783zM21.565 27.826c0.384 0 0.696 0.312 0.696 0.696v2.087h-12.522v-2.087c0-0.383 0.312-0.696 0.696-0.696h11.13zM30.609 6.957h-16.696v-4.174h16.696v4.174z"></path>
</symbol>
<symbol id="icon-cabrestante-2" viewBox="0 0 32 32">
<title>cabrestante-2</title>
<path d="M30.609 14.609c0.563 0 1.041-0.457 1.043-1.040 0-0.001 0-0.002 0-0.003v-6.261c0-0.576-0.467-1.043-1.044-1.043h-13.676c-0.575-0.563-1.242-1.032-1.976-1.381v-3.836c0-0.576-0.467-1.044-1.043-1.044h-6.261c-0.576 0-1.043 0.467-1.043 1.044v3.31c-0.888 0.315-1.593 1.020-1.907 1.907h-3.31c-0.576 0-1.044 0.467-1.044 1.043v6.261c0 0.576 0.467 1.043 1.044 1.043h3.31c0.315 0.888 1.020 1.593 1.907 1.908 0 1.107 0 12.941 0 13.397h-3.131c-0.576 0-1.044 0.467-1.044 1.044s0.467 1.043 1.043 1.043c1.272 0 13.91 0 14.609 0 0.576 0 1.044-0.467 1.044-1.044s-0.467-1.044-1.044-1.044h-3.13c0-1.094 0-12.787 0-13.217h1.043c1.36 0 2.52-0.872 2.951-2.087h8.527v5.217c0 0.576 0.467 1.044 1.044 1.044s1.044 0.467 1.044 1.044c0 0.279-0.108 0.541-0.306 0.738-0.408 0.408-1.068 0.408-1.476 0s-1.068-0.407-1.476-0c-0.407 0.407-0.408 1.068-0 1.476 1.223 1.223 3.204 1.224 4.427 0 0.591-0.591 0.917-1.377 0.917-2.213 0-1.391-0.897-2.533-2.087-2.953v-4.351h1.044zM4.522 12.522h-2.087v-4.174h2.087v4.174zM16.939 10.435h-6.156v-4.174h1.043c2.52 0 4.628 1.795 5.112 4.174zM8.696 2.087h4.174v2.162c-0.341-0.049-0.689-0.075-1.043-0.075h-3.13v-2.087zM12.87 29.913h-3.858l3.858-2.572v2.572zM8.696 27.616v-4.448l3.336 2.224-3.336 2.224zM12.87 23.442l-3.336-2.224 3.336-2.224v4.448zM8.696 19.268v-2.572h3.858l-3.858 2.572zM17.044 13.565c0 0.575-0.468 1.043-1.044 1.043h-8.348c-0.575 0-1.043-0.468-1.043-1.043v-6.261c0-0.575 0.468-1.043 1.043-1.043h1.043v5.217c0 0.576 0.467 1.043 1.043 1.043h7.304v1.043zM18.425 8.348h3.404l-2.711 2.711c-0.055-0.965-0.298-1.881-0.693-2.711zM20.606 12.522l3.742-3.742 3.742 3.742h-7.483zM26.867 8.348h2.698v2.698l-2.698-2.698z"></path>
</symbol>
</defs>
</svg>
