<!-- Generated by IcoMoon.io -->
<svg version="1.1" xmlns="http://www.w3.org/2000/svg" width="32" height="32" viewBox="0 0 32 32">
<title>cabrestante</title>
<path d="M30.115 6.32h-15.689c-0.317-1.269-1.467-2.212-2.833-2.212h-0.203l-1.605-3.794c-0.081-0.191-0.268-0.314-0.474-0.314s-0.394 0.124-0.474 0.314l-1.605 3.794h-1.239c-0.285 0-0.515 0.231-0.515 0.515v1.697h-3.593c-0.285 0-0.515 0.231-0.515 0.515v4.108c0 0.284 0.231 0.515 0.515 0.515h3.593v1.17c0 0.284 0.231 0.515 0.515 0.515h0.749v15.086h-3.488c-0.285 0-0.515 0.231-0.515 0.515v2.739c0 0.285 0.231 0.515 0.515 0.515h7.182c0.285 0 0.515-0.231 0.515-0.515s-0.231-0.515-0.515-0.515h-6.667v-1.708h11.084v1.708h-2.768c-0.285 0-0.515 0.231-0.515 0.515s0.231 0.515 0.515 0.515h3.283c0.285 0 0.515-0.231 0.515-0.515v-2.739c0-0.285-0.231-0.515-0.515-0.515h-3.488v-15.087h2.118c0.285 0 0.515-0.231 0.515-0.515v-1.17h12.558v4.674h-0.309c-0.285 0-0.515 0.231-0.515 0.515s0.231 0.515 0.515 0.515h0.309v1.312c0 0.285 0.231 0.515 0.515 0.515 0.515 0 0.933 0.419 0.933 0.933s-0.419 0.933-0.933 0.933c-0.515 0-0.933-0.419-0.933-0.933 0-0.285-0.231-0.515-0.515-0.515s-0.515 0.231-0.515 0.515c0 1.083 0.881 1.964 1.964 1.964s1.964-0.881 1.964-1.964c0-0.904-0.615-1.668-1.448-1.895v-0.866h0.309c0.285 0 0.515-0.231 0.515-0.515s-0.231-0.515-0.515-0.515h-0.309v-4.674h2.013c0.285 0 0.515-0.231 0.515-0.515v-4.108c-0-0.284-0.231-0.515-0.515-0.515zM2.4 10.429v-2.349l2.349 2.349h-2.349zM5.478 9.7l-2.349-2.349h2.349v2.349zM9.311 1.837l0.961 2.271h-1.921l0.961-2.271zM10.85 28.231h-2.349l2.349-2.349v2.349zM7.772 27.502v-5.729l2.864 2.864-2.864 2.864zM10.85 23.394l-2.864-2.864 2.864-2.864v5.729zM7.772 19.286v-5.413l2.706 2.706-2.706 2.706zM10.85 15.494l-2.349-2.349h2.349v2.349zM13.483 9.761h-3.71v-1.527c0-0.284-0.231-0.515-0.515-0.515s-0.515 0.231-0.515 0.515v2.042c0 0.284 0.231 0.515 0.515 0.515h4.225v1.322h-6.975v-6.975h2.235v1.412c0 0.284 0.231 0.515 0.515 0.515s0.515-0.231 0.515-0.515v-1.412h1.274c0.001 0 0.001 0 0.002 0s0.545-0 0.545-0c1.042 0 1.89 0.848 1.89 1.89v2.733zM14.514 9.7v-2.349h2.349l-2.349 2.349zM15.242 10.429l2.706-2.706 2.706 2.706h-5.413zM19.035 7.351h5.729l-2.864 2.864-2.864-2.864zM23.143 10.429l2.864-2.864 2.864 2.864h-5.729zM29.6 9.7l-2.349-2.349h2.349v2.349z"></path>
</svg>
