<!-- Generated by IcoMoon.io -->
<svg version="1.1" xmlns="http://www.w3.org/2000/svg" width="32" height="32" viewBox="0 0 32 32">
<title>cabrestante-2</title>
<path d="M30.609 14.609c0.563 0 1.041-0.457 1.043-1.040 0-0.001 0-0.002 0-0.003v-6.261c0-0.576-0.467-1.043-1.044-1.043h-13.676c-0.575-0.563-1.242-1.032-1.976-1.381v-3.836c0-0.576-0.467-1.044-1.043-1.044h-6.261c-0.576 0-1.043 0.467-1.043 1.044v3.31c-0.888 0.315-1.593 1.020-1.907 1.907h-3.31c-0.576 0-1.044 0.467-1.044 1.043v6.261c0 0.576 0.467 1.043 1.044 1.043h3.31c0.315 0.888 1.020 1.593 1.907 1.908 0 1.107 0 12.941 0 13.397h-3.131c-0.576 0-1.044 0.467-1.044 1.044s0.467 1.043 1.043 1.043c1.272 0 13.91 0 14.609 0 0.576 0 1.044-0.467 1.044-1.044s-0.467-1.044-1.044-1.044h-3.13c0-1.094 0-12.787 0-13.217h1.043c1.36 0 2.52-0.872 2.951-2.087h8.527v5.217c0 0.576 0.467 1.044 1.044 1.044s1.044 0.467 1.044 1.044c0 0.279-0.108 0.541-0.306 0.738-0.408 0.408-1.068 0.408-1.476 0s-1.068-0.407-1.476-0c-0.407 0.407-0.408 1.068-0 1.476 1.223 1.223 3.204 1.224 4.427 0 0.591-0.591 0.917-1.377 0.917-2.213 0-1.391-0.897-2.533-2.087-2.953v-4.351h1.044zM4.522 12.522h-2.087v-4.174h2.087v4.174zM16.939 10.435h-6.156v-4.174h1.043c2.52 0 4.628 1.795 5.112 4.174zM8.696 2.087h4.174v2.162c-0.341-0.049-0.689-0.075-1.043-0.075h-3.13v-2.087zM12.87 29.913h-3.858l3.858-2.572v2.572zM8.696 27.616v-4.448l3.336 2.224-3.336 2.224zM12.87 23.442l-3.336-2.224 3.336-2.224v4.448zM8.696 19.268v-2.572h3.858l-3.858 2.572zM17.044 13.565c0 0.575-0.468 1.043-1.044 1.043h-8.348c-0.575 0-1.043-0.468-1.043-1.043v-6.261c0-0.575 0.468-1.043 1.043-1.043h1.043v5.217c0 0.576 0.467 1.043 1.043 1.043h7.304v1.043zM18.425 8.348h3.404l-2.711 2.711c-0.055-0.965-0.298-1.881-0.693-2.711zM20.606 12.522l3.742-3.742 3.742 3.742h-7.483zM26.867 8.348h2.698v2.698l-2.698-2.698z"></path>
</svg>
