<!-- Generated by IcoMoon.io -->
<svg version="1.1" xmlns="http://www.w3.org/2000/svg" width="32" height="32" viewBox="0 0 32 32">
<title>camion-de-construccion</title>
<path d="M31.918 15.725c-0.053-0.053-0.124-0.082-0.198-0.082h-1.101l0.002-6.536c0-0.074-0.030-0.146-0.082-0.198s-0.124-0.082-0.198-0.082h-7.222l0.971-1.090h5.832c0.155 0 0.28-0.126 0.28-0.28v-1.863c0-0.155-0.126-0.28-0.28-0.28h-6.379c-0.348 0-0.679 0.15-0.909 0.41l-0.883 1.001-21.468 0.001c-0.074 0-0.146 0.030-0.198 0.082s-0.082 0.124-0.082 0.198l0.001 2.972c0 0.102 0.055 0.196 0.144 0.245l4.953 2.755 3.702 4.729c-2.094 0.444-3.595 2.285-3.595 4.441 0 2.505 2.038 4.542 4.542 4.542 2.045 0 3.834-1.365 4.378-3.33h5.143c0.544 1.965 2.333 3.33 4.378 3.33s3.833-1.364 4.378-3.329l3.695-0c0.155 0 0.28-0.126 0.28-0.28l0-7.156c-0-0.074-0.030-0.146-0.082-0.198zM9.747 24.359c-1.22 0-2.213-0.993-2.213-2.213s0.993-2.213 2.213-2.213c1.22 0 2.213 0.993 2.213 2.213s-0.993 2.213-2.213 2.213zM23.646 24.359c-1.22 0-2.213-0.993-2.213-2.213s0.993-2.213 2.213-2.213 2.213 0.993 2.213 2.213c-0 1.22-0.993 2.213-2.213 2.213zM28.194 14.559h-2.673l-1.391-3.308h4.064v3.308z"></path>
</svg>
