<!-- Generated by IcoMoon.io -->
<svg version="1.1" xmlns="http://www.w3.org/2000/svg" width="32" height="32" viewBox="0 0 32 32">
<title>camion</title>
<path d="M29.105 9.156h-0.244l-2.445-3.94c-0.473-0.761-1.291-1.216-2.186-1.216h-1.788c-0.856 0-1.552 0.696-1.552 1.552v11.489h-19.338c-0.856 0-1.552 0.696-1.552 1.552v2.57c0 1.596 1.299 2.895 2.895 2.895h2.15c0.169 2.199 1.993 3.943 4.234 3.943s4.066-1.744 4.235-3.943h4.971c0.169 2.199 1.993 3.943 4.234 3.943 2.242 0 4.067-1.744 4.236-3.943h2.15c1.596 0 2.895-1.299 2.895-2.895v-9.111c-0-1.596-1.299-2.894-2.895-2.895zM24.23 6.133c0.151 0 0.294 0.080 0.374 0.208l1.747 2.815h-3.328v-3.022h1.207zM9.279 25.867c-1.177 0-2.133-0.957-2.133-2.134s0.957-2.134 2.133-2.134c1.177 0 2.134 0.957 2.134 2.134s-0.957 2.134-2.134 2.134zM22.719 25.867c-1.177 0-2.133-0.957-2.133-2.134s0.957-2.134 2.133-2.134c1.178 0 2.135 0.957 2.135 2.134s-0.958 2.134-2.135 2.134zM29.867 21.162c0 0.42-0.342 0.762-0.762 0.762h-2.534c-0.684-1.448-2.147-2.459-3.852-2.459s-3.167 1.011-3.85 2.459h-5.739c-0.683-1.448-2.147-2.459-3.851-2.459s-3.167 1.011-3.85 2.459h-2.534c-0.42 0-0.762-0.342-0.762-0.762v-1.988h27.733v1.988zM23.023 17.040v-5.751h6.082c0.42 0 0.762 0.342 0.762 0.762v4.989h-6.844z"></path>
</svg>
