<!-- Generated by IcoMoon.io -->
<svg version="1.1" xmlns="http://www.w3.org/2000/svg" width="32" height="32" viewBox="0 0 32 32">
<title>demolicion</title>
<path d="M11.246 11.346c-0.107-0.426-0.533-0.746-1.013-0.746h-3.838c-0.586 0-1.066 0.48-1.066 1.066v2.665c0 0.586 0.48 1.066 1.066 1.066h4.637c0.32 0 0.64-0.16 0.8-0.426 0.213-0.32 0.267-0.64 0.16-0.959l-0.746-2.665zM6.396 14.331v-2.665h3.838l0.8 2.665h-4.637z"></path>
<path d="M7.462 26.59c-0.32 0-0.533 0.213-0.533 0.533s0.213 0.533 0.533 0.533 0.533-0.213 0.533-0.533-0.213-0.533-0.533-0.533z"></path>
<path d="M10.127 26.59c-0.32 0-0.533 0.213-0.533 0.533s0.213 0.533 0.533 0.533 0.533-0.213 0.533-0.533-0.213-0.533-0.533-0.533z"></path>
<path d="M12.792 26.59c-0.32 0-0.533 0.213-0.533 0.533s0.213 0.533 0.533 0.533c0.32 0 0.533-0.213 0.533-0.533s-0.213-0.533-0.533-0.533z"></path>
<path d="M15.457 26.59c-0.32 0-0.533 0.213-0.533 0.533s0.213 0.533 0.533 0.533 0.533-0.213 0.533-0.533-0.213-0.533-0.533-0.533z"></path>
<path d="M18.122 26.59c-0.32 0-0.533 0.213-0.533 0.533s0.213 0.533 0.533 0.533 0.533-0.213 0.533-0.533-0.213-0.533-0.533-0.533z"></path>
<path d="M22.919 24.458h-0.721l1.787-5.064c0.213-0.373 0.16-0.853-0.053-1.226-0.267-0.426-0.64-0.64-1.119-0.64h-5.045l10.482-10.903v5.619c-1.507 0.256-2.665 1.575-2.665 3.152 0 0.693 0.213 1.386 0.64 1.919 0.16 0.213 0.533 0.267 0.746 0.107s0.267-0.533 0.107-0.746c-0.267-0.373-0.426-0.8-0.426-1.279 0-1.173 0.959-2.132 2.132-2.132s2.132 0.959 2.132 2.132c0 0.48-0.16 0.906-0.426 1.279-0.16 0.213-0.107 0.586 0.107 0.746 0.107 0.053 0.213 0.107 0.32 0.107 0.16 0 0.32-0.053 0.426-0.213 0.426-0.533 0.64-1.226 0.64-1.919 0-1.577-1.158-2.897-2.665-3.152v-6.975c0-0.020-0.001-0.040-0.003-0.059 0.097-0.283 0.135-0.585 0.109-0.9-0.053-0.64-0.373-1.226-0.853-1.599-0.906-0.746-2.239-0.64-3.038 0.213l-10.332 10.934-1.074-4.805c-0.213-0.959-1.066-1.652-2.079-1.652h-1.386v-1.066c0-1.173-0.959-2.132-2.132-2.132s-2.132 0.959-2.132 2.132v1.066h-1.599c-1.173 0-2.132 0.959-2.132 2.132v14.924c-1.492-0-2.665 1.173-2.665 2.665s1.173 2.665 2.665 2.665h20.254c1.492 0 2.665-1.173 2.665-2.665s-1.173-2.665-2.665-2.665zM20.774 28.722h-15.965c0.328-0.443 0.52-0.995 0.52-1.599s-0.192-1.156-0.52-1.599h15.965c-0.328 0.443-0.52 0.995-0.52 1.599s0.192 1.156 0.52 1.599zM26.33 3.724c0.426-0.426 1.119-0.48 1.599-0.107 0.267 0.16 0.426 0.48 0.426 0.8s-0.107 0.64-0.32 0.853l-11.726 12.259h-0.267l-0.382-1.597-0.194-0.867 10.862-11.342zM7.462 6.336c0-0.586 0.48-1.066 1.066-1.066s1.066 0.48 1.066 1.066v1.066h-2.132v-1.066zM3.731 9.534c0-0.586 0.48-1.066 1.066-1.066h7.195c0.533 0 0.959 0.373 1.066 0.853l1.866 8.208h-11.193v-7.995zM3.731 22.859h11.726c0.32 0 0.533-0.213 0.533-0.533s-0.213-0.533-0.533-0.533h-11.726v-1.066h8.528c0.32 0 0.533-0.213 0.533-0.533s-0.213-0.533-0.533-0.533h-8.528v-1.013h19.081c0.107 0 0.213 0.053 0.213 0.107 0 0 0.053 0.107 0 0.213l-1.919 5.383c-0.053 0.053-0.107 0.107-0.213 0.107h-17.163v-1.599zM1.066 27.123c0-0.906 0.693-1.599 1.599-1.599s1.599 0.693 1.599 1.599-0.693 1.599-1.599 1.599c-0.906 0-1.599-0.693-1.599-1.599zM22.919 28.722c-0.906 0-1.599-0.693-1.599-1.599s0.693-1.599 1.599-1.599 1.599 0.693 1.599 1.599-0.693 1.599-1.599 1.599z"></path>
<path d="M31.98 21.206l-0.533-2.132c0-0.16-0.107-0.32-0.267-0.373l-2.132-1.066c-0.213-0.107-0.48-0.053-0.64 0.107l-2.132 2.132c-0.16 0.107-0.213 0.32-0.16 0.48l0.533 2.132c0.053 0.16 0.213 0.32 0.426 0.373l2.665 0.533c0.053 0 0.053 0 0.107 0 0.16 0 0.267-0.053 0.373-0.107l1.599-1.599c0.16-0.107 0.213-0.32 0.16-0.48zM29.688 22.272l-2.079-0.426-0.373-1.492 1.652-1.652 1.546 0.799 0.426 1.599-1.173 1.173z"></path>
</svg>
