<!-- Generated by IcoMoon.io -->
<svg version="1.1" xmlns="http://www.w3.org/2000/svg" width="32" height="32" viewBox="0 0 32 32">
<title>demolicion-2</title>
<path d="M11.29 11.359c-0.13-0.455-0.551-0.774-1.026-0.774h-3.864c-0.588 0-1.067 0.478-1.067 1.067v2.667c0 0.588 0.478 1.067 1.067 1.067h4.626c0.338 0 0.648-0.155 0.852-0.425s0.267-0.611 0.174-0.935l-0.762-2.667z"></path>
<path d="M8 27.119c0 0.295-0.239 0.533-0.533 0.533s-0.533-0.239-0.533-0.533c0-0.295 0.239-0.533 0.533-0.533s0.533 0.239 0.533 0.533z"></path>
<path d="M10.667 27.119c0 0.295-0.239 0.533-0.533 0.533s-0.533-0.239-0.533-0.533c0-0.295 0.239-0.533 0.533-0.533s0.533 0.239 0.533 0.533z"></path>
<path d="M13.334 27.119c0 0.295-0.239 0.533-0.533 0.533s-0.533-0.239-0.533-0.533c0-0.295 0.239-0.533 0.533-0.533s0.533 0.239 0.533 0.533z"></path>
<path d="M16 27.119c0 0.295-0.239 0.533-0.533 0.533s-0.533-0.239-0.533-0.533c0-0.295 0.239-0.533 0.533-0.533s0.533 0.239 0.533 0.533z"></path>
<path d="M18.667 27.119c0 0.295-0.239 0.533-0.533 0.533s-0.533-0.239-0.533-0.533c0-0.295 0.239-0.533 0.533-0.533s0.533 0.239 0.533 0.533z"></path>
<path d="M29.333 12.233v-6.981c0-0.030-0.012-0.057-0.017-0.086 0.096-0.282 0.138-0.583 0.115-0.885-0.045-0.617-0.349-1.192-0.831-1.578-0.911-0.73-2.244-0.63-3.035 0.228l-10.365 10.888-1.066-4.765c-0.22-0.982-1.076-1.668-2.083-1.668h-1.385v-1.067c0-1.177-0.957-2.133-2.133-2.133s-2.133 0.957-2.133 2.133v1.067h-1.599c-1.177 0-2.134 0.957-2.134 2.134v10.132h9.6c0.295 0 0.533 0.238 0.533 0.533s-0.238 0.533-0.533 0.533h-9.6v1.067h12.8c0.295 0 0.533 0.238 0.533 0.533s-0.238 0.533-0.533 0.533h-12.8v1.6c-1.47 0-2.667 1.196-2.667 2.667s1.197 2.667 2.667 2.667h20.267c1.47 0 2.667-1.196 2.667-2.667s-1.196-2.667-2.667-2.667h-0.731l1.788-5.076c0.186-0.401 0.159-0.86-0.074-1.237-0.24-0.388-0.655-0.62-1.111-0.62h-5.041l10.502-10.955v5.669c-1.511 0.255-2.667 1.57-2.667 3.152 0 1.765 1.436 3.2 3.2 3.2s3.2-1.435 3.2-3.2c0-1.582-1.155-2.896-2.667-3.152zM7.467 6.319c0-0.588 0.478-1.067 1.067-1.067s1.067 0.478 1.067 1.067v1.067h-2.133v-1.067zM3.733 17.519v-7.999c0-0.589 0.479-1.068 1.068-1.068h7.25c0.503 0 0.932 0.343 1.042 0.834l1.842 8.233h-11.201zM2.667 28.719c-0.882 0-1.6-0.718-1.6-1.6s0.718-1.6 1.6-1.6c0.883 0 1.6 0.718 1.6 1.6s-0.717 1.6-1.6 1.6zM22.933 25.519c0.883 0 1.6 0.718 1.6 1.6s-0.717 1.6-1.6 1.6c-0.882 0-1.6-0.718-1.6-1.6s0.718-1.6 1.6-1.6zM20.814 25.519c-0.339 0.447-0.547 0.997-0.547 1.6s0.209 1.153 0.547 1.6h-16.027c0.338-0.447 0.547-0.997 0.547-1.6s-0.209-1.153-0.547-1.6h16.027zM28.067 5.232l-11.78 12.287h-0.259l-0.11-0.49-0.438-1.958 10.86-11.408c0.002-0.002 0.004-0.004 0.006-0.006 0.413-0.45 1.11-0.504 1.587-0.122 0.255 0.204 0.41 0.497 0.434 0.824s-0.085 0.639-0.301 0.872z"></path>
</svg>
