<!-- Generated by IcoMoon.io -->
<svg version="1.1" xmlns="http://www.w3.org/2000/svg" width="32" height="32" viewBox="0 0 32 32">
<title>excavadora-2</title>
<path d="M15.95 21.139c-0.973 0-1.761 0.789-1.761 1.761 0.001 0.972 0.789 1.76 1.762 1.761s1.761-0.789 1.761-1.762c-0-0.973-0.789-1.761-1.762-1.761zM15.95 23.595c-0.384-0-0.694-0.311-0.694-0.695s0.311-0.695 0.695-0.695c0.384 0 0.695 0.311 0.694 0.695s-0.311 0.695-0.695 0.695z"></path>
<path d="M4.831 21.139c-0.973 0-1.761 0.789-1.761 1.761 0.001 0.972 0.789 1.76 1.762 1.761 0.973-0 1.761-0.789 1.761-1.762s-0.789-1.761-1.762-1.761zM4.831 23.595c-0.384-0-0.694-0.311-0.694-0.695s0.311-0.695 0.695-0.695c0.384 0 0.695 0.311 0.694 0.695s-0.311 0.695-0.695 0.695z"></path>
<path d="M31.733 19.946c-0.329-0.474-0.871-0.753-1.447-0.746h-5.221v-4.266c-0.001-0.883-0.717-1.599-1.6-1.6h-2.92l-4.061-5.866h0.582c0.883-0.001 1.599-0.717 1.6-1.6-0.004-0.882-0.718-1.596-1.6-1.6h-15.524c-0.466 0.002-0.9 0.235-1.159 0.622-0.3 0.434-0.369 0.989-0.184 1.483l0.001 0.002 2.33 6.209c0.131 0.363 0.364 0.68 0.671 0.913v2.503h-1.6c-0.883 0.001-1.599 0.717-1.6 1.6v5.333c-0 0.294 0.239 0.533 0.533 0.533 0 0 0 0 0 0h0.121c0.049 0.366 0.146 0.723 0.288 1.064l-0.101 0.058c-0.255 0.148-0.342 0.474-0.194 0.729s0.473 0.342 0.728 0.195l0.106-0.061c0.23 0.301 0.499 0.57 0.8 0.8l-0.061 0.106c-0.147 0.255-0.060 0.581 0.196 0.729s0.581 0.060 0.728-0.195l0.058-0.1c0.351 0.146 0.719 0.244 1.096 0.291v0.118c0 0.295 0.239 0.533 0.533 0.533s0.533-0.239 0.533-0.533v-0.118c0.377-0.047 0.746-0.145 1.096-0.292l0.058 0.1c0.147 0.255 0.474 0.342 0.729 0.195s0.342-0.473 0.195-0.728l-0.062-0.108c0.3-0.23 0.568-0.499 0.797-0.8l0.11 0.064c0.255 0.147 0.581 0.060 0.729-0.195s0.060-0.581-0.195-0.729l-0.106-0.061c0.142-0.34 0.239-0.696 0.288-1.061h2.77c0.049 0.366 0.145 0.723 0.288 1.063l-0.101 0.058c-0.255 0.148-0.342 0.474-0.194 0.729s0.473 0.342 0.728 0.195l0.106-0.061c0.23 0.301 0.499 0.57 0.8 0.8l-0.061 0.106c-0.147 0.255-0.060 0.581 0.196 0.729s0.581 0.060 0.728-0.195l0.058-0.1c0.351 0.146 0.719 0.244 1.096 0.291v0.118c0 0.295 0.239 0.533 0.533 0.533s0.533-0.239 0.533-0.533v-0.118c0.377-0.047 0.746-0.145 1.096-0.292l0.058 0.1c0.148 0.255 0.474 0.342 0.729 0.194s0.342-0.473 0.195-0.728l-0.062-0.107c0.3-0.23 0.568-0.499 0.797-0.8l0.109 0.063c0.255 0.147 0.581 0.060 0.729-0.195s0.060-0.581-0.195-0.729l-0.105-0.061c0.142-0.34 0.239-0.696 0.288-1.061h0.142c0.294 0 0.533-0.239 0.533-0.533 0-0 0-0 0-0v-6.4h1.067v3.11c-0.494 0.421-0.666 1.111-0.427 1.715l0.001 0.003 1.502 3.728c0.271 0.641 0.904 1.054 1.6 1.043h4.245c0.694 0.011 1.326-0.399 1.599-1.038l1.504-3.735c0.19-0.468 0.131-1-0.157-1.414zM16.538 9.6c0.037-0.003 0.074-0.011 0.109-0.022l2.6 3.755h-3.25c-0.004-0.005-0.008-0.009-0.012-0.014-0.020-0.026-0.043-0.050-0.064-0.075-0.049-0.060-0.1-0.119-0.154-0.175-0.029-0.029-0.060-0.056-0.090-0.084-0.050-0.047-0.101-0.093-0.155-0.136-0.034-0.027-0.070-0.053-0.106-0.078-0.054-0.039-0.108-0.075-0.164-0.11-0.038-0.023-0.077-0.046-0.116-0.067-0.058-0.031-0.116-0.060-0.176-0.087-0.010-0.004-0.019-0.010-0.029-0.014v-2.893h1.606zM14.664 16.319c-0.243 0.14-0.518 0.214-0.798 0.215-0.884 0.001-1.601-0.714-1.602-1.598s0.714-1.601 1.598-1.602c0.572-0.001 1.101 0.304 1.387 0.799 0.442 0.765 0.18 1.744-0.585 2.186zM2.549 9.6h4.384c0.295 0 0.533-0.239 0.533-0.533s-0.239-0.533-0.533-0.533h-4.784l-0.4-1.067h6.251c0.295 0 0.533-0.239 0.533-0.533s-0.239-0.533-0.533-0.533h-6.651l-0.15-0.4c-0.063-0.167-0.041-0.355 0.060-0.503 0.062-0.098 0.168-0.159 0.283-0.164h15.524c0.144-0 0.281 0.059 0.38 0.163 0.099 0.097 0.155 0.231 0.154 0.37-0 0.294-0.239 0.533-0.533 0.533h-4.128c-0.211 0-0.402 0.124-0.487 0.317l-2.461 5.546c-0.054 0.119-0.13 0.228-0.223 0.32-0.141 0.136-0.328 0.213-0.524 0.217h-4.949c-0.353-0.014-0.659-0.25-0.764-0.587l-0.98-2.612zM5.020 13.867h1.692l2.133 2.133h-1.692l-2.133-2.133zM5.645 16h-1.379v-1.379l1.379 1.379zM8.22 13.867h1.379v1.379l-1.379-1.379zM4.834 26.052l-0.002-0-0.002 0c-1.726-0.005-3.129-1.394-3.15-3.119v-0.028l0.001-0.004-0.001-0.003c0.001-0.148 0.013-0.295 0.035-0.441 0.005-0.038 0.011-0.075 0.017-0.113 0.023-0.131 0.054-0.26 0.093-0.387 0.019-0.061 0.043-0.12 0.066-0.179 0.020-0.054 0.042-0.108 0.066-0.16 0.435-0.97 1.328-1.655 2.378-1.825 0.069-0.010 0.139-0.023 0.208-0.029v0c0.030-0.003 0.061-0.003 0.092-0.005 0.092-0.005 0.184-0.008 0.276-0.006 0.032 0.001 0.064 0.003 0.097 0.005 0.086 0.005 0.172 0.013 0.257 0.024 0.037 0.005 0.075 0.011 0.112 0.017 0.075 0.013 0.149 0.030 0.222 0.048 0.045 0.011 0.090 0.021 0.134 0.035 0.057 0.017 0.114 0.038 0.17 0.058 0.236 0.085 0.461 0.198 0.67 0.336 0.010 0.006 0.020 0.012 0.030 0.019 0.078 0.053 0.154 0.11 0.227 0.17l0.018 0.015c0.295 0.247 0.543 0.546 0.731 0.882 0.011 0.020 0.023 0.039 0.034 0.059 0.031 0.059 0.059 0.12 0.086 0.181 0.021 0.048 0.043 0.095 0.062 0.144 0.020 0.050 0.038 0.102 0.056 0.153 0.022 0.064 0.041 0.13 0.059 0.196 0.011 0.043 0.023 0.086 0.033 0.13 0.018 0.082 0.032 0.165 0.044 0.249 0.005 0.033 0.011 0.064 0.015 0.097 0.014 0.12 0.021 0.24 0.021 0.36-0.020 1.726-1.423 3.116-3.149 3.121zM15.953 26.052l-0.002-0-0.002 0c-1.726-0.005-3.128-1.394-3.149-3.119v-0.032c0.001-0.148 0.013-0.296 0.035-0.443 0.005-0.037 0.010-0.074 0.017-0.11 0.023-0.132 0.054-0.262 0.093-0.39 0.018-0.057 0.040-0.111 0.061-0.167 0.022-0.059 0.046-0.118 0.071-0.175 0.413-0.922 1.242-1.591 2.231-1.8 0.241-0.048 0.487-0.069 0.733-0.062v0l0.014 0.001c0.117 0.004 0.233 0.014 0.349 0.031l0.038 0.006c0.106 0.017 0.212 0.039 0.316 0.067 0.016 0.004 0.033 0.008 0.049 0.013 0.106 0.030 0.21 0.065 0.312 0.106 0.010 0.004 0.021 0.007 0.031 0.012 0.109 0.045 0.215 0.096 0.318 0.153 0.029 0.016 0.057 0.035 0.086 0.052 0.068 0.040 0.134 0.082 0.199 0.127 0.046 0.032 0.090 0.066 0.133 0.1 0.042 0.033 0.084 0.067 0.124 0.102 0.048 0.042 0.095 0.084 0.141 0.129 0.031 0.031 0.061 0.063 0.090 0.095 0.047 0.050 0.095 0.1 0.138 0.153 0.017 0.021 0.032 0.044 0.049 0.065 0.079 0.102 0.152 0.209 0.218 0.32 0.030 0.050 0.061 0.1 0.088 0.152 0.023 0.044 0.044 0.090 0.065 0.136 0.029 0.062 0.056 0.124 0.081 0.187 0.016 0.042 0.031 0.084 0.046 0.127 0.025 0.072 0.047 0.145 0.066 0.22 0.010 0.038 0.020 0.075 0.029 0.114 0.019 0.085 0.034 0.172 0.046 0.26 0.004 0.030 0.010 0.060 0.014 0.090 0.014 0.12 0.021 0.241 0.021 0.361-0.020 1.726-1.423 3.117-3.15 3.122zM19.732 21.036c-0.006-0.012-0.014-0.024-0.020-0.036-0.063-0.123-0.131-0.243-0.205-0.359-0.012-0.019-0.022-0.038-0.035-0.057-0.087-0.133-0.182-0.26-0.283-0.383-0.019-0.023-0.041-0.044-0.061-0.067-0.081-0.093-0.165-0.183-0.254-0.268-0.041-0.039-0.084-0.077-0.126-0.115-0.076-0.068-0.155-0.133-0.236-0.195l-0.011-0.009 0.060-0.104c0.147-0.255 0.059-0.581-0.196-0.728s-0.58-0.059-0.728 0.195l-0.057 0.099-0.017-0.006c-0.024-0.010-0.048-0.017-0.071-0.026-0.122-0.048-0.246-0.091-0.374-0.128-0.039-0.011-0.078-0.020-0.117-0.030-0.116-0.030-0.233-0.055-0.353-0.075-0.039-0.007-0.078-0.013-0.118-0.018-0.016-0.002-0.032-0.005-0.047-0.007v-0.118c0-0.295-0.239-0.533-0.533-0.533s-0.533 0.239-0.533 0.533v0.118c-0.106 0.014-0.213 0.027-0.317 0.049-0.181 0.035-0.359 0.081-0.534 0.137-0.086 0.028-0.165 0.068-0.248 0.101l-0.055-0.095c-0.147-0.255-0.474-0.342-0.729-0.195s-0.342 0.473-0.195 0.728l0.048 0.083c-0.306 0.231-0.577 0.505-0.806 0.812l-0.088-0.051c-0.254-0.148-0.581-0.062-0.729 0.192s-0.062 0.581 0.193 0.729c0.001 0.001 0.003 0.002 0.004 0.002l0.094 0.054c-0.029 0.071-0.049 0.147-0.074 0.22-0.026 0.074-0.053 0.148-0.075 0.224-0.018 0.062-0.033 0.124-0.048 0.187-0.038 0.152-0.067 0.306-0.087 0.461-0.002 0.014-0.006 0.027-0.008 0.040h-2.744c-0.005-0.041-0.015-0.081-0.021-0.122-0.014-0.094-0.028-0.188-0.049-0.28-0.009-0.039-0.020-0.078-0.030-0.117-0.025-0.1-0.051-0.199-0.083-0.296-0.012-0.037-0.027-0.074-0.041-0.111-0.025-0.068-0.047-0.137-0.075-0.204l0.1-0.057c0.256-0.146 0.345-0.472 0.199-0.727s-0.472-0.345-0.728-0.199c-0.001 0.001-0.003 0.002-0.004 0.002l-0.103 0.059c-0.015-0.020-0.031-0.038-0.046-0.057-0.030-0.038-0.060-0.076-0.091-0.113-0.063-0.075-0.129-0.146-0.197-0.217-0.024-0.025-0.048-0.049-0.073-0.074-0.076-0.074-0.155-0.146-0.236-0.215-0.022-0.018-0.043-0.036-0.065-0.053-0.030-0.025-0.060-0.050-0.091-0.074l0.058-0.101c0.147-0.255 0.060-0.581-0.195-0.729s-0.581-0.060-0.729 0.195c-0 0-0 0-0 0l-0.056 0.098c-0.067-0.028-0.137-0.049-0.206-0.073-0.071-0.025-0.14-0.052-0.213-0.074-0.069-0.021-0.139-0.037-0.208-0.054-0.083-0.020-0.167-0.039-0.252-0.055-0.065-0.012-0.13-0.021-0.195-0.030l-0.024-0.004v-0.118c0-0.295-0.239-0.533-0.533-0.533s-0.533 0.239-0.533 0.533v0.118c-0.039 0.005-0.078 0.012-0.117 0.018-0.239 0.033-0.475 0.085-0.705 0.156-0.096 0.030-0.189 0.068-0.281 0.106l-0.051-0.088c-0.147-0.255-0.473-0.343-0.728-0.196s-0.343 0.473-0.196 0.729c0 0 0 0 0 0l0.049 0.085c-0.472 0.364-0.861 0.825-1.141 1.352l-0.010 0.017c-0.017 0.032-0.037 0.063-0.053 0.095v-3.395c0-0.294 0.239-0.533 0.533-0.533h8.533c0.294-0.001 0.532-0.239 0.533-0.533v-3.356c0.022-0.027 0.040-0.057 0.061-0.085 0.018-0.025 0.037-0.050 0.054-0.076 0.069-0.1 0.129-0.205 0.181-0.315l2.323-5.235h1.902l0.738 1.067h-1.525c-0.294-0-0.533 0.239-0.533 0.533 0 0 0 0 0 0v3.2c-1.473 0-2.667 1.194-2.667 2.666s1.194 2.666 2.666 2.666c0.112-0 0.223-0.008 0.334-0.022 0.036-0.005 0.072-0.013 0.108-0.019 0.073-0.012 0.146-0.026 0.218-0.044 0.041-0.011 0.081-0.024 0.122-0.037 0.065-0.020 0.129-0.041 0.192-0.066 0.041-0.016 0.082-0.035 0.122-0.053 0.060-0.027 0.118-0.056 0.176-0.087 0.040-0.022 0.079-0.044 0.117-0.067 0.056-0.034 0.11-0.071 0.163-0.109 0.036-0.026 0.072-0.051 0.107-0.079 0.053-0.042 0.103-0.087 0.153-0.134 0.031-0.029 0.063-0.056 0.092-0.086 0.053-0.054 0.102-0.112 0.151-0.171 0.022-0.026 0.045-0.051 0.066-0.078 0.004-0.005 0.008-0.009 0.011-0.014h3.735l0 4.503zM22.932 20.8v-4.8c0-0.294-0.239-0.533-0.533-0.533-0 0-0 0-0 0h-5.921c0.004-0.020 0.003-0.040 0.006-0.060 0.065-0.313 0.065-0.635 0-0.947-0.004-0.020-0.002-0.040-0.006-0.059h6.988c0.294 0 0.533 0.239 0.533 0.533v5.866c-0 0.294-0.239 0.533-0.533 0.533-0.144 0-0.281-0.059-0.38-0.164-0.099-0.097-0.155-0.231-0.154-0.37zM30.901 20.963l-1.506 3.738c-0.112 0.232-0.35 0.376-0.608 0.366h-4.245c-0.259 0.010-0.499-0.136-0.609-0.37l-0.955-2.371c0.037 0.012 0.076 0.018 0.113 0.027 0.028 0.007 0.056 0.015 0.085 0.020 0.862 0.165 1.695-0.4 1.86-1.262 0.020-0.102 0.029-0.206 0.028-0.309v-0.533h5.221c0.222-0.007 0.434 0.097 0.564 0.277 0.088 0.122 0.107 0.28 0.050 0.419z"></path>
<path d="M14.358 14.731c-0.027-0.065-0.065-0.124-0.112-0.176-0.214-0.197-0.543-0.197-0.757 0-0.049 0.052-0.089 0.111-0.117 0.176-0.050 0.13-0.050 0.275 0 0.405 0.029 0.065 0.069 0.124 0.117 0.176 0.21 0.206 0.547 0.206 0.757 0 0.047-0.052 0.085-0.111 0.112-0.176 0.057-0.129 0.057-0.276 0-0.405z"></path>
</svg>
