<!-- Generated by IcoMoon.io -->
<svg version="1.1" xmlns="http://www.w3.org/2000/svg" width="32" height="32" viewBox="0 0 32 32">
<title>excavadora-1</title>
<path d="M6.702 8.427c-1.061 0-1.92 0.859-1.92 1.92s0.859 1.92 1.92 1.92c1.061 0 1.92-0.859 1.92-1.92s-0.859-1.92-1.92-1.92zM6.702 11.181c-0.461 0-0.835-0.374-0.835-0.835s0.373-0.835 0.835-0.835c0.461 0 0.835 0.373 0.835 0.835s-0.374 0.835-0.835 0.835z"></path>
<path d="M17.9 18.369h8.557c0.856 0 1.556-0.7 1.556-1.556v-9.182c0-0.856-0.7-1.556-1.556-1.556h-7c-0.856 0-1.696 0.686-1.868 1.525l-0.934 3.409c-0.171 0.839-0.311 2.225-0.311 3.081v2.723c-0 0.856 0.7 1.556 1.556 1.556zM17.511 11.493l0.837-3.339c0.117-0.631 0.738-1.148 1.38-1.148h6.163c0.642 0 1.167 0.525 1.167 1.167v3.299c0 0.642-0.525 1.167-1.167 1.167h-6.707l0.575-1.361c0.1-0.238-0.011-0.511-0.248-0.612s-0.512 0.011-0.612 0.248l-0.713 1.688c-0.481-0.127-0.774-0.577-0.675-1.111z"></path>
<path d="M17.531 22.661c0 0.807-0.654 1.461-1.461 1.461s-1.461-0.654-1.461-1.461c0-0.807 0.654-1.461 1.461-1.461s1.461 0.654 1.461 1.461z"></path>
<path d="M23.636 22.661c0 0.807-0.654 1.461-1.461 1.461s-1.461-0.654-1.461-1.461c0-0.807 0.654-1.461 1.461-1.461s1.461 0.654 1.461 1.461z"></path>
<path d="M29.742 22.661c0 0.807-0.654 1.461-1.461 1.461s-1.461-0.654-1.461-1.461c0-0.807 0.654-1.461 1.461-1.461s1.461 0.654 1.461 1.461z"></path>
<path d="M30.908 19.505c-0.73-0.542-1.529-0.536-2.379-0.536-2.449 0-4.898 0-7.347 0-2.013 0-4.027 0-6.041 0-1.499 0-2.785 1.156-2.785 2.693 0 0.518 0 1.036 0 1.554 0 0.916 0.451 1.703 1.176 2.241 0.692 0.513 1.524 0.469 2.332 0.469 1.054 0 2.108 0 3.163 0 2.7 0 5.4 0 8.1 0 0.694 0 1.388 0 2.082 0 1.507 0 2.716-1.127 2.782-2.635 0.002-0.017 0.003-0.034 0.003-0.051 0-1.363 0.155-2.813-1.086-3.734zM31.127 23.238c-0.027 1.009-0.811 1.794-1.82 1.82-0.136 0.004-0.273 0-0.409 0-0.913 0-1.825 0-2.738 0-2.729 0-5.458 0-8.188 0-0.87 0-1.74 0-2.61 0-0.225 0-0.449 0.008-0.671-0.033-0.878-0.163-1.469-0.968-1.469-1.837 0-0.511 0-1.021 0-1.532 0-1.009 0.831-1.794 1.82-1.82 0.505-0.013 1.012 0 1.517 0 2.625 0 5.25 0 7.875 0 1.173 0 2.346 0 3.519 0 0.55 0 1.159-0.068 1.704 0.033 0.878 0.163 1.469 0.968 1.469 1.837 0 0.511 0 1.021 0 1.532z"></path>
<path d="M6.702 9.914c-0.239 0-0.433 0.194-0.433 0.433s0.194 0.433 0.433 0.433 0.433-0.194 0.433-0.433c0-0.239-0.194-0.433-0.433-0.433z"></path>
<path d="M14.983 16.324c0 0 0 0 0 0 0.291 0 0.554-0.214 0.653-0.533 0.103-0.331-0.007-0.657-0.288-0.851l-6.371-4.407c-0.043 0.523-0.262 0.997-0.599 1.361l6.216 4.299c0.125 0.086 0.256 0.13 0.389 0.13z"></path>
<path d="M4.28 18.984c-0.346-0.882-0.585-2.682-0.697-3.668l1.949-3.010c-0.448-0.268-0.796-0.685-0.977-1.182l-2.429 3.751c-0.742 1.135-2.556 4.133-2.035 5.595 0.775 2.172 3.955 2.847 5.825 2.84 0.718-0.003 1.118-0.299 0.644-0.882 0 0-1.772-2.145-2.282-3.444z"></path>
</svg>
