<!-- Generated by IcoMoon.io -->
<svg version="1.1" xmlns="http://www.w3.org/2000/svg" width="32" height="32" viewBox="0 0 32 32">
<title>excavadora-3</title>
<path d="M17.947 16.294l-9.355-2.879c-0.164-0.050-0.341-0.020-0.479 0.082s-0.219 0.263-0.219 0.434v2.879c0 0.142 0.057 0.281 0.158 0.382s0.24 0.158 0.382 0.158h9.355c0.267 0 0.494-0.195 0.534-0.459s-0.12-0.517-0.375-0.596zM8.973 16.27v-1.608l5.226 1.608h-5.226z"></path>
<path d="M31.65 22.705c-0.203-0.265-0.468-0.491-0.792-0.637l-4.832-2.147c-0.166-0.074-0.342-0.116-0.521-0.117-0.040-0.5-0.137-1.068-0.262-1.492l-0.562-1.875c-0.108-0.352-0.315-0.654-0.566-0.912-0.254-0.256-0.552-0.469-0.901-0.583l-1.967-0.631-2.336-8.294c-0.018-0.063-0.045-0.122-0.069-0.181h1.466c0.298 0 0.54-0.242 0.54-0.54s-0.242-0.54-0.54-0.54h-9.535c-0.394 0.001-0.749 0.153-1.028 0.384-0.279 0.232-0.493 0.554-0.567 0.94l-0.771 4.112-2.549-0.818c-0.552-0.173-1.342-0.297-1.921-0.3h-2.159c-0.794 0.005-1.437 0.632-1.462 1.425l-0.313 12.224h-0l-0.001 0.047c-0 0.388 0.158 0.746 0.413 1.001 0.254 0.256 0.613 0.415 1.003 0.415h1.807c0.539 1.77 2.183 3.058 4.13 3.058 1.948 0 3.593-1.291 4.131-3.063l2.532-0.002c0.537 1.773 2.183 3.065 4.131 3.065 1.951 0 3.598-1.295 4.133-3.071l1.805-0.001c0.125-0 0.244-0.022 0.36-0.052v1.145c-0.001 0.353 0.133 0.689 0.369 0.928 0.234 0.24 0.567 0.377 0.914 0.376 0.077 0 0.155-0.006 0.232-0.019l4.702-0.784c0.302-0.051 0.574-0.142 0.806-0.274 0.117-0.068 0.225-0.144 0.325-0.255 0.050-0.056 0.098-0.122 0.138-0.206s0.069-0.188 0.069-0.304c0-0.198 0-0.684 0-1.079-0.003-0.367-0.152-0.674-0.35-0.941zM15.989 5.835h1.259c0.104-0.002 0.255 0.049 0.381 0.145 0.126 0.094 0.216 0.226 0.242 0.327l2.129 7.604-5.771-1.851-1.186-6.224h2.946zM10.237 6.279c0.018-0.1 0.088-0.22 0.196-0.308 0.107-0.090 0.238-0.137 0.339-0.135h1.173l1.117 5.85-3.621-1.162 0.796-4.245zM7.354 26.165c-1.786 0-3.238-1.453-3.238-3.238s1.453-3.238 3.238-3.238 3.238 1.453 3.238 3.238-1.453 3.238-3.238 3.238zM18.148 26.165c-1.786 0-3.238-1.453-3.238-3.238s1.453-3.238 3.238-3.238 3.238 1.453 3.238 3.238-1.453 3.238-3.238 3.238zM24.445 20.944c0 0.001 0 0.002 0 0.003v1.13c0-0 0 0.655 0 0.655 0 0.099-0.039 0.186-0.106 0.254s-0.155 0.106-0.254 0.107l-1.627 0.001c0.002-0.056 0.008-0.111 0.008-0.168 0-2.384-1.933-4.318-4.318-4.318s-4.318 1.934-4.318 4.318c0 0.059 0.007 0.116 0.009 0.173l-2.177 0.001c0.002-0.059 0.009-0.116 0.009-0.175 0-2.384-1.933-4.318-4.318-4.318s-4.318 1.934-4.318 4.318c0 0.061 0.007 0.12 0.009 0.18h-1.628c-0.191-0.001-0.336-0.149-0.338-0.336l0-0.010 0.313-12.233c0.001-0.195 0.187-0.378 0.383-0.373h2.159c0.411-0.004 1.201 0.12 1.591 0.249l17.357 5.568c0.122 0.036 0.31 0.155 0.46 0.311 0.153 0.153 0.268 0.344 0.303 0.466l0.562 1.875c0.123 0.397 0.239 1.19 0.236 1.606l-0 0.716zM30.922 24.561c-0.032 0.018-0.071 0.037-0.119 0.055-0.089 0.035-0.2 0.066-0.318 0.085l-4.757 0.788c-0.074-0.001-0.113-0.023-0.145-0.054-0.030-0.032-0.058-0.078-0.059-0.17v-4.318c-0-0.027 0.003-0.046 0.005-0.061 0.015 0.004 0.034 0.009 0.058 0.020l4.832 2.147c0.128 0.055 0.274 0.174 0.37 0.302 0.099 0.127 0.136 0.261 0.132 0.29-0 0.311-0 0.675-0 0.914z"></path>
<path d="M18.148 21.128c-0.993 0-1.799 0.806-1.799 1.799s0.806 1.799 1.799 1.799 1.799-0.806 1.799-1.799c0-0.993-0.806-1.799-1.799-1.799zM18.148 23.646c-0.397 0-0.72-0.323-0.72-0.72s0.322-0.72 0.72-0.72c0.397 0 0.72 0.323 0.72 0.72s-0.323 0.72-0.72 0.72z"></path>
<path d="M7.354 21.128c-0.993 0-1.799 0.806-1.799 1.799s0.806 1.799 1.799 1.799 1.799-0.806 1.799-1.799c0-0.993-0.806-1.799-1.799-1.799zM7.354 23.646c-0.397 0-0.72-0.323-0.72-0.72s0.322-0.72 0.72-0.72 0.72 0.323 0.72 0.72c0 0.397-0.323 0.72-0.72 0.72z"></path>
</svg>
