<!-- Generated by IcoMoon.io -->
<svg version="1.1" xmlns="http://www.w3.org/2000/svg" width="32" height="32" viewBox="0 0 32 32">
<title>excavadora-5</title>
<path fill="#ccc" d="M31.484 25.068l-5.977-9.668c-0.184-0.297-0.635-0.224-0.715 0.117l-1.172 5.019 2.43 3.931 5.011 1.19c0.34 0.080 0.607-0.291 0.423-0.589z"></path>
<path fill="#b3b3b3" d="M31.484 25.068l-5.977-9.668c-0.184-0.297-0.635-0.224-0.715 0.117l-0.377 1.603 4.914 7.949c0.039 0.063 0.057 0.129 0.059 0.194l1.673 0.395c0.34 0.080 0.607-0.291 0.423-0.589z"></path>
<path fill="#686868" d="M23.431 25.883h-19.715c-1.801 0-3.261-1.46-3.261-3.261v-0.004c0-1.801 1.46-3.261 3.261-3.261h19.715c1.801 0 3.261 1.46 3.261 3.261v0.004c0 1.801-1.46 3.261-3.261 3.261z"></path>
<path fill="#4f4f4f" d="M23.433 19.357h-1.849c1.8 0 3.259 1.461 3.259 3.263v0c0 1.802-1.459 3.263-3.259 3.263h1.849c1.8 0 3.259-1.461 3.259-3.263v0c0-1.802-1.459-3.263-3.259-3.263z"></path>
<path fill="#b3b3b3" d="M4.962 22.683c0 0.637-0.516 1.153-1.152 1.153s-1.152-0.516-1.152-1.153c0-0.637 0.516-1.153 1.152-1.153s1.152 0.516 1.152 1.153z"></path>
<path fill="#b3b3b3" d="M11.446 22.683c0 0.637-0.516 1.153-1.152 1.153s-1.152-0.516-1.152-1.153c0-0.637 0.516-1.153 1.152-1.153s1.152 0.516 1.152 1.153z"></path>
<path fill="#b3b3b3" d="M17.93 22.683c0 0.637-0.516 1.153-1.152 1.153s-1.152-0.516-1.152-1.153c0-0.637 0.516-1.153 1.152-1.153s1.152 0.516 1.152 1.153z"></path>
<path fill="#b3b3b3" d="M24.414 22.683c0 0.637-0.516 1.153-1.152 1.153s-1.152-0.516-1.152-1.153c0-0.637 0.516-1.153 1.152-1.153s1.152 0.516 1.152 1.153z"></path>
<path fill="#ffcc5a" d="M21.632 13.144h-5.012l-2.89-6.092h-8.863v7.868c0 0.221-0.179 0.401-0.401 0.401h-3.048c-0.121 0-0.219 0.098-0.219 0.219v3.6c0 0.121 0.098 0.219 0.219 0.219h21.35v-5.076c0-0.629-0.509-1.138-1.137-1.138z"></path>
<path fill="#ffb000" d="M21.632 13.144h-1.849c0.628 0 1.137 0.51 1.137 1.138v2.859c0 0.21-0.17 0.38-0.38 0.38h-19.122c-0.121 0-0.219-0.098-0.219-0.219v1.837c0 0.121 0.098 0.219 0.219 0.219h21.35v-5.076c0-0.629-0.509-1.138-1.137-1.138z"></path>
<path fill="#aeffff" d="M15.062 14.252l-2.259-4.748c-0.080-0.169-0.25-0.276-0.437-0.276h-5.22c-0.267 0-0.484 0.217-0.484 0.485v2.688c0 0.091 0.025 0.179 0.073 0.256l1.433 2.302c0.088 0.142 0.244 0.228 0.411 0.228h6.046c0.267 0 0.484-0.217 0.484-0.485v-0.242c0-0.072-0.016-0.143-0.047-0.208z"></path>
<path fill="#84f1f7" d="M15.062 14.252l-2.259-4.748c-0.080-0.169-0.25-0.276-0.437-0.276h-1.932c0.187 0 0.357 0.107 0.437 0.276l2.564 5.463c0.034 0.070 0.069 0.144 0.105 0.221h1.085c0.267 0 0.484-0.217 0.484-0.485v-0.242c0-0.072-0.016-0.143-0.047-0.208z"></path>
<path fill="#b3b3b3" d="M2.094 12.232h0.942c0.093 0 0.169 0.076 0.169 0.169v2.913h-1.28v-2.913c0-0.093 0.076-0.169 0.169-0.169z"></path>
<path fill="#ffb000" d="M13.73 7.051h-1.821l2.862 6.092h1.849z"></path>
<path fill="#b3b3b3" d="M16.138 6.117h-11.979c-0.15 0-0.272 0.122-0.272 0.272v0.891c0 0.15 0.122 0.272 0.272 0.272h11.979c0.15 0 0.272-0.122 0.272-0.272v-0.891c0-0.15-0.122-0.272-0.272-0.272z"></path>
<path fill="#999" d="M16.138 6.117h-1.563v1.435h1.563c0.15 0 0.272-0.122 0.272-0.272v-0.89c0-0.15-0.122-0.272-0.272-0.272z"></path>
<path fill="#051c1b" d="M17.126 14.058c-0.226-0.11-0.499-0.016-0.609 0.21l-0.715 1.469c-0.11 0.226-0.016 0.499 0.21 0.609 0.064 0.031 0.132 0.046 0.199 0.046 0.169 0 0.331-0.094 0.41-0.256l0.715-1.469c0.11-0.226 0.016-0.499-0.21-0.609z"></path>
<path fill="#051c1b" d="M17.501 16.346c0.064 0.031 0.132 0.046 0.199 0.046 0.169 0 0.331-0.094 0.41-0.256l0.715-1.469c0.11-0.226 0.016-0.499-0.21-0.609s-0.499-0.016-0.609 0.21l-0.715 1.469c-0.11 0.226-0.016 0.499 0.21 0.609z"></path>
<path fill="#051c1b" d="M5.131 16.395c0 0.252 0.204 0.455 0.455 0.455h1.528c0.252 0 0.455-0.204 0.455-0.455s-0.204-0.455-0.455-0.455h-1.528c-0.252-0-0.455 0.204-0.455 0.455z"></path>
<path fill="#051c1b" d="M31.871 24.829l-5.977-9.668c-0.156-0.252-0.424-0.402-0.719-0.402-0.396 0-0.736 0.269-0.827 0.655l-0.815 3.492c-0.034-0.001-0.068-0.003-0.102-0.003h-0.207v-4.62c0-0.879-0.714-1.594-1.592-1.594h-4.724l-2.22-4.681h1.451c0.401 0 0.727-0.326 0.727-0.727v-0.891c0-0.401-0.326-0.727-0.727-0.727h-2.35c-0.252 0-0.455 0.204-0.455 0.455s0.204 0.455 0.455 0.455h2.166v0.524h-11.612v-0.524h7.594c0.252 0 0.455-0.204 0.455-0.455s-0.204-0.455-0.455-0.455h-7.777c-0.401 0-0.727 0.326-0.727 0.727v0.891c0 0.401 0.326 0.727 0.727 0.727h0.252v6.857h-0.751v-2.463c0-0.344-0.28-0.625-0.625-0.625h-0.015v-1.047c0-0.492-0.401-0.893-0.893-0.893h-0.518c-0.252 0-0.455 0.204-0.455 0.455s0.204 0.455 0.455 0.455h0.501v1.029h-0.015c-0.344 0-0.625 0.28-0.625 0.625v2.463h-0.052c-0.372 0-0.674 0.302-0.674 0.674v0.856c0 0.252 0.204 0.455 0.455 0.455s0.455-0.204 0.455-0.455v-0.619h2.812c0.472 0 0.856-0.384 0.856-0.856v-6.912h8.357l2.529 5.331c0.075 0.159 0.236 0.26 0.411 0.26h5.012c0.376 0 0.681 0.306 0.681 0.683v4.62h-20.658v-0.655c0-0.252-0.204-0.455-0.455-0.455s-0.455 0.204-0.455 0.455v0.892c0 0.33 0.239 0.605 0.553 0.663-0.793 0.683-1.297 1.693-1.297 2.821 0 2.049 1.667 3.716 3.716 3.716h19.715c1.149 0 2.177-0.524 2.86-1.346l4.665 1.108c0.065 0.015 0.132 0.023 0.198 0.023v0c0.305 0 0.587-0.167 0.737-0.437 0.151-0.272 0.144-0.592-0.020-0.858zM2.75 12.688v2.172h-0.369v-2.172h0.369zM23.431 25.427h-19.715c-1.547 0-2.805-1.259-2.805-2.809 0-1.547 1.258-2.805 2.805-2.805h19.715c1.547 0 2.805 1.259 2.805 2.809 0 1.547-1.259 2.805-2.805 2.805zM26.804 24.178v0c0.22-0.475 0.343-1.003 0.343-1.559 0-1.701-1.149-3.137-2.711-3.577l0.764-3.272 5.816 9.408-4.212-1.001zM26.431 24.812c0.007-0.009 0.013-0.019 0.020-0.029-0.007 0.009-0.013 0.019-0.020 0.029zM26.564 24.616c0.005-0.008 0.010-0.015 0.014-0.022-0.005 0.008-0.010 0.015-0.014 0.022z"></path>
<path fill="#051c1b" d="M3.81 21.075c-0.886 0-1.607 0.721-1.607 1.608s0.721 1.608 1.607 1.608 1.607-0.721 1.607-1.608-0.721-1.608-1.607-1.608zM3.81 23.381c-0.384 0-0.696-0.313-0.696-0.698s0.312-0.698 0.696-0.698 0.696 0.313 0.696 0.698-0.312 0.698-0.696 0.698z"></path>
<path fill="#051c1b" d="M10.294 21.075c-0.886 0-1.607 0.721-1.607 1.608s0.721 1.608 1.607 1.608 1.607-0.721 1.607-1.608-0.721-1.608-1.607-1.608zM10.294 23.381c-0.384 0-0.696-0.313-0.696-0.698s0.312-0.698 0.696-0.698 0.696 0.313 0.696 0.698-0.312 0.698-0.696 0.698z"></path>
<path fill="#051c1b" d="M16.778 21.075c-0.886 0-1.607 0.721-1.607 1.608s0.721 1.608 1.607 1.608c0.886 0 1.607-0.721 1.607-1.608s-0.721-1.608-1.607-1.608zM16.778 23.381c-0.384 0-0.696-0.313-0.696-0.698s0.312-0.698 0.696-0.698 0.696 0.313 0.696 0.698-0.312 0.698-0.696 0.698z"></path>
<path fill="#051c1b" d="M23.262 21.075c-0.886 0-1.607 0.721-1.607 1.608s0.721 1.608 1.607 1.608 1.607-0.721 1.607-1.608-0.721-1.608-1.607-1.608zM23.262 23.381c-0.384 0-0.696-0.313-0.696-0.698s0.312-0.698 0.696-0.698 0.696 0.313 0.696 0.698-0.312 0.698-0.696 0.698z"></path>
<path fill="#051c1b" d="M8.579 15.642h6.046c0.518 0 0.939-0.422 0.939-0.94v-0.242c0-0.139-0.031-0.278-0.091-0.404l-2.259-4.748c-0.155-0.326-0.488-0.536-0.848-0.536h-5.22c-0.518 0-0.939 0.422-0.939 0.94v2.688c0 0.176 0.049 0.348 0.142 0.497l1.433 2.302c0.173 0.277 0.471 0.443 0.797 0.443zM7.118 12.4v-2.688c0-0.016 0.013-0.029 0.029-0.029h5.22c0.011 0 0.021 0.006 0.026 0.017l2.259 4.748c0.002 0.004 0.003 0.008 0.003 0.013v0.242c0 0.016-0.013 0.029-0.029 0.029h-6.046c-0.010 0-0.019-0.005-0.024-0.014l-1.433-2.303c-0.003-0.005-0.004-0.010-0.004-0.015z"></path>
</svg>
