<!-- Generated by IcoMoon.io -->
<svg version="1.1" xmlns="http://www.w3.org/2000/svg" width="32" height="32" viewBox="0 0 32 32">
<title>excavadora-6</title>
<path d="M7.652 4.174c-1.918 0-3.478 1.56-3.478 3.478s1.56 3.478 3.478 3.478c1.918 0 3.478-1.56 3.478-3.478s-1.56-3.478-3.478-3.478zM7.652 9.739c-1.151 0-2.087-0.936-2.087-2.087s0.936-2.087 2.087-2.087 2.087 0.936 2.087 2.087-0.936 2.087-2.087 2.087z"></path>
<path d="M25.739 1.391c-2.095 0-4.040 1.064-5.185 2.783h-6.093c-1.3-2.549-3.923-4.174-6.809-4.174-4.219 0-7.652 3.433-7.652 7.652 0 2.887 1.626 5.511 4.174 6.809v11.974h-2.087c-1.151 0-2.087 0.936-2.087 2.087v2.783c0 0.384 0.312 0.696 0.696 0.696h13.913c0.384 0 0.696-0.312 0.696-0.696v-2.783c0-1.151-0.936-2.087-2.087-2.087h-2.087v-11.979c1.439-0.735 2.598-1.894 3.327-3.325h6.098c0.455 0.678 1.033 1.259 1.706 1.712v4.549c0 1.151 0.936 2.087 2.087 2.087h0.696v6.261c0 0.384 0.312 0.696 0.696 0.696s0.696-0.312 0.696-0.696v-6.261h0.696c1.151 0 2.087-0.936 2.087-2.087v-4.554c1.721-1.149 2.783-3.092 2.783-5.185 0-3.452-2.809-6.261-6.261-6.261zM13.217 27.826c0.383 0 0.696 0.312 0.696 0.696v2.087h-12.522v-2.087c0-0.383 0.312-0.696 0.696-0.696h11.13zM5.565 26.435v-11.42c0.056 0.016 0.114 0.021 0.17 0.035 0.232 0.061 0.467 0.11 0.705 0.148 0.084 0.013 0.167 0.029 0.251 0.039 0.317 0.040 0.637 0.067 0.961 0.067s0.644-0.027 0.961-0.067c0.084-0.010 0.166-0.026 0.25-0.039 0.239-0.038 0.474-0.088 0.708-0.149 0.056-0.015 0.113-0.019 0.168-0.035v11.421h-4.175zM13.386 10.157c-0.629 1.447-1.777 2.594-3.233 3.231-1.18 0.522-2.519 0.653-3.778 0.392-0.42-0.087-0.833-0.218-1.228-0.393-2.281-0.995-3.756-3.247-3.756-5.735 0-3.452 2.809-6.261 6.261-6.261 2.488 0 4.739 1.475 5.736 3.76 0.348 0.787 0.525 1.628 0.525 2.501s-0.177 1.714-0.527 2.505zM15.015 9.74v-0.001c0.016-0.057 0.022-0.116 0.037-0.173 0.058-0.225 0.107-0.454 0.144-0.685 0.015-0.093 0.032-0.184 0.043-0.278 0.039-0.314 0.065-0.63 0.065-0.952s-0.026-0.639-0.065-0.952c-0.012-0.093-0.028-0.184-0.043-0.275-0.038-0.232-0.086-0.461-0.145-0.688-0.015-0.056-0.020-0.115-0.036-0.171h4.822c-0.046 0.129-0.084 0.262-0.122 0.395-0.008 0.027-0.017 0.053-0.024 0.080-0.062 0.232-0.107 0.468-0.142 0.707-0.008 0.056-0.015 0.113-0.022 0.17-0.029 0.243-0.048 0.488-0.048 0.735s0.019 0.492 0.049 0.735c0.007 0.057 0.014 0.114 0.022 0.171 0.035 0.238 0.079 0.473 0.141 0.704 0.008 0.030 0.019 0.058 0.027 0.088 0.037 0.131 0.074 0.262 0.12 0.39h-4.822zM27.13 18.087h-2.783c-0.383 0-0.696-0.312-0.696-0.696v-3.837c0.127 0.045 0.255 0.081 0.385 0.117 0.037 0.010 0.073 0.024 0.11 0.033 0.214 0.056 0.432 0.097 0.651 0.129 0.092 0.014 0.184 0.024 0.277 0.035 0.157 0.017 0.312 0.026 0.47 0.031 0.065 0.002 0.129 0.013 0.195 0.013 0.060 0 0.119-0.010 0.179-0.012 0.168-0.005 0.335-0.015 0.502-0.033 0.089-0.010 0.177-0.020 0.264-0.033 0.221-0.033 0.441-0.074 0.656-0.131 0.039-0.010 0.077-0.024 0.116-0.035 0.124-0.035 0.248-0.070 0.369-0.113v3.836h0.001c0 0.384-0.312 0.696-0.696 0.696zM28.168 11.867c-1.455 0.858-3.366 0.866-4.862 0.005-0.001 0-0.001-0.001-0.001-0.001-0.733-0.424-1.347-1.041-1.781-1.789-0.428-0.727-0.655-1.567-0.655-2.43s0.227-1.703 0.659-2.436c0.86-1.501 2.473-2.433 4.21-2.433 2.685 0 4.87 2.184 4.87 4.87 0 1.737-0.932 3.35-2.44 4.215z"></path>
<path d="M25.739 5.565c-1.151 0-2.087 0.936-2.087 2.087s0.936 2.087 2.087 2.087 2.087-0.936 2.087-2.087-0.936-2.087-2.087-2.087zM25.739 8.348c-0.383 0-0.696-0.312-0.696-0.696s0.312-0.696 0.696-0.696c0.383 0 0.696 0.312 0.696 0.696s-0.312 0.696-0.696 0.696z"></path>
</svg>
