<!-- Generated by IcoMoon.io -->
<svg version="1.1" xmlns="http://www.w3.org/2000/svg" width="32" height="32" viewBox="0 0 32 32">
<title>excavadora-industrial</title>
<path d="M24.081 22.176c-0.31 0-0.561 0.251-0.561 0.561 0 0.297-0.242 0.539-0.539 0.539s-0.539-0.242-0.539-0.539c0-0.297 0.242-0.539 0.539-0.539 0.31 0 0.561-0.251 0.561-0.561s-0.251-0.561-0.561-0.561c-0.916 0-1.662 0.745-1.662 1.661s0.745 1.662 1.662 1.662c0.916 0 1.661-0.745 1.661-1.662 0-0.31-0.251-0.561-0.561-0.561z"></path>
<path d="M6.698 22.176c-0.31 0-0.561 0.251-0.561 0.561 0 0.297-0.242 0.539-0.539 0.539s-0.539-0.242-0.539-0.539c0-0.297 0.242-0.539 0.539-0.539 0.31 0 0.561-0.251 0.561-0.561s-0.251-0.561-0.561-0.561c-0.916 0-1.662 0.745-1.662 1.661s0.745 1.662 1.662 1.662 1.661-0.745 1.661-1.662c0-0.31-0.251-0.561-0.561-0.561z"></path>
<path d="M17.99 20.524h-7.259c-0.31 0-0.561 0.251-0.561 0.561s0.251 0.561 0.561 0.561h7.259c0.31 0 0.561-0.251 0.561-0.561s-0.251-0.561-0.561-0.561z"></path>
<path d="M31.861 17.017c0.016-0.018 0.030-0.036 0.043-0.055 0-0.001 0.001-0.001 0.001-0.002 0.014-0.021 0.026-0.043 0.037-0.065 0.002-0.004 0.004-0.008 0.006-0.012 0.010-0.022 0.019-0.044 0.026-0.066 0-0.001 0.001-0.003 0.001-0.004 0.007-0.024 0.012-0.048 0.016-0.072 0.001-0.005 0.002-0.011 0.002-0.016 0.003-0.025 0.006-0.050 0.006-0.076v-3.962c0-1.238-1.007-2.244-2.244-2.244h-1.439l-2.69-2.689c0.106-0.221 0.166-0.468 0.166-0.73 0-0.931-0.758-1.689-1.689-1.689-0.384 0-0.738 0.129-1.022 0.346-0.010 0.007-0.020 0.015-0.029 0.023-0.085 0.068-0.164 0.144-0.235 0.228l-5.518 5.416-0.529-1.71c-0.002-0.008-0.005-0.015-0.008-0.023-0.423-1.184-1.491-2.011-2.597-2.011h-8.541c-1.238 0-2.244 1.007-2.244 2.244v2.788h-1.135c-1.238 0-2.244 1.007-2.244 2.244v3.367c0 1.238 1.007 2.244 2.244 2.244h0.134c-0.447 0.638-0.71 1.413-0.71 2.249 0 2.167 1.763 3.93 3.93 3.93 1.765 0 3.262-1.171 3.756-2.776h9.871c0.494 1.606 1.991 2.776 3.757 2.776 2.166 0 3.929-1.763 3.929-3.93 0-1.065-0.426-2.032-1.117-2.74v-2.84c0-1.238-1.007-2.244-2.244-2.244h-2.866l4.302-6.216 1.745 1.745h-0.919c-0.227 0-0.431 0.136-0.518 0.346s-0.039 0.451 0.121 0.611l5.233 5.249-0.703 0.703c-0.219 0.219-0.219 0.574 0 0.793 0.11 0.11 0.253 0.164 0.397 0.164s0.287-0.055 0.397-0.164l1.099-1.099c0.004-0.004 0.008-0.009 0.012-0.014s0.009-0.009 0.013-0.014zM24.671 7.022c0 0.313-0.254 0.567-0.567 0.567s-0.567-0.254-0.567-0.567c0-0.126 0.042-0.242 0.111-0.336l0.129-0.127c0.092-0.065 0.205-0.104 0.326-0.104 0.313-0 0.567 0.254 0.567 0.567zM15.83 10.393l1.399 4.52h-8.251v-4.52h6.852zM5.598 25.545c-1.548 0-2.807-1.259-2.807-2.807s1.259-2.807 2.807-2.807c1.547 0 2.806 1.259 2.806 2.807s-1.259 2.807-2.806 2.807zM22.981 25.545c-1.548 0-2.807-1.259-2.807-2.807s1.259-2.807 2.807-2.807c1.547 0 2.807 1.259 2.807 2.807s-1.259 2.807-2.807 2.807zM24.519 16.596h-0.924c-0.31 0-0.561 0.251-0.561 0.561s0.251 0.561 0.561 0.561h1.075v1.473c-0.512-0.245-1.085-0.383-1.69-0.383-2.167 0-3.93 1.763-3.93 3.929 0 0.010 0.001 0.021 0.001 0.031h-9.527c0-0.010 0.001-0.021 0.001-0.031 0-2.167-1.762-3.929-3.929-3.929-0.737 0-1.427 0.204-2.017 0.558h-1.337c-0.619 0-1.122-0.503-1.122-1.122v-3.367c0-0.619 0.503-1.122 1.122-1.122h1.696c0.31 0 0.561-0.251 0.561-0.561v-3.349c0-0.619 0.503-1.122 1.122-1.122h8.541c0.396 0 0.798 0.21 1.107 0.548h-6.647c-0.425 0-0.77 0.346-0.77 0.77v5.433c0 0.31 0.251 0.561 0.561 0.561h9.57c0.002 0 0.004 0 0.006 0h1.619c0 0 0.001 0 0.001 0s0.001-0 0.001-0h3.936c0.414-0 0.776 0.226 0.97 0.561zM18.404 14.913l-0.731-2.362 4.902-4.811c0.208 0.441 0.6 0.778 1.078 0.91l-4.334 6.263h-0.914zM29.756 11.564c0.619 0 1.122 0.503 1.122 1.122v2.605l-3.716-3.727h2.594z"></path>
</svg>
