<!-- Generated by IcoMoon.io -->
<svg version="1.1" xmlns="http://www.w3.org/2000/svg" width="32" height="32" viewBox="0 0 32 32">
<title>excavadora</title>
<path d="M3.733 25.333c-0.884 0-1.6 0.716-1.6 1.6s0.716 1.6 1.6 1.6 1.6-0.716 1.6-1.6c-0.001-0.883-0.717-1.599-1.6-1.6zM3.733 27.467c-0.295 0-0.533-0.239-0.533-0.533s0.239-0.533 0.533-0.533 0.533 0.239 0.533 0.533c-0 0.294-0.239 0.533-0.533 0.533z"></path>
<path d="M18.133 26.933c0 0.884 0.716 1.6 1.6 1.6s1.6-0.716 1.6-1.6-0.716-1.6-1.6-1.6c-0.883 0.001-1.599 0.717-1.6 1.6zM20.267 26.933c0 0.295-0.239 0.533-0.533 0.533s-0.533-0.239-0.533-0.533 0.239-0.533 0.533-0.533c0.294 0 0.533 0.239 0.533 0.533z"></path>
<path d="M7.467 14.133c0.141 0 0.277-0.056 0.377-0.156s0.156-0.236 0.156-0.377v-0.533c0-0.295-0.239-0.533-0.533-0.533s-0.533 0.239-0.533 0.533v0.533c-0 0.141 0.056 0.277 0.156 0.377s0.236 0.156 0.377 0.156z"></path>
<path d="M7.467 16.8c0.141 0 0.277-0.056 0.377-0.156s0.156-0.236 0.156-0.377v-0.533c0-0.295-0.239-0.533-0.533-0.533s-0.533 0.239-0.533 0.533v0.533c-0 0.141 0.056 0.277 0.156 0.377s0.236 0.156 0.377 0.156z"></path>
<path d="M31.67 9.908c-0.065-0.027-0.134-0.041-0.204-0.041h-7.909c-0.142 0-0.277 0.056-0.377 0.156l-4.58 4.585c-0.645-0.312-1.351-0.474-2.067-0.475v-2.020c0-0.025-0.006-0.050-0.008-0.075 0.001-0.013 0.008-0.025 0.008-0.039-0.002-0.087-0.025-0.171-0.068-0.246-0.009-0.024-0.013-0.050-0.024-0.074l-4.080-9.18c-0.171-0.385-0.553-0.633-0.975-0.633h-10.32c-0.589 0.001-1.066 0.478-1.067 1.067v14.4c0.001 1.178 0.956 2.132 2.133 2.133h0.533v4.267c-1.472 0.002-2.665 1.195-2.667 2.667v1.067c0.002 1.472 1.195 2.665 2.667 2.667h18.133c1.472-0.002 2.665-1.195 2.667-2.667v-1.067c-0.002-1.267-0.893-2.358-2.133-2.613v-4.854c-0.001-0.716-0.163-1.422-0.474-2.067l3.805-3.8h4.136v8.91l-4.715 7.335c-0.106 0.164-0.113 0.373-0.020 0.544s0.273 0.278 0.468 0.278h4.8c1.472-0.002 2.665-1.195 2.667-2.667v-17.067c-0.001-0.216-0.131-0.409-0.33-0.492zM16.533 15.2c1.855 0.002 3.428 1.364 3.695 3.2h-3.695v-3.2zM20.267 19.467v4.267h-5.867v-4.267h5.867zM12.335 5.067l2.845 6.4h-6.113v-6.4h3.268zM1.067 5.067h4.8l0.001 6.4h-4.801v-6.4zM2.133 18.4c-0.589-0.001-1.066-0.478-1.067-1.067v-4.8h4.8c0.589-0.001 1.066-0.478 1.067-1.067v-6.4c-0.001-0.589-0.478-1.066-1.067-1.067h-4.8v-1.067h10.32l0.474 1.067h-2.794c-0.589 0.001-1.066 0.478-1.067 1.067v6.4c0.001 0.589 0.478 1.066 1.067 1.067h6.4l0 2.132-0 0.002v3.733h-7.467c0-0.295-0.239-0.533-0.533-0.533s-0.533 0.239-0.533 0.533h-4.8zM9.067 22.133v-1.067h4.267v1.067h-4.267zM13.333 23.2v0.533h-4.267v-0.533h4.267zM9.067 20v-0.533h4.267v0.533h-4.267zM8 19.467v4.267h-4.267v-4.267h4.267zM22.4 26.4v1.067c-0.001 0.883-0.717 1.599-1.6 1.6h-18.133c-0.883-0.001-1.599-0.717-1.6-1.6v-1.067c0.001-0.883 0.717-1.599 1.6-1.6h18.133c0.883 0.001 1.599 0.717 1.6 1.6zM20.278 15.938c-0.222-0.277-0.473-0.528-0.75-0.75l3.824-3.828 0.502 1.007-3.576 3.571zM24.863 12l-0.532-1.067h5.848l-1.067 1.067h-4.249zM30.933 27.467c-0.001 0.883-0.717 1.599-1.6 1.6h-3.823l4.114-6.4h1.309v4.8zM30.933 21.6h-1.067v-8.846l1.067-1.067v9.912z"></path>
<path d="M2.667 7.733c0.142 0 0.277-0.056 0.377-0.156l0.533-0.533c0.205-0.209 0.204-0.544-0.003-0.751s-0.542-0.208-0.751-0.003l-0.533 0.533c-0.152 0.152-0.198 0.382-0.116 0.581s0.277 0.329 0.493 0.329z"></path>
<path d="M3.89 7.89l-1.6 1.6c-0.137 0.134-0.191 0.332-0.142 0.517s0.194 0.33 0.379 0.379 0.383-0.005 0.517-0.142l1.6-1.6c0.205-0.209 0.204-0.544-0.003-0.751s-0.542-0.208-0.751-0.003z"></path>
</svg>
