<!-- Generated by IcoMoon.io -->
<svg version="1.1" xmlns="http://www.w3.org/2000/svg" width="32" height="32" viewBox="0 0 32 32">
<title>excavar</title>
<path d="M30.929 11.554h-2.123c-0.037-0.066-0.081-0.129-0.134-0.187l-1.977-2.208c-0.203-0.227-0.493-0.357-0.798-0.357h-4.113c-0.425 0-0.81 0.252-0.981 0.641l-2.781 6.351h-2.533l-0.924-8.625h0.349c0.591 0 1.071-0.479 1.071-1.071s-0.479-1.071-1.071-1.071h-1.544c-0.001 0-0.002 0-0.004 0h-11.224c-0.591 0-1.071 0.479-1.071 1.071s0.479 1.071 1.071 1.071h0.47v6.575c-0.142-0.070-0.301-0.11-0.47-0.11-0.591 0-1.071 0.479-1.071 1.071v3.651c0 0.485 0.323 0.894 0.765 1.026-1.107 0.745-1.838 2.011-1.838 3.443 0 2.287 1.86 4.147 4.147 4.147h18.184c2.287 0 4.147-1.86 4.147-4.147s-1.86-4.147-4.147-4.147h-6.532l-0.079-0.742h3.004c0.425 0 0.81-0.252 0.981-0.641l2.781-6.351h2.934l0.558 0.623c-0.516 0.077-0.912 0.521-0.912 1.058v3.093c0 0.439 0.268 0.833 0.676 0.995 1.604 0.637 2.876 1.854 3.582 3.429l0.629 1.403c0.175 0.391 0.562 0.633 0.977 0.633 0.074 0 0.15-0.008 0.225-0.024 0.494-0.106 0.847-0.542 0.847-1.047v-8.481c-0-0.591-0.48-1.071-1.071-1.071zM8.163 7.169h4.249l0.693 6.465h-4.942v-6.465zM4.755 7.169c0 0 1.266 0 1.266 0v6.465h-1.266v-6.465zM4.755 15.776h8.484c0.032 0 0.063-0.002 0.094-0.005l0.312 2.907h-8.89v-2.902zM22.331 20.82c1.106 0 2.005 0.9 2.005 2.005s-0.9 2.005-2.005 2.005h-18.184c-1.106 0-2.005-0.9-2.005-2.005s0.9-2.005 2.005-2.005h18.184zM29.858 17.058c-0.739-0.838-1.636-1.529-2.652-2.034v-1.328h2.652v3.362z"></path>
<path d="M5.418 22.825c0 0.566-0.459 1.026-1.026 1.026s-1.026-0.459-1.026-1.026c0-0.566 0.459-1.026 1.026-1.026s1.026 0.459 1.026 1.026z"></path>
<path d="M23.244 22.825c0 0.566-0.459 1.026-1.026 1.026s-1.026-0.459-1.026-1.026c0-0.566 0.459-1.026 1.026-1.026s1.026 0.459 1.026 1.026z"></path>
</svg>
