<!-- Generated by IcoMoon.io -->
<svg version="1.1" xmlns="http://www.w3.org/2000/svg" width="32" height="32" viewBox="0 0 32 32">
<title>gancho</title>
<path d="M23.652 11.826c0-3.985-3.062-7.264-6.957-7.617v-2.818h3.478c0.384 0 0.696-0.312 0.696-0.696s-0.312-0.696-0.696-0.696h-8.348c-0.384 0-0.696 0.312-0.696 0.696s0.312 0.696 0.696 0.696h3.478v2.818c-3.894 0.353-6.957 3.632-6.957 7.617s3.062 7.264 6.957 7.617v3.514c0 0.385 0.312 0.696 0.696 0.696 1.918 0 3.478 1.56 3.478 3.478s-1.56 3.478-3.478 3.478c-1.918 0-3.478-1.56-3.478-3.478 0-0.385-0.312-0.696-0.696-0.696s-0.696 0.311-0.696 0.696c0 2.685 2.184 4.87 4.87 4.87s4.87-2.185 4.87-4.87c0-2.449-1.817-4.481-4.174-4.82v-2.867c3.894-0.353 6.957-3.632 6.957-7.617zM16 18.087c-3.452 0-6.261-2.809-6.261-6.261s2.809-6.261 6.261-6.261 6.261 2.809 6.261 6.261-2.809 6.261-6.261 6.261z"></path>
<path d="M16 8.348c-1.918 0-3.478 1.56-3.478 3.478s1.56 3.478 3.478 3.478c1.918 0 3.478-1.56 3.478-3.478s-1.56-3.478-3.478-3.478zM16 13.913c-1.151 0-2.087-0.936-2.087-2.087s0.936-2.087 2.087-2.087 2.087 0.936 2.087 2.087-0.936 2.087-2.087 2.087z"></path>
</svg>
