<!-- Generated by IcoMoon.io -->
<svg version="1.1" xmlns="http://www.w3.org/2000/svg" width="32" height="32" viewBox="0 0 32 32">
<title>grua-1</title>
<path d="M5.717 23.775c0 0.751 0.614 1.359 1.359 1.359h0.614c0.751 0 1.359-0.614 1.359-1.359s-0.614-1.359-1.359-1.359h-0.614c-0.745 0-1.359 0.608-1.359 1.359z"></path>
<path d="M21.991 25.14h0.614c0.751 0 1.359-0.614 1.359-1.359s-0.614-1.359-1.359-1.359h-0.614c-0.751 0-1.359 0.614-1.359 1.359s0.614 1.359 1.359 1.359z"></path>
<path d="M28.459 12.198c-0.477-0.542-1.359-0.614-1.908-0.137s-0.614 1.359-0.137 1.908c0.614 0.679 1.496 1.091 2.385 1.091 1.771 0 3.201-1.633 3.201-3.606 0-1.666-1.013-3.038-2.398-3.43l-3.123-5.285c-0.412-0.706-1.405-0.843-1.973-0.34l-8.036 6.331h-2.528l-0.536-2.182c-0.137-0.614-0.679-1.019-1.294-1.019h-7.010c-0.751 0-1.359 0.614-1.359 1.359v11.237c-2.208 0.921-3.744 3.097-3.744 5.651 0 3.404 2.724 6.128 6.128 6.128h17.431c3.404 0 6.128-2.724 6.128-6.128s-2.724-6.128-6.128-6.128h-7.422l-1.522-6.2h2.339c0.34 0 0.614-0.065 0.889-0.34l7.147-5.723c0 0 2.548 4.397 2.561 4.417 0.209 0.483 0.693 0.83 1.254 0.83 0.274 0 0.542 0.412 0.542 0.889s-0.359 1.235-0.889 0.679zM6.396 8.18h4.704l2.313 9.467h-7.017v-9.467zM23.559 20.299c1.908 0.007 3.476 1.568 3.476 3.476s-1.568 3.476-3.476 3.476h-17.431c-1.908 0-3.476-1.568-3.476-3.476s1.568-3.476 3.476-3.476h17.431z"></path>
</svg>
