<!-- Generated by IcoMoon.io -->
<svg version="1.1" xmlns="http://www.w3.org/2000/svg" width="32" height="32" viewBox="0 0 32 32">
<title>grua</title>
<path d="M29.815 20.755c-0.032-5.924-4.858-10.734-10.789-10.734h-2.348c-1.935 0-3.508 1.574-3.508 3.508v2.604h-1.114v-13.247c0-0.45-0.283-0.851-0.707-1.001-0.425-0.151-0.897-0.018-1.18 0.332l-6.794 8.375c-1.903 0.271-3.376 1.894-3.376 3.87v2.773c0 0.587 0.476 1.062 1.062 1.062s1.062-0.476 1.062-1.062v-2.773c0-0.994 0.808-1.802 1.802-1.802s1.802 0.808 1.802 1.802v2.773c0 0.587 0.476 1.062 1.062 1.062s1.062-0.476 1.062-1.062v-2.773c0-1.496-0.851-2.784-2.086-3.447l4.165-5.133v11.314c0 0.587 0.476 1.062 1.062 1.062h2.176v1.504l-7.004 0.011c-2.868 0-5.202 2.334-5.202 5.202s2.334 5.202 5.202 5.202h20.633c2.868 0 5.202-2.334 5.202-5.202 0-1.741-0.867-3.276-2.185-4.221zM27.629 19.751l-12.335 0.011v-2.168h7.146c0.294 0 0.531-0.238 0.531-0.531v-3.961c2.501 1.284 4.301 3.745 4.658 6.65zM16.678 12.145h2.348c1.011 0 1.98 0.182 2.883 0.502v3.884h-6.615v-3.002c0-0.763 0.621-1.384 1.384-1.384zM26.798 28.052h-20.633c-1.697 0-3.077-1.381-3.077-3.077s1.381-3.077 3.077-3.077h20.633c1.697 0 3.077 1.381 3.077 3.077s-1.381 3.077-3.077 3.077z"></path>
<path d="M6.777 22.899c-1.145 0-2.074 0.931-2.074 2.077 0 1.145 0.929 2.075 2.074 2.075 1.147 0 2.076-0.929 2.076-2.075 0-1.147-0.929-2.077-2.076-2.077z"></path>
<path d="M13.248 22.899c-1.146 0-2.076 0.931-2.076 2.077 0 1.145 0.931 2.075 2.076 2.075 1.147 0 2.076-0.929 2.076-2.075 0-1.147-0.929-2.077-2.076-2.077z"></path>
<path d="M19.716 22.899c-1.146 0-2.075 0.931-2.075 2.077 0 1.145 0.929 2.075 2.075 2.075s2.077-0.929 2.077-2.075c0-1.147-0.93-2.077-2.077-2.077z"></path>
<path d="M26.186 22.899c-1.146 0-2.075 0.931-2.075 2.077 0 1.145 0.929 2.075 2.075 2.075s2.075-0.929 2.075-2.075c0-1.147-0.929-2.077-2.075-2.077z"></path>
</svg>
