<!-- Generated by IcoMoon.io -->
<svg version="1.1" xmlns="http://www.w3.org/2000/svg" width="32" height="32" viewBox="0 0 32 32">
<title>grua-de-construccion</title>
<path d="M6.197 31.259h-1.601c-0.019 0-0.039-0.001-0.057-0.004h-3.282c-0.141 0-0.27-0.075-0.341-0.197s-0.070-0.272 0-0.393l3.286-5.668v-18.149h-3.809c-0.168 0-0.318-0.107-0.372-0.266s-0.001-0.335 0.132-0.438l4.050-3.124v-1.886c0-0.217 0.176-0.393 0.393-0.393h1.601c0.217 0 0.393 0.176 0.393 0.393v1.732l8.633 1.333c0.003 0 0.007 0.001 0.010 0.002l12.080 1.865c0.047 0.006 0.092 0.021 0.132 0.043s0.075 0.049 0.105 0.081c0 0 0 0 0 0.001 0.048 0.052 0.081 0.117 0.095 0.189 0.005 0.025 0.007 0.052 0.007 0.078v6.831l4.233 4.264c0.112 0.113 0.145 0.282 0.084 0.428s-0.204 0.242-0.363 0.242h-8.726c-0.159 0-0.302-0.096-0.363-0.243s-0.027-0.316 0.085-0.429l4.264-4.264v-6.44h-9.104c-0.003 0-0.006 0-0.009 0h-11.163v18.105l4.991 5.648c0.102 0.116 0.127 0.281 0.064 0.422s-0.204 0.232-0.358 0.232h-5.032c-0.019 0.003-0.038 0.004-0.057 0.004zM6.59 30.469h3.824l-3.824-4.328v4.328zM4.989 30.469h0.815v-5.365c0-0.001 0-0.002 0-0.003v-18.253h-0.815v18.247c0 0.005 0 0.010 0 0.014v5.359zM1.939 30.469h2.264v-3.904l-2.264 3.904zM23.83 17.437h6.833l-3.404-3.429-3.429 3.429zM17.886 6.062h4.251l-5.409-0.835 1.159 0.835zM13.876 6.062h2.664l-1.366-0.985-1.298 0.985zM9.669 6.062h2.447l-1.183-1.503-1.264 1.503zM6.59 6.062h1.553l-1.553-1.8v1.8zM4.989 6.062h0.815v-2.465h-0.815v2.465zM1.547 6.062h2.656v-2.049l-2.656 2.049zM11.869 4.477l1.045 1.328 1.278-0.969-2.323-0.359zM7.192 3.755l1.716 1.99 1.284-1.527-3-0.463zM4.989 2.81h0.815v-1.283h-0.815v1.283z"></path>
</svg>
