<!-- Generated by IcoMoon.io -->
<svg version="1.1" xmlns="http://www.w3.org/2000/svg" width="32" height="32" viewBox="0 0 32 32">
<title>hormigonera-con-ruedas</title>
<path d="M27.743 25.717c-1.074 0-1.948 0.874-1.948 1.948s0.874 1.948 1.948 1.948c1.074 0 1.948-0.874 1.948-1.948s-0.874-1.948-1.948-1.948zM27.743 29.056c-0.767 0-1.392-0.624-1.392-1.392s0.624-1.392 1.392-1.392c0.767 0 1.392 0.624 1.392 1.392s-0.624 1.392-1.392 1.392z"></path>
<path d="M30.875 24.785v-14.169c0-0.358-0.292-0.65-0.65-0.65h-3.486c-0.358 0-0.65 0.292-0.65 0.65v13.127c-1.019 0.431-1.836 1.249-2.267 2.267l-22.794-0c-0.359 0-0.65 0.292-0.65 0.65v2.009c0 0.358 0.292 0.65 0.65 0.65h0.45v1.974c0 0.358 0.292 0.65 0.65 0.65h3.572c0.358 0 0.65-0.292 0.65-0.65v-1.974h17.472c0.647 1.528 2.161 2.602 3.922 2.602 2.347 0 4.257-1.91 4.257-4.257-0-1.11-0.427-2.121-1.126-2.88zM26.645 10.616c0-0.052 0.042-0.094 0.094-0.094h0.844c-0.003 0.017-0.005 0.034-0.005 0.052v7.366c0 0.154 0.124 0.278 0.278 0.278s0.278-0.124 0.278-0.278v-7.366c0-0.018-0.002-0.035-0.005-0.052h2.097c0.052 0 0.094 0.042 0.094 0.094v13.662c-0.716-0.546-1.608-0.87-2.575-0.87-0.38 0-0.748 0.051-1.099 0.145v-12.936zM5.794 31.293c0 0.052-0.042 0.094-0.094 0.094h-3.572c-0.052 0-0.094-0.042-0.094-0.094v-1.974h3.76v1.974zM1.028 28.763c-0.052 0-0.094-0.042-0.094-0.094v-2.009c0-0.052 0.042-0.094 0.094-0.094l22.603 0c-0.094 0.351-0.145 0.719-0.145 1.099s0.051 0.748 0.145 1.098h-22.603zM27.743 31.365c-2.041 0-3.701-1.66-3.701-3.701s1.66-3.701 3.701-3.701c2.041 0 3.701 1.66 3.701 3.701s-1.66 3.701-3.701 3.701z"></path>
<path d="M2.267 16.423v-1.061h3.374v2.788c0 0.449 0.139 1.125 0.317 1.537l2.043 4.748c0.206 0.477 0.774 0.852 1.294 0.852h12.462c0.52 0 1.088-0.374 1.294-0.852l2.043-4.748c0.178-0.413 0.317-1.088 0.317-1.537v-7.402c0-0.457-0.171-1.129-0.39-1.531l-4.551-8.361c-0.244-0.448-0.834-0.799-1.344-0.799h-7.199c-0.51 0-1.1 0.351-1.344 0.799l-4.551 8.361c-0.219 0.401-0.39 1.074-0.39 1.53v1.751h-3.374v-1.062c0-0.154-0.124-0.278-0.278-0.278h-1.711c-0.154 0-0.278 0.124-0.278 0.278v4.985c0 0.154 0.124 0.278 0.278 0.278h1.711c0.154 0 0.278-0.124 0.278-0.278zM11.070 1.122c0.148-0.271 0.547-0.509 0.856-0.509h7.199c0.308 0 0.708 0.238 0.856 0.509l0.559 1.026h-7.308c-0.154 0-0.278 0.124-0.278 0.278s0.124 0.278 0.278 0.278h7.611l0.791 1.453h-4.493c-0.154 0-0.278 0.124-0.278 0.278s0.124 0.278 0.278 0.278h4.796l2.596 4.77c0.174 0.32 0.322 0.9 0.322 1.265v7.402c0 0.133-0.016 0.296-0.043 0.466h-10.378c-0.154 0-0.278 0.124-0.278 0.278s0.124 0.278 0.278 0.278h10.253c-0.032 0.11-0.067 0.211-0.104 0.296l-2.043 4.748c-0.118 0.274-0.484 0.515-0.783 0.515h-12.462c-0.299 0-0.665-0.241-0.783-0.515l-2.043-4.748c-0.037-0.085-0.072-0.186-0.104-0.296h5.077c0.154 0 0.278-0.124 0.278-0.278s-0.124-0.278-0.278-0.278h-5.202c-0.027-0.17-0.043-0.333-0.043-0.466v-7.402c0-0.134 0.020-0.297 0.054-0.466h16.004c0.154 0 0.278-0.124 0.278-0.278s-0.124-0.278-0.278-0.278h-15.845c0.034-0.090 0.071-0.173 0.109-0.243l4.551-8.361zM5.641 13.055v1.751h-3.374v-1.751h3.374zM1.711 16.145h-1.155v-4.429h1.155v4.429z"></path>
</svg>
