<!-- Generated by IcoMoon.io -->
<svg version="1.1" xmlns="http://www.w3.org/2000/svg" width="32" height="32" viewBox="0 0 32 32">
<title>maquinaria-pesada</title>
<path d="M31.294 9.864c-0.679-1.099-4.074-6.251-8.068-6.251-3.928 0-7.277 4.984-8.032 6.194h-0.226v-2.065c0-0.569-0.463-1.032-1.032-1.032h-4.645c-0.569 0-1.032 0.463-1.032 1.032v1.032h-4.315c-0.401 0-0.769 0.235-0.937 0.6l-2.911 6.307c-0.063 0.136-0.095 0.282-0.095 0.433v8.145c0 0.854 0.695 1.548 1.548 1.548h3.249c0.445 1.49 1.828 2.581 3.461 2.581s3.015-1.091 3.461-2.581h3.917c0.445 1.49 1.828 2.581 3.461 2.581 1.315 0 2.465-0.709 3.097-1.762 0.632 1.053 1.782 1.762 3.097 1.762 1.633 0 3.015-1.091 3.461-2.581h2.217c0.569 0 1.032-0.463 1.032-1.032v-13.935c0-0.455-0.297-0.837-0.706-0.974zM23.226 4.645c2.941 0 5.697 3.552 6.795 5.161h-13.59c1.098-1.609 3.854-5.161 6.795-5.161zM4.645 24.774h-3.097c-0.285 0-0.516-0.231-0.516-0.516v-0.516h3.765c-0.098 0.327-0.152 0.674-0.152 1.032zM8.258 27.355c-1.423 0-2.581-1.158-2.581-2.581s1.158-2.581 2.581-2.581c1.423 0 2.581 1.158 2.581 2.581s-1.158 2.581-2.581 2.581zM15.484 24.774h-3.613c0-0.359-0.054-0.705-0.152-1.032h3.917c-0.098 0.327-0.152 0.674-0.152 1.032zM19.097 27.355c-1.423 0-2.581-1.158-2.581-2.581s1.158-2.581 2.581-2.581c1.423 0 2.581 1.158 2.581 2.581s-1.158 2.581-2.581 2.581zM25.29 27.355c-1.423 0-2.581-1.158-2.581-2.581s1.158-2.581 2.581-2.581c1.423 0 2.581 1.158 2.581 2.581s-1.158 2.581-2.581 2.581zM30.968 24.774h-2.065c0-0.359-0.054-0.705-0.152-1.032h2.217v1.032zM30.968 22.71h-2.717c-0.654-0.935-1.736-1.548-2.961-1.548-1.315 0-2.465 0.709-3.097 1.762-0.632-1.053-1.782-1.762-3.097-1.762-1.224 0-2.307 0.614-2.961 1.548h-4.918c-0.654-0.935-1.736-1.548-2.961-1.548s-2.307 0.614-2.961 1.548h-4.265v-1.032h1.548v-1.032h-1.548v-4.532l2.911-6.307h6.379v10.323h20.645v2.581zM30.968 19.097h-2.065v-6.194h-1.032v6.194h-2.581v-6.194h-1.032v6.194h-2.581v-6.194h-1.032v6.194h-2.581v-6.194h-1.032v6.194h-2.581v-6.194h-1.032v6.194h-2.065v-9.29c0-0.569-0.463-1.032-1.032-1.032h-1.032v-1.032h4.645v3.097h17.032v8.258z"></path>
<path d="M8.258 10.839h-2.995c-0.401 0-0.768 0.235-0.937 0.6l-2.262 4.901v2.241c0 0.569 0.463 1.032 1.032 1.032h5.161c0.569 0 1.032-0.463 1.032-1.032v-6.71c0-0.569-0.463-1.032-1.032-1.032zM8.258 16h-1.032v1.032h1.032v1.548h-5.161v-1.548h3.097v-1.032h-2.835l1.905-4.129h2.995v4.129z"></path>
<path d="M8.258 23.226c-0.854 0-1.548 0.695-1.548 1.548s0.695 1.548 1.548 1.548 1.548-0.695 1.548-1.548-0.695-1.548-1.548-1.548zM8.258 25.29c-0.285 0-0.516-0.231-0.516-0.516s0.231-0.516 0.516-0.516 0.516 0.231 0.516 0.516c0 0.285-0.231 0.516-0.516 0.516z"></path>
<path d="M25.29 23.226c-0.854 0-1.548 0.695-1.548 1.548s0.695 1.548 1.548 1.548 1.548-0.695 1.548-1.548-0.695-1.548-1.548-1.548zM25.29 25.29c-0.285 0-0.516-0.231-0.516-0.516s0.231-0.516 0.516-0.516c0.285 0 0.516 0.231 0.516 0.516s-0.231 0.516-0.516 0.516z"></path>
<path d="M19.097 23.226c-0.854 0-1.548 0.695-1.548 1.548s0.695 1.548 1.548 1.548 1.548-0.695 1.548-1.548-0.695-1.548-1.548-1.548zM19.097 25.29c-0.285 0-0.516-0.231-0.516-0.516s0.231-0.516 0.516-0.516c0.285 0 0.516 0.231 0.516 0.516s-0.231 0.516-0.516 0.516z"></path>
<path d="M24.774 5.677h1.032v1.032h-1.032v-1.032z"></path>
<path d="M27.355 8.258h1.032v1.032h-1.032v-1.032z"></path>
<path d="M23.742 7.742h1.032v1.032h-1.032v-1.032z"></path>
<path d="M21.677 6.71h1.032v1.032h-1.032v-1.032z"></path>
<path d="M19.097 7.742h1.032v1.032h-1.032v-1.032z"></path>
</svg>
