<!-- Generated by IcoMoon.io -->
<svg version="1.1" xmlns="http://www.w3.org/2000/svg" width="32" height="32" viewBox="0 0 32 32">
<title>maquinaria</title>
<path d="M9.806 24.258c-1.423 0-2.581 1.158-2.581 2.581s1.158 2.581 2.581 2.581c1.423 0 2.581-1.158 2.581-2.581s-1.158-2.581-2.581-2.581zM9.806 28.387c-0.854 0-1.548-0.695-1.548-1.548s0.695-1.548 1.548-1.548 1.548 0.695 1.548 1.548-0.695 1.548-1.548 1.548z"></path>
<path d="M24.774 24.258h3.097v1.032h-3.097v-1.032z"></path>
<path d="M31.3 21.677c-1.121-2.363-3.41-3.926-6.009-4.11v-8.793h1.032v3.097c0 0.569 0.463 1.032 1.032 1.032h1.032c0.569 0 1.032-0.463 1.032-1.032v-3.097c0-0.569-0.463-1.032-1.032-1.032h-3.149c-0.078-0.383-0.249-0.731-0.477-1.032h0.529c0.569 0 1.032-0.463 1.032-1.032v-1.032c0-0.569-0.463-1.032-1.032-1.032v-3.613h-3.953l-1.548 3.613h-7.918c-0.569 0-1.032 0.463-1.032 1.032v1.032c0 0.569 0.463 1.032 1.032 1.032h0.095c-0.21 0.279-0.372 0.599-0.456 0.957l-1.415 6.014c-0.127 0.541-0.537 0.974-1.070 1.13l-6.14 1.806c-1.091 0.321-1.852 1.339-1.852 2.476v5.522l-1.032 0.281v4.523h5.343c0.894 1.54 2.557 2.581 4.463 2.581 2.492 0 4.578-1.776 5.057-4.129h3.385c0.377 0.796 0.887 1.5 1.498 2.092 0.010 0.010 0.021 0.020 0.031 0.030 0.366 0.351 0.767 0.661 1.197 0.926 0.024 0.015 0.049 0.030 0.073 0.045 0.415 0.25 0.856 0.458 1.317 0.62 0.043 0.015 0.086 0.030 0.13 0.045 0.228 0.075 0.458 0.143 0.694 0.196 0.005 0.001 0.009 0.002 0.014 0.003 0.224 0.050 0.452 0.085 0.682 0.114 0.058 0.007 0.116 0.014 0.174 0.020 0.237 0.023 0.475 0.039 0.716 0.039 2.809 0 5.331-1.611 6.525-4.129h0.7v-6.194h-0.7zM27.355 8.774h1.032v3.097h-1.032v-3.097zM24.774 18.581c2.239 0 4.265 1.194 5.362 3.097h-1.244c-0.974-1.293-2.488-2.065-4.117-2.065-2.846 0-5.161 2.315-5.161 5.161h-1.032c0-3.415 2.778-6.194 6.194-6.194zM27.501 21.677h-3.974l-2.871 2.872c0.118-2.172 1.917-3.904 4.118-3.904 1.018 0 1.982 0.375 2.727 1.032zM21.677 13.935v4.32c-0.208 0.099-0.41 0.207-0.606 0.325h-7.136v-4.645h7.742zM14.049 12.903l0.826-4.129h6.803v4.129h-7.628zM22.018 1.032h2.241v2.581h-3.347l1.106-2.581zM11.871 5.677v-1.032h13.419l0.001 1.032h-13.42zM11.1 13.917l1.415-6.013c0.165-0.703 0.785-1.194 1.507-1.194h8.687c0.854 0 1.548 0.695 1.548 1.548v9.317c-0.534 0.038-1.052 0.13-1.548 0.278v-10.111h-8.681l-1.115 5.576-0.009 5.262h-1.048l-1.425-3.452c0.323-0.331 0.559-0.746 0.668-1.211zM4.883 28.387h-3.851v-2.702l4.154-1.133c-0.343 0.691-0.541 1.465-0.541 2.287 0 0.539 0.084 1.059 0.238 1.548zM2.065 24.334v-2.136l2.064 0.003 0.002-1.032-2.066-0.003v-1.036l2.064 0.003 0.002-1.032-2.066-0.003v-0.004c0-0.682 0.457-1.293 1.111-1.486l6.14-1.806c0.082-0.024 0.161-0.056 0.239-0.088l2.714 6.59c-0.732-0.399-1.571-0.627-2.462-0.627-1.442 0-2.745 0.596-3.682 1.551l-4.060 1.105zM9.806 30.968c-2.277 0-4.129-1.852-4.129-4.129s1.852-4.129 4.129-4.129 4.129 1.852 4.129 4.129c0 2.277-1.852 4.129-4.129 4.129zM14.534 24.774c-0.131-0.299-0.289-0.584-0.472-0.851l-1.779-4.311h7.445c-1.342 1.313-2.179 3.14-2.179 5.161h-3.015zM24.774 30.968c-0.206 0-0.41-0.014-0.614-0.034-0.050-0.005-0.1-0.011-0.149-0.017-0.198-0.024-0.395-0.055-0.588-0.098-0.003-0.001-0.006-0.001-0.008-0.002-0.202-0.045-0.401-0.103-0.597-0.168-0.036-0.012-0.072-0.025-0.108-0.037-0.395-0.139-0.775-0.317-1.134-0.534-0.019-0.011-0.037-0.023-0.055-0.034-0.37-0.228-0.716-0.495-1.034-0.801-0.006-0.006-0.012-0.012-0.019-0.019-0.161-0.155-0.314-0.32-0.459-0.494l-0.002 0.002c-0.221-0.267-0.419-0.556-0.595-0.862h1.244c0.974 1.293 2.488 2.065 4.117 2.065s3.143-0.771 4.117-2.065h1.245c-1.097 1.902-3.123 3.096-5.362 3.096zM22.047 27.871h5.454c-0.745 0.657-1.709 1.032-2.727 1.032s-1.982-0.375-2.727-1.032zM30.968 26.839h-16c0-0.354-0.036-0.699-0.104-1.032h5.995l3.097-3.097h7.012v4.129z"></path>
<path d="M18.581 14.968h2.065v1.032h-2.065v-1.032z"></path>
</svg>
