<!-- Generated by IcoMoon.io -->
<svg version="1.1" xmlns="http://www.w3.org/2000/svg" width="32" height="32" viewBox="0 0 32 32">
<title>montacargas</title>
<path d="M18.126 9.561c0.877-0.28 1.621-0.889 2.048-1.745l0.622-1.245c0.109-0.216 0.096-0.472-0.031-0.676s-0.351-0.33-0.591-0.33h-9.739c-0.241 0-0.465 0.125-0.591 0.33s-0.139 0.46-0.031 0.676l0.622 1.245c0.44 0.879 1.21 1.508 2.119 1.775 0.161 2.598 1.416 4.579 2.546 6.333 0.857 1.33 1.596 2.481 1.596 3.553 0 1.151-0.936 2.087-2.087 2.087-0.888 0-3.093-0.896-6.641-2.706-0.214-0.109-0.473-0.099-0.679 0.026-0.207 0.125-0.333 0.351-0.333 0.593 0 4.218 3.432 7.652 7.652 7.652s7.652-3.434 7.652-7.652c0-2.166-1.153-4.036-2.268-5.845-0.868-1.407-1.689-2.745-1.867-4.072z"></path>
<path d="M16 0c-8.822 0-16 7.178-16 16s7.178 16 16 16 16-7.178 16-16-7.178-16-16-16zM16 30.609c-8.056 0-14.609-6.553-14.609-14.609s6.553-14.609 14.609-14.609 14.609 6.553 14.609 14.609-6.553 14.609-14.609 14.609z"></path>
</svg>
