<!-- Generated by IcoMoon.io -->
<svg version="1.1" xmlns="http://www.w3.org/2000/svg" width="32" height="32" viewBox="0 0 32 32">
<title>tractor</title>
<path d="M3.821 21.057c-0.893 0-1.62 0.727-1.62 1.621s0.727 1.621 1.62 1.621c0.893 0 1.62-0.727 1.62-1.621s-0.727-1.621-1.62-1.621zM3.821 23.361c-0.376 0-0.682-0.307-0.682-0.683s0.306-0.683 0.682-0.683c0.376 0 0.682 0.306 0.682 0.683s-0.306 0.683-0.682 0.683z"></path>
<path d="M10.299 21.057c-0.893 0-1.62 0.727-1.62 1.621s0.727 1.621 1.62 1.621c0.893 0 1.62-0.727 1.62-1.621s-0.727-1.621-1.62-1.621zM10.299 23.361c-0.376 0-0.682-0.307-0.682-0.683s0.306-0.683 0.682-0.683c0.376 0 0.682 0.306 0.682 0.683s-0.306 0.683-0.682 0.683z"></path>
<path d="M16.778 21.057c-0.893 0-1.62 0.727-1.62 1.621s0.727 1.621 1.62 1.621c0.893 0 1.62-0.727 1.62-1.621s-0.727-1.621-1.62-1.621zM16.778 23.361c-0.376 0-0.682-0.307-0.682-0.683s0.306-0.683 0.682-0.683c0.376 0 0.682 0.306 0.682 0.683s-0.306 0.683-0.682 0.683z"></path>
<path d="M23.257 21.057c-0.893 0-1.62 0.727-1.62 1.621s0.727 1.621 1.62 1.621c0.893 0 1.62-0.727 1.62-1.621s-0.727-1.621-1.62-1.621zM23.257 23.361c-0.376 0-0.682-0.307-0.682-0.683s0.306-0.683 0.682-0.683c0.376 0 0.682 0.306 0.682 0.683s-0.306 0.683-0.682 0.683z"></path>
<path d="M7.562 22.209h-1.071c-0.259 0-0.469 0.21-0.469 0.469s0.21 0.469 0.469 0.469h1.071c0.259 0 0.469-0.21 0.469-0.469s-0.21-0.469-0.469-0.469z"></path>
<path d="M14.074 22.209h-1.071c-0.259 0-0.469 0.21-0.469 0.469s0.21 0.469 0.469 0.469h1.071c0.259 0 0.469-0.21 0.469-0.469s-0.21-0.469-0.469-0.469z"></path>
<path d="M20.587 22.209h-1.071c-0.259 0-0.469 0.21-0.469 0.469s0.21 0.469 0.469 0.469h1.071c0.259 0 0.469-0.21 0.469-0.469s-0.21-0.469-0.469-0.469z"></path>
<path d="M18.148 14.534c-0.233-0.113-0.513-0.016-0.626 0.217l-0.799 1.649c-0.113 0.233-0.016 0.513 0.217 0.626 0.066 0.032 0.136 0.047 0.204 0.047 0.174 0 0.341-0.097 0.422-0.264l0.799-1.649c0.113-0.233 0.016-0.513-0.217-0.626z"></path>
<path d="M19.752 14.534c-0.233-0.113-0.513-0.016-0.626 0.217l-0.799 1.649c-0.113 0.233-0.016 0.513 0.217 0.626 0.066 0.032 0.136 0.047 0.204 0.047 0.174 0 0.341-0.097 0.422-0.264l0.799-1.649c0.113-0.233 0.016-0.513-0.217-0.626z"></path>
<path d="M6.867 16.135h-1.087c-0.259 0-0.469 0.21-0.469 0.469s0.21 0.469 0.469 0.469h1.087c0.259 0 0.469-0.21 0.469-0.469s-0.21-0.469-0.469-0.469z"></path>
<path d="M13.23 9.307c-0.157-0.33-0.495-0.543-0.86-0.543h-5.215c-0.525 0-0.952 0.428-0.952 0.953v2.686c0 0.178 0.050 0.352 0.144 0.504l1.431 2.301c0.175 0.281 0.477 0.449 0.809 0.449h6.041c0.525 0 0.952-0.428 0.952-0.953v-0.242c0-0.141-0.032-0.283-0.092-0.41l-2.257-4.745zM14.627 14.719h-6.041c-0.005 0-0.010-0.003-0.013-0.007l-1.431-2.301c-0.002-0.002-0.002-0.005-0.002-0.008v-2.686c0-0.009 0.007-0.015 0.015-0.015h5.216c0.006 0 0.011 0.003 0.013 0.009l2.257 4.745c0.001 0.002 0.002 0.004 0.002 0.007v0.242c-0 0.009-0.007 0.015-0.015 0.015z"></path>
<path d="M31.871 24.814l-1.063-1.719c-0.136-0.22-0.425-0.288-0.645-0.152s-0.288 0.425-0.152 0.645l0.966 1.562-4.161-0.982c0.013-0.028 0.024-0.056 0.036-0.084 0.005-0.011 0.010-0.023 0.015-0.034 0.019-0.045 0.037-0.090 0.054-0.136 0.005-0.013 0.010-0.026 0.015-0.040 0.016-0.045 0.031-0.090 0.046-0.135 0.005-0.015 0.009-0.030 0.014-0.045 0.013-0.044 0.026-0.089 0.038-0.134 0.004-0.017 0.008-0.034 0.013-0.051 0.011-0.044 0.021-0.087 0.030-0.131 0.004-0.020 0.007-0.039 0.011-0.059 0.008-0.042 0.016-0.084 0.023-0.127 0.004-0.023 0.006-0.047 0.009-0.070 0.005-0.040 0.011-0.079 0.015-0.119 0.003-0.029 0.005-0.059 0.007-0.089 0.003-0.035 0.006-0.069 0.008-0.103 0.003-0.053 0.004-0.107 0.004-0.161 0-0.011 0.001-0.022 0.001-0.033 0-0 0-0.001 0-0.001s0-0 0-0.001-0-0.001-0-0.002c-0-0.058-0.002-0.116-0.005-0.178-0.001-0.018-0.002-0.036-0.003-0.054l-0.001-0.009c-0.001-0.019-0.003-0.039-0.004-0.058-0.006-0.068-0.013-0.136-0.022-0.203-0.002-0.013-0.003-0.026-0.005-0.040 0-0 0-0-0-0-0.004-0.025-0.008-0.049-0.012-0.074l-0-0.001c-0.006-0.034-0.011-0.067-0.018-0.101-0-0.001-0-0.001-0-0.002-0.005-0.023-0.009-0.045-0.014-0.068-0.001-0.003-0.001-0.005-0.002-0.008-0.007-0.032-0.014-0.064-0.022-0.095-0-0.002-0.001-0.003-0.001-0.005-0.005-0.022-0.011-0.044-0.017-0.066-0.001-0.003-0.001-0.005-0.002-0.008-0.008-0.031-0.017-0.062-0.026-0.092-0.001-0.004-0.003-0.008-0.004-0.012-0.006-0.019-0.011-0.037-0.017-0.056-0.001-0.004-0.002-0.007-0.003-0.011-0.010-0.030-0.020-0.059-0.030-0.089-0.003-0.008-0.005-0.015-0.008-0.023-0.005-0.014-0.010-0.028-0.015-0.042-0.002-0.004-0.003-0.009-0.005-0.013-0.011-0.029-0.022-0.057-0.034-0.086l-0.005-0.013c-0.004-0.010-0.009-0.021-0.013-0.031-0.002-0.005-0.004-0.011-0.007-0.016s-0.005-0.012-0.007-0.017c-0.010-0.023-0.020-0.046-0.031-0.069l-0.012-0.027c-0.010-0.021-0.019-0.042-0.029-0.063s-0.020-0.040-0.030-0.059l-0.017-0.032c-0.011-0.021-0.022-0.043-0.033-0.063-0.007-0.013-0.014-0.025-0.021-0.037l-0.006-0.010c-0.038-0.068-0.079-0.135-0.122-0.201l-0.005-0.008c-0.006-0.010-0.013-0.020-0.019-0.029-0.019-0.028-0.038-0.055-0.057-0.082l-0.016-0.023c-0.008-0.012-0.016-0.023-0.024-0.034-0.022-0.030-0.045-0.059-0.068-0.088l-0.008-0.010c-0.009-0.012-0.019-0.025-0.028-0.036-0.023-0.029-0.048-0.057-0.072-0.086l-0.006-0.007c-0.010-0.012-0.020-0.024-0.030-0.035-0.025-0.029-0.051-0.057-0.078-0.085-0.012-0.013-0.024-0.026-0.036-0.038-0.027-0.028-0.055-0.056-0.083-0.083-0.012-0.012-0.024-0.023-0.035-0.033-0.030-0.028-0.060-0.056-0.090-0.083l-0.031-0.027c-0.033-0.028-0.066-0.056-0.1-0.084l-0.023-0.018c-0.037-0.029-0.074-0.058-0.11-0.084l-0.009-0.006c-0.182-0.133-0.375-0.247-0.576-0.344-0.002-0.001-0.003-0.002-0.005-0.002-0.104-0.050-0.211-0.095-0.319-0.136-0.016-0.006-0.032-0.011-0.047-0.017-0.022-0.008-0.044-0.016-0.066-0.023-0.002-0.001-0.008-0.003-0.010-0.003-0.011-0.004-0.022-0.007-0.033-0.010-0.025-0.008-0.051-0.016-0.077-0.023-0.014-0.004-0.027-0.009-0.042-0.013l-0.003-0.001 0.758-3.222 3.809 6.162c0.136 0.22 0.425 0.288 0.645 0.152s0.288-0.425 0.152-0.645l-3.907-6.321c-0.184-0.297-0.526-0.453-0.87-0.397s-0.619 0.312-0.7 0.653l-0.818 3.479c-0.028-0.001-0.057-0.002-0.085-0.002h-0.194v-4.603c0-0.886-0.72-1.606-1.605-1.606h-4.712l-2.212-4.649h1.434c0.408 0 0.741-0.332 0.741-0.741v-0.89c0-0.408-0.332-0.741-0.741-0.741h-8.014c-0.259 0-0.469 0.21-0.469 0.469s0.21 0.469 0.469 0.469h7.817v0.496h-11.575v-0.496h1.87c0.259 0 0.469-0.21 0.469-0.469s-0.21-0.469-0.469-0.469h-2.067c-0.408 0-0.741 0.332-0.741 0.741v0.89c0 0.408 0.332 0.741 0.741 0.741h0.238v6.824h-0.723v-2.447c0-0.352-0.286-0.638-0.638-0.638h-0.002v-1.093c0-0.409-0.333-0.742-0.742-0.742h-0.451c-0.259 0-0.469 0.21-0.469 0.469s0.21 0.469 0.469 0.469h0.256v0.898h-0.002c-0.352 0-0.638 0.286-0.638 0.638v2.447h-0.038c-0.379 0-0.687 0.308-0.687 0.687v3.597c0 0.327 0.23 0.601 0.536 0.67-0.783 0.684-1.28 1.69-1.28 2.811 0 2.055 1.672 3.727 3.727 3.727h19.699c1.146 0 2.173-0.521 2.857-1.338l4.658 1.1c0.066 0.016 0.133 0.023 0.199 0.023 0.272 0 0.532-0.13 0.697-0.358 0.204-0.284 0.218-0.659 0.034-0.956zM2.406 12.704h0.341v2.143h-0.341v-2.143zM1.681 15.789h2.795c0.479 0 0.869-0.39 0.869-0.869v-6.892h8.32l2.531 5.319c0.078 0.163 0.242 0.267 0.423 0.267h5.008c0.368 0 0.667 0.3 0.667 0.668v4.603h-20.614v-3.097zM26.215 22.622c-0 0.041-0.001 0.081-0.003 0.121-0.001 0.015-0.002 0.030-0.003 0.044-0.002 0.029-0.004 0.057-0.006 0.085-0.001 0.015-0.003 0.030-0.004 0.046-0.004 0.037-0.009 0.073-0.014 0.109-0.001 0.009-0.003 0.019-0.004 0.028-0.006 0.036-0.012 0.072-0.019 0.108-0.003 0.014-0.006 0.028-0.009 0.042-0.006 0.028-0.013 0.057-0.020 0.085-0.003 0.013-0.006 0.026-0.010 0.039-0.009 0.035-0.019 0.071-0.030 0.105-0.001 0.005-0.003 0.009-0.004 0.014-0.013 0.040-0.026 0.080-0.041 0.12-0.003 0.009-0.006 0.017-0.010 0.025-0.012 0.031-0.024 0.062-0.037 0.093-0.004 0.010-0.009 0.020-0.013 0.030-0.014 0.032-0.028 0.063-0.042 0.093-0.003 0.007-0.006 0.014-0.010 0.021-0.019 0.039-0.038 0.077-0.059 0.114-0 0.001-0.001 0.001-0.001 0.002-0.020 0.036-0.040 0.071-0.061 0.106-0.005 0.008-0.010 0.017-0.015 0.025-0.017 0.028-0.035 0.056-0.054 0.084-0.005 0.008-0.011 0.016-0.016 0.024-0.503 0.736-1.348 1.221-2.305 1.221h-19.699c-1.538 0-2.789-1.251-2.789-2.793 0-1.538 1.251-2.789 2.789-2.789h19.699c0.134 0 0.266 0.010 0.396 0.029 0.017 0.002 0.034 0.005 0.050 0.008 0.030 0.005 0.061 0.010 0.091 0.016 0.015 0.003 0.030 0.006 0.045 0.009 0.027 0.006 0.053 0.012 0.079 0.018 0.023 0.006 0.045 0.011 0.067 0.017 0.033 0.009 0.065 0.018 0.097 0.028 0.003 0.001 0.005 0.002 0.008 0.003 0.036 0.011 0.071 0.023 0.107 0.036 0.008 0.003 0.017 0.006 0.025 0.009 0.584 0.216 1.076 0.622 1.401 1.144 0.012 0.020 0.024 0.040 0.036 0.060 0.13 0.22 0.231 0.46 0.297 0.713 0.001 0.004 0.002 0.008 0.003 0.012 0.010 0.039 0.019 0.079 0.027 0.119 0.001 0.006 0.003 0.012 0.004 0.017 0.008 0.038 0.015 0.077 0.021 0.116 0.001 0.007 0.002 0.014 0.003 0.021 0.006 0.038 0.011 0.077 0.015 0.116 0.001 0.008 0.002 0.016 0.003 0.024 0.003 0.035 0.006 0.070 0.008 0.105l0.003 0.035c0.002 0.046 0.003 0.093 0.003 0.139 0 0.002-0 0.004-0 0.006z"></path>
</svg>
